G04 Layer_Physical_Order=2*
G04 Layer_Color=16711680*
%FSLAX42Y42*%
%MOMM*%
G71*
G01*
G75*
%ADD10C,1.00*%
%ADD11C,0.50*%
%ADD12C,2.00*%
%ADD13C,1.40*%
%ADD14C,1.88*%
%ADD15C,3.50*%
%ADD16C,1.27*%
G36*
X18601Y21457D02*
X18599Y21440D01*
X18603Y21399D01*
X18615Y21359D01*
X18635Y21323D01*
X18661Y21291D01*
X18693Y21265D01*
X18729Y21245D01*
X18769Y21233D01*
X18810Y21229D01*
X18851Y21233D01*
X18891Y21245D01*
X18921Y21261D01*
X18934Y21254D01*
Y21009D01*
X18920Y20991D01*
X18903Y20960D01*
X18893Y20926D01*
X18889Y20891D01*
X18893Y20856D01*
X18903Y20822D01*
X18920Y20791D01*
X18942Y20763D01*
X18970Y20741D01*
X18996Y20726D01*
X19000Y20712D01*
X18984Y20696D01*
X18006D01*
X17206Y21496D01*
X17199Y21502D01*
X17203Y21514D01*
X18544D01*
X18601Y21457D01*
D02*
G37*
G36*
X13360Y20891D02*
X13391Y20874D01*
X13425Y20864D01*
X13460Y20860D01*
X13495Y20864D01*
X13529Y20874D01*
X13560Y20891D01*
X13562Y20892D01*
X13574Y20887D01*
Y20856D01*
X13324Y20606D01*
X13295D01*
X13290Y20618D01*
X13296Y20624D01*
X13318Y20652D01*
X13324Y20666D01*
X13332Y20685D01*
X13336Y20720D01*
Y20895D01*
X13348Y20900D01*
X13360Y20891D01*
D02*
G37*
G36*
X19462Y20763D02*
X19490Y20741D01*
X19521Y20724D01*
X19555Y20714D01*
X19590Y20710D01*
X19625Y20714D01*
X19659Y20724D01*
X19681Y20736D01*
X19694Y20728D01*
Y20676D01*
X19604Y20586D01*
X19275D01*
X19270Y20598D01*
X19416Y20744D01*
X19438Y20772D01*
X19439Y20774D01*
X19451Y20776D01*
X19462Y20763D01*
D02*
G37*
G36*
X2478Y22072D02*
Y21555D01*
X2061Y21139D01*
X2050Y21140D01*
X2010Y21136D01*
X1972Y21124D01*
X1936Y21105D01*
X1905Y21080D01*
X1885Y21056D01*
X1869Y21055D01*
X1676Y21247D01*
Y21284D01*
X2456Y22064D01*
X2466Y22076D01*
X2478Y22072D01*
D02*
G37*
G36*
X11985Y21509D02*
X12005Y21473D01*
X12031Y21441D01*
X12063Y21415D01*
X12099Y21395D01*
X12139Y21383D01*
X12180Y21379D01*
X12221Y21383D01*
X12261Y21395D01*
X12283Y21407D01*
X12294Y21400D01*
Y21169D01*
X12280Y21151D01*
X12263Y21120D01*
X12253Y21086D01*
X12249Y21051D01*
X12253Y21016D01*
X12263Y20982D01*
X12280Y20951D01*
X12302Y20923D01*
X12330Y20901D01*
X12361Y20884D01*
X12395Y20874D01*
X12430Y20870D01*
X12465Y20874D01*
X12499Y20884D01*
X12530Y20901D01*
X12542Y20910D01*
X12554Y20905D01*
Y20846D01*
X12534Y20826D01*
X11606D01*
X10916Y21516D01*
X10909Y21522D01*
X10913Y21534D01*
X11978D01*
X11985Y21509D01*
D02*
G37*
G36*
X12850Y20901D02*
X12881Y20884D01*
X12915Y20874D01*
X12950Y20870D01*
X12985Y20874D01*
X13019Y20884D01*
X13050Y20901D01*
X13052Y20902D01*
X13064Y20897D01*
Y20776D01*
X13004Y20716D01*
X12819D01*
X12811Y20729D01*
X12822Y20755D01*
X12826Y20790D01*
Y20905D01*
X12838Y20910D01*
X12850Y20901D01*
D02*
G37*
G36*
X17464Y13463D02*
X17457Y13452D01*
X17441Y13457D01*
X17400Y13461D01*
X17359Y13457D01*
X17319Y13445D01*
X17283Y13425D01*
X17275Y13419D01*
X17267Y13425D01*
X17231Y13445D01*
X17191Y13457D01*
X17150Y13461D01*
X17109Y13457D01*
X17069Y13445D01*
X17033Y13425D01*
X17025Y13419D01*
X17017Y13425D01*
X16981Y13445D01*
X16941Y13457D01*
X16900Y13461D01*
X16859Y13457D01*
X16819Y13445D01*
X16783Y13425D01*
X16775Y13419D01*
X16767Y13425D01*
X16731Y13445D01*
X16691Y13457D01*
X16650Y13461D01*
X16609Y13457D01*
X16569Y13445D01*
X16533Y13425D01*
X16525Y13419D01*
X16517Y13425D01*
X16481Y13445D01*
X16441Y13457D01*
X16400Y13461D01*
X16359Y13457D01*
X16319Y13445D01*
X16283Y13425D01*
X16275Y13419D01*
X16267Y13425D01*
X16231Y13445D01*
X16191Y13457D01*
X16150Y13461D01*
X16109Y13457D01*
X16069Y13445D01*
X16033Y13425D01*
X16025Y13419D01*
X16017Y13425D01*
X15981Y13445D01*
X15941Y13457D01*
X15900Y13461D01*
X15859Y13457D01*
X15819Y13445D01*
X15783Y13425D01*
X15751Y13399D01*
X15725Y13367D01*
X15705Y13331D01*
X15693Y13291D01*
X15689Y13250D01*
X15693Y13209D01*
X15703Y13176D01*
X15695Y13163D01*
X15593D01*
Y13480D01*
X15588Y13515D01*
X15575Y13548D01*
X15553Y13576D01*
X15534Y13596D01*
X15534Y13608D01*
X15549Y13621D01*
X15560Y13634D01*
X17294D01*
X17464Y13463D01*
D02*
G37*
G36*
X9084Y13783D02*
X9082Y13771D01*
X9073Y13765D01*
X9041Y13739D01*
X9028Y13724D01*
X9016Y13724D01*
X8815Y13925D01*
X8816Y13941D01*
X8839Y13961D01*
X8850Y13974D01*
X8894D01*
X9084Y13783D01*
D02*
G37*
G36*
X12021Y14537D02*
X12019Y14520D01*
X12023Y14479D01*
X12035Y14439D01*
X12055Y14403D01*
X12081Y14371D01*
X12113Y14345D01*
X12149Y14325D01*
X12189Y14313D01*
X12230Y14309D01*
X12271Y14313D01*
X12311Y14325D01*
X12333Y14337D01*
X12344Y14330D01*
Y14239D01*
X12330Y14221D01*
X12313Y14190D01*
X12303Y14156D01*
X12299Y14121D01*
X12301Y14106D01*
X12292Y14096D01*
X9806D01*
X9196Y14706D01*
X9189Y14712D01*
X9193Y14724D01*
X11834D01*
X12021Y14537D01*
D02*
G37*
G36*
X10774Y20614D02*
X10771Y20601D01*
X10749Y20595D01*
X10713Y20575D01*
X10705Y20569D01*
X10697Y20575D01*
X10661Y20595D01*
X10621Y20607D01*
X10580Y20611D01*
X10539Y20607D01*
X10499Y20595D01*
X10463Y20575D01*
X10455Y20569D01*
X10447Y20575D01*
X10411Y20595D01*
X10371Y20607D01*
X10330Y20611D01*
X10289Y20607D01*
X10249Y20595D01*
X10213Y20575D01*
X10205Y20569D01*
X10197Y20575D01*
X10161Y20595D01*
X10121Y20607D01*
X10080Y20611D01*
X10039Y20607D01*
X9999Y20595D01*
X9963Y20575D01*
X9955Y20569D01*
X9947Y20575D01*
X9911Y20595D01*
X9871Y20607D01*
X9830Y20611D01*
X9789Y20607D01*
X9749Y20595D01*
X9713Y20575D01*
X9705Y20569D01*
X9697Y20575D01*
X9661Y20595D01*
X9621Y20607D01*
X9580Y20611D01*
X9539Y20607D01*
X9499Y20595D01*
X9463Y20575D01*
X9455Y20569D01*
X9447Y20575D01*
X9411Y20595D01*
X9371Y20607D01*
X9330Y20611D01*
X9289Y20607D01*
X9249Y20595D01*
X9213Y20575D01*
X9181Y20549D01*
X9168Y20534D01*
X9156Y20534D01*
X8955Y20735D01*
X8956Y20751D01*
X8979Y20771D01*
X8990Y20784D01*
X10604D01*
X10774Y20614D01*
D02*
G37*
G36*
X17208Y20570D02*
X17206Y20557D01*
X17203Y20555D01*
X17195Y20549D01*
X17187Y20555D01*
X17151Y20575D01*
X17111Y20587D01*
X17070Y20591D01*
X17029Y20587D01*
X16989Y20575D01*
X16953Y20555D01*
X16945Y20549D01*
X16937Y20555D01*
X16901Y20575D01*
X16861Y20587D01*
X16820Y20591D01*
X16779Y20587D01*
X16739Y20575D01*
X16703Y20555D01*
X16695Y20549D01*
X16687Y20555D01*
X16651Y20575D01*
X16611Y20587D01*
X16570Y20591D01*
X16529Y20587D01*
X16489Y20575D01*
X16453Y20555D01*
X16445Y20549D01*
X16437Y20555D01*
X16401Y20575D01*
X16361Y20587D01*
X16320Y20591D01*
X16279Y20587D01*
X16239Y20575D01*
X16203Y20555D01*
X16195Y20549D01*
X16187Y20555D01*
X16151Y20575D01*
X16111Y20587D01*
X16070Y20591D01*
X16029Y20587D01*
X15989Y20575D01*
X15953Y20555D01*
X15945Y20549D01*
X15937Y20555D01*
X15901Y20575D01*
X15861Y20587D01*
X15820Y20591D01*
X15779Y20587D01*
X15739Y20575D01*
X15703Y20555D01*
X15671Y20529D01*
X15658Y20514D01*
X15646Y20513D01*
X15445Y20715D01*
X15446Y20731D01*
X15469Y20751D01*
X15480Y20764D01*
X17014D01*
X17208Y20570D01*
D02*
G37*
G36*
X19990Y20731D02*
X20021Y20714D01*
X20055Y20704D01*
X20090Y20700D01*
X20125Y20704D01*
X20159Y20714D01*
X20190Y20731D01*
X20192Y20732D01*
X20204Y20727D01*
Y20606D01*
X20094Y20496D01*
X19915D01*
X19910Y20508D01*
X19926Y20524D01*
X19948Y20552D01*
X19962Y20585D01*
X19966Y20620D01*
Y20735D01*
X19978Y20740D01*
X19990Y20731D01*
D02*
G37*
G36*
X11822Y21938D02*
X11817Y21926D01*
X11656D01*
X11566Y22016D01*
X11559Y22022D01*
X11563Y22034D01*
X11726D01*
X11822Y21938D01*
D02*
G37*
G36*
X2781Y24546D02*
X2808Y24531D01*
X2839Y24522D01*
X2870Y24519D01*
X2963D01*
Y23561D01*
X2870D01*
X2855Y23559D01*
X2840Y23561D01*
X2809Y23558D01*
X2778Y23549D01*
X2768Y23543D01*
X2763Y23549D01*
X2750Y23560D01*
Y24520D01*
X2763Y24531D01*
X2778Y24549D01*
X2781Y24546D01*
D02*
G37*
G36*
X19510Y13411D02*
X19541Y13394D01*
X19575Y13384D01*
X19610Y13380D01*
X19645Y13384D01*
X19679Y13394D01*
X19710Y13411D01*
X19712Y13412D01*
X19724Y13407D01*
Y13366D01*
X19614Y13256D01*
X19415D01*
X19410Y13268D01*
X19446Y13304D01*
X19468Y13332D01*
X19482Y13365D01*
X19486Y13400D01*
Y13415D01*
X19498Y13420D01*
X19510Y13411D01*
D02*
G37*
G36*
X18234Y14034D02*
X18262Y14012D01*
X18295Y13998D01*
X18330Y13994D01*
X18680D01*
X18691Y13981D01*
X18723Y13955D01*
X18759Y13935D01*
X18799Y13923D01*
X18840Y13919D01*
X18881Y13923D01*
X18921Y13935D01*
X18943Y13947D01*
X18954Y13940D01*
Y13689D01*
X18940Y13671D01*
X18923Y13640D01*
X18913Y13606D01*
X18909Y13571D01*
X18913Y13536D01*
X18923Y13502D01*
X18940Y13471D01*
X18962Y13443D01*
X18990Y13421D01*
X19021Y13404D01*
X19055Y13394D01*
X19090Y13390D01*
X19125Y13394D01*
X19136Y13397D01*
X19143Y13386D01*
X19104Y13346D01*
X18446D01*
X17426Y14366D01*
X17419Y14372D01*
X17423Y14384D01*
X17884D01*
X18234Y14034D01*
D02*
G37*
G36*
X15013Y13629D02*
X15027Y13596D01*
X15049Y13568D01*
X15230Y13386D01*
Y12989D01*
X15235Y12954D01*
X15249Y12921D01*
X15270Y12893D01*
X15323Y12840D01*
X15351Y12819D01*
X15384Y12805D01*
X15419Y12800D01*
X15739D01*
X15746Y12790D01*
X15741Y12782D01*
X15732Y12751D01*
X15729Y12720D01*
Y12651D01*
X15001D01*
Y13628D01*
X15013Y13629D01*
X15013Y13629D01*
D02*
G37*
G36*
X8496Y16217D02*
X8488Y16211D01*
X8339Y16062D01*
X8317Y16034D01*
X8303Y16001D01*
X8299Y15966D01*
Y13984D01*
X8303Y13949D01*
X8317Y13916D01*
X8339Y13888D01*
X9023Y13204D01*
X9024Y13203D01*
X9021Y13193D01*
X9019Y13191D01*
X8989Y13188D01*
X8958Y13179D01*
X8931Y13164D01*
X8906Y13144D01*
X8886Y13119D01*
X8871Y13092D01*
X8862Y13061D01*
X8859Y13030D01*
Y12821D01*
X8151D01*
Y14930D01*
Y16229D01*
X8492D01*
X8496Y16217D01*
D02*
G37*
G36*
X17404Y23610D02*
Y23456D01*
X17337Y23389D01*
X17320Y23391D01*
X17279Y23387D01*
X17239Y23375D01*
X17217Y23363D01*
X17206Y23370D01*
Y23593D01*
X17213Y23600D01*
X17218Y23602D01*
X17249Y23593D01*
X17290Y23589D01*
X17331Y23593D01*
X17371Y23605D01*
X17393Y23617D01*
X17404Y23610D01*
D02*
G37*
G36*
X20234Y13425D02*
Y13316D01*
X20064Y13146D01*
X19905D01*
X19900Y13158D01*
X19956Y13214D01*
X19978Y13242D01*
X19992Y13275D01*
X19996Y13310D01*
Y13417D01*
X20008Y13422D01*
X20010Y13421D01*
X20041Y13404D01*
X20075Y13394D01*
X20110Y13390D01*
X20145Y13394D01*
X20179Y13404D01*
X20210Y13421D01*
X20222Y13430D01*
X20234Y13425D01*
D02*
G37*
G36*
X13332Y22063D02*
X13335Y22048D01*
X13214Y21926D01*
X13083D01*
X13078Y21938D01*
X13173Y22033D01*
X13210Y22029D01*
X13251Y22033D01*
X13291Y22045D01*
X13327Y22065D01*
X13328Y22065D01*
X13332Y22063D01*
D02*
G37*
G36*
X20497Y22015D02*
X20533Y21995D01*
X20573Y21983D01*
X20614Y21979D01*
X20655Y21983D01*
X20674Y21989D01*
X20684Y21981D01*
Y21643D01*
X20671Y21636D01*
X20635Y21647D01*
X20594Y21651D01*
X20553Y21647D01*
X20513Y21635D01*
X20477Y21615D01*
X20467Y21607D01*
X20457Y21615D01*
X20421Y21635D01*
X20381Y21647D01*
X20340Y21651D01*
X20299Y21647D01*
X20259Y21635D01*
X20223Y21615D01*
X20212Y21607D01*
X20201Y21615D01*
X20165Y21635D01*
X20125Y21647D01*
X20084Y21651D01*
X20043Y21647D01*
X20003Y21635D01*
X19967Y21615D01*
X19957Y21607D01*
X19947Y21615D01*
X19936Y21622D01*
X19939Y21634D01*
X19940D01*
X19975Y21638D01*
X20008Y21652D01*
X20036Y21674D01*
X20343Y21981D01*
X20360Y21979D01*
X20401Y21983D01*
X20441Y21995D01*
X20477Y22015D01*
X20487Y22023D01*
X20497Y22015D01*
D02*
G37*
G36*
X10794Y23780D02*
Y23407D01*
X10789Y23407D01*
X10749Y23395D01*
X10727Y23383D01*
X10716Y23390D01*
Y23710D01*
X10712Y23745D01*
X10709Y23752D01*
X10715Y23762D01*
X10721Y23763D01*
X10761Y23775D01*
X10783Y23787D01*
X10794Y23780D01*
D02*
G37*
G36*
X8782Y26627D02*
X8782Y26627D01*
X8763Y26619D01*
X8750Y26613D01*
X8721Y26591D01*
X8579Y26449D01*
X8557Y26420D01*
X8543Y26388D01*
X8539Y26352D01*
Y24364D01*
X8543Y24329D01*
X8557Y24296D01*
X8579Y24268D01*
X9228Y23619D01*
X9249Y23603D01*
X9248Y23588D01*
X9241Y23584D01*
X9216Y23564D01*
X9196Y23539D01*
X9181Y23512D01*
X9172Y23481D01*
X9169Y23450D01*
Y23361D01*
X8151D01*
Y26639D01*
X8782D01*
X8782Y26627D01*
D02*
G37*
G36*
X10554Y13400D02*
Y12886D01*
X10537Y12869D01*
X10520Y12871D01*
X10479Y12867D01*
X10439Y12855D01*
X10417Y12843D01*
X10406Y12850D01*
Y13373D01*
X10416Y13381D01*
X10440Y13379D01*
X10481Y13383D01*
X10521Y13395D01*
X10543Y13407D01*
X10554Y13400D01*
D02*
G37*
G36*
X18237Y17928D02*
X18273Y17924D01*
X18703D01*
X18708Y17911D01*
X18681Y17889D01*
X18670Y17876D01*
X18256D01*
X18204Y17929D01*
X18211Y17939D01*
X18237Y17928D01*
D02*
G37*
G36*
X12021Y18109D02*
X12041Y18073D01*
X12067Y18041D01*
X12099Y18015D01*
X12135Y17995D01*
X12175Y17983D01*
X12216Y17979D01*
X12257Y17983D01*
X12297Y17995D01*
X12333Y18015D01*
X12343Y18023D01*
X12353Y18015D01*
X12354Y18014D01*
Y17789D01*
X12340Y17771D01*
X12323Y17740D01*
X12313Y17706D01*
X12309Y17671D01*
X12313Y17636D01*
X12323Y17602D01*
X12340Y17571D01*
X12362Y17543D01*
X12390Y17521D01*
X12421Y17504D01*
X12455Y17494D01*
X12490Y17490D01*
X12525Y17494D01*
X12559Y17504D01*
X12579Y17514D01*
X12590Y17508D01*
Y17492D01*
X12504Y17406D01*
X11216D01*
X10516Y18106D01*
X10509Y18112D01*
X10513Y18124D01*
X12017D01*
X12021Y18109D01*
D02*
G37*
G36*
X12900Y17531D02*
X12931Y17514D01*
X12965Y17504D01*
X13000Y17500D01*
X13035Y17504D01*
X13069Y17514D01*
X13089Y17524D01*
X13100Y17518D01*
Y17442D01*
X12974Y17316D01*
X12815D01*
X12810Y17328D01*
X12822Y17340D01*
X12844Y17368D01*
X12858Y17401D01*
X12862Y17436D01*
Y17547D01*
X12875Y17551D01*
X12900Y17531D01*
D02*
G37*
G36*
X18494Y18426D02*
Y18300D01*
X18494Y18296D01*
X18486Y18286D01*
X18366D01*
X17936Y18716D01*
X17929Y18722D01*
X17933Y18734D01*
X18186D01*
X18494Y18426D01*
D02*
G37*
G36*
X20487Y18245D02*
X20523Y18225D01*
X20563Y18213D01*
X20604Y18209D01*
X20645Y18213D01*
X20674Y18222D01*
X20684Y18214D01*
Y17949D01*
X20674Y17941D01*
X20655Y17947D01*
X20614Y17951D01*
X20573Y17947D01*
X20533Y17935D01*
X20497Y17915D01*
X20487Y17907D01*
X20477Y17915D01*
X20441Y17935D01*
X20401Y17947D01*
X20360Y17951D01*
X20319Y17947D01*
X20279Y17935D01*
X20243Y17915D01*
X20232Y17907D01*
X20221Y17915D01*
X20185Y17935D01*
X20145Y17947D01*
X20104Y17951D01*
X20088Y17949D01*
X20083Y17961D01*
X20086Y17964D01*
X20333Y18211D01*
X20350Y18209D01*
X20391Y18213D01*
X20431Y18225D01*
X20467Y18245D01*
X20477Y18253D01*
X20487Y18245D01*
D02*
G37*
G36*
X7354Y18430D02*
X7058Y18135D01*
X7046Y18137D01*
X7041Y18147D01*
X7046Y18154D01*
X7065Y18190D01*
X7077Y18228D01*
X7081Y18268D01*
X7077Y18308D01*
X7065Y18346D01*
X7046Y18382D01*
X7036Y18395D01*
X7046Y18408D01*
X7065Y18444D01*
X7077Y18482D01*
X7081Y18522D01*
X7077Y18562D01*
X7065Y18600D01*
X7046Y18636D01*
X7036Y18649D01*
X7046Y18662D01*
X7065Y18698D01*
X7077Y18736D01*
X7081Y18776D01*
X7077Y18816D01*
X7065Y18854D01*
X7046Y18890D01*
X7021Y18921D01*
X6990Y18946D01*
X6966Y18959D01*
Y18974D01*
X6990Y18987D01*
X7021Y19012D01*
X7046Y19043D01*
X7065Y19079D01*
X7077Y19117D01*
X7081Y19157D01*
X7077Y19197D01*
X7065Y19235D01*
X7046Y19271D01*
X7036Y19284D01*
X7046Y19297D01*
X7065Y19333D01*
X7077Y19371D01*
X7081Y19411D01*
X7077Y19451D01*
X7065Y19489D01*
X7046Y19525D01*
X7036Y19538D01*
X7046Y19551D01*
X7065Y19587D01*
X7077Y19625D01*
X7081Y19665D01*
X7077Y19705D01*
X7065Y19743D01*
X7046Y19779D01*
X7036Y19792D01*
X7046Y19805D01*
X7065Y19841D01*
X7077Y19879D01*
X7081Y19919D01*
X7077Y19959D01*
X7065Y19997D01*
X7046Y20033D01*
X7036Y20046D01*
X7046Y20059D01*
X7065Y20095D01*
X7077Y20133D01*
X7081Y20173D01*
X7077Y20213D01*
X7065Y20251D01*
X7046Y20287D01*
X7036Y20300D01*
X7046Y20313D01*
X7065Y20349D01*
X7077Y20387D01*
X7081Y20427D01*
X7077Y20467D01*
X7065Y20505D01*
X7046Y20541D01*
X7036Y20554D01*
X7046Y20567D01*
X7065Y20603D01*
X7077Y20641D01*
X7081Y20681D01*
X7077Y20721D01*
X7065Y20759D01*
X7046Y20795D01*
X7036Y20808D01*
X7046Y20821D01*
X7065Y20857D01*
X7077Y20895D01*
X7081Y20935D01*
X7077Y20975D01*
X7065Y21013D01*
X7046Y21049D01*
X7021Y21080D01*
X6990Y21105D01*
X6954Y21124D01*
X6916Y21136D01*
X6876Y21140D01*
X6836Y21136D01*
X6798Y21124D01*
X6762Y21105D01*
X6731Y21080D01*
X6706Y21049D01*
X6687Y21013D01*
X6675Y20975D01*
X6671Y20935D01*
X6675Y20895D01*
X6687Y20857D01*
X6706Y20821D01*
X6716Y20808D01*
X6706Y20795D01*
X6687Y20759D01*
X6675Y20721D01*
X6671Y20681D01*
X6675Y20641D01*
X6687Y20603D01*
X6706Y20567D01*
X6716Y20554D01*
X6706Y20541D01*
X6687Y20505D01*
X6675Y20467D01*
X6671Y20427D01*
X6675Y20387D01*
X6687Y20349D01*
X6706Y20313D01*
X6716Y20300D01*
X6706Y20287D01*
X6687Y20251D01*
X6675Y20213D01*
X6671Y20173D01*
X6675Y20133D01*
X6687Y20095D01*
X6706Y20059D01*
X6716Y20046D01*
X6706Y20033D01*
X6687Y19997D01*
X6675Y19959D01*
X6671Y19919D01*
X6675Y19879D01*
X6687Y19841D01*
X6706Y19805D01*
X6716Y19792D01*
X6706Y19779D01*
X6687Y19743D01*
X6675Y19705D01*
X6671Y19665D01*
X6675Y19625D01*
X6687Y19587D01*
X6706Y19551D01*
X6716Y19538D01*
X6706Y19525D01*
X6687Y19489D01*
X6675Y19451D01*
X6671Y19411D01*
X6675Y19371D01*
X6687Y19333D01*
X6706Y19297D01*
X6716Y19284D01*
X6706Y19271D01*
X6687Y19235D01*
X6675Y19197D01*
X6674Y19187D01*
X6662Y19183D01*
X6266Y19578D01*
Y26854D01*
X6476Y27064D01*
X7354D01*
Y18430D01*
D02*
G37*
G36*
X17278Y17059D02*
X17275Y17047D01*
X17269Y17045D01*
X17233Y17025D01*
X17225Y17019D01*
X17217Y17025D01*
X17181Y17045D01*
X17141Y17057D01*
X17100Y17061D01*
X17059Y17057D01*
X17019Y17045D01*
X16983Y17025D01*
X16975Y17019D01*
X16967Y17025D01*
X16931Y17045D01*
X16891Y17057D01*
X16850Y17061D01*
X16809Y17057D01*
X16769Y17045D01*
X16733Y17025D01*
X16725Y17019D01*
X16717Y17025D01*
X16681Y17045D01*
X16641Y17057D01*
X16600Y17061D01*
X16559Y17057D01*
X16519Y17045D01*
X16483Y17025D01*
X16475Y17019D01*
X16467Y17025D01*
X16431Y17045D01*
X16391Y17057D01*
X16350Y17061D01*
X16309Y17057D01*
X16269Y17045D01*
X16233Y17025D01*
X16225Y17019D01*
X16217Y17025D01*
X16181Y17045D01*
X16141Y17057D01*
X16100Y17061D01*
X16059Y17057D01*
X16019Y17045D01*
X15983Y17025D01*
X15975Y17019D01*
X15967Y17025D01*
X15931Y17045D01*
X15891Y17057D01*
X15850Y17061D01*
X15809Y17057D01*
X15769Y17045D01*
X15733Y17025D01*
X15701Y16999D01*
X15688Y16984D01*
X15676Y16984D01*
X15475Y17185D01*
X15476Y17201D01*
X15499Y17221D01*
X15510Y17234D01*
X17104D01*
X17278Y17059D01*
D02*
G37*
G36*
X19714Y17045D02*
Y16926D01*
X19674Y16886D01*
X19345D01*
X19340Y16898D01*
X19436Y16994D01*
X19458Y17022D01*
X19467Y17043D01*
X19472Y17046D01*
X19482Y17047D01*
X19490Y17041D01*
X19521Y17024D01*
X19555Y17014D01*
X19590Y17010D01*
X19625Y17014D01*
X19659Y17024D01*
X19690Y17041D01*
X19702Y17050D01*
X19714Y17045D01*
D02*
G37*
G36*
X20010Y17031D02*
X20041Y17014D01*
X20075Y17004D01*
X20110Y17000D01*
X20145Y17004D01*
X20179Y17014D01*
X20210Y17031D01*
X20212Y17032D01*
X20224Y17027D01*
Y16896D01*
X20094Y16766D01*
X19956D01*
X19950Y16779D01*
X19968Y16802D01*
X19982Y16835D01*
X19986Y16870D01*
Y17035D01*
X19998Y17040D01*
X20010Y17031D01*
D02*
G37*
G36*
X13410Y17521D02*
X13441Y17504D01*
X13475Y17494D01*
X13510Y17490D01*
X13545Y17494D01*
X13579Y17504D01*
X13599Y17514D01*
X13610Y17508D01*
Y17392D01*
X13444Y17226D01*
X13285D01*
X13280Y17238D01*
X13332Y17290D01*
X13354Y17318D01*
X13360Y17332D01*
X13368Y17351D01*
X13372Y17386D01*
Y17537D01*
X13385Y17541D01*
X13410Y17521D01*
D02*
G37*
G36*
X10737Y17190D02*
X10735Y17178D01*
X10713Y17165D01*
X10705Y17159D01*
X10697Y17165D01*
X10661Y17185D01*
X10621Y17197D01*
X10580Y17201D01*
X10539Y17197D01*
X10499Y17185D01*
X10463Y17165D01*
X10455Y17159D01*
X10447Y17165D01*
X10411Y17185D01*
X10371Y17197D01*
X10330Y17201D01*
X10289Y17197D01*
X10249Y17185D01*
X10213Y17165D01*
X10205Y17159D01*
X10197Y17165D01*
X10161Y17185D01*
X10121Y17197D01*
X10080Y17201D01*
X10039Y17197D01*
X9999Y17185D01*
X9963Y17165D01*
X9955Y17159D01*
X9947Y17165D01*
X9911Y17185D01*
X9871Y17197D01*
X9830Y17201D01*
X9789Y17197D01*
X9749Y17185D01*
X9713Y17165D01*
X9705Y17159D01*
X9697Y17165D01*
X9661Y17185D01*
X9621Y17197D01*
X9580Y17201D01*
X9539Y17197D01*
X9499Y17185D01*
X9463Y17165D01*
X9455Y17159D01*
X9447Y17165D01*
X9411Y17185D01*
X9371Y17197D01*
X9330Y17201D01*
X9289Y17197D01*
X9249Y17185D01*
X9213Y17165D01*
X9181Y17139D01*
X9168Y17124D01*
X9156Y17124D01*
X8955Y17325D01*
X8956Y17341D01*
X8979Y17361D01*
X8990Y17374D01*
X10554D01*
X10737Y17190D01*
D02*
G37*
G36*
X18104Y17644D02*
X18132Y17622D01*
X18165Y17608D01*
X18200Y17604D01*
X18670D01*
X18681Y17591D01*
X18713Y17565D01*
X18749Y17545D01*
X18789Y17533D01*
X18830Y17529D01*
X18871Y17533D01*
X18911Y17545D01*
X18941Y17561D01*
X18954Y17554D01*
Y17309D01*
X18940Y17291D01*
X18923Y17260D01*
X18913Y17226D01*
X18909Y17191D01*
X18913Y17156D01*
X18923Y17122D01*
X18940Y17091D01*
X18962Y17063D01*
X18968Y17058D01*
X18964Y17046D01*
X18276D01*
X17356Y17966D01*
X17349Y17972D01*
X17353Y17984D01*
X17764D01*
X18104Y17644D01*
D02*
G37*
G36*
X6012Y19454D02*
X6034Y19426D01*
X6672Y18787D01*
X6671Y18776D01*
X6675Y18736D01*
X6687Y18698D01*
X6706Y18662D01*
X6716Y18649D01*
X6706Y18636D01*
X6687Y18600D01*
X6675Y18562D01*
X6671Y18522D01*
X6675Y18482D01*
X6687Y18444D01*
X6706Y18408D01*
X6711Y18401D01*
X6706Y18391D01*
X6694Y18389D01*
X5986Y19096D01*
Y19485D01*
X5998Y19487D01*
X6012Y19454D01*
D02*
G37*
G36*
X13382Y15213D02*
X13385Y15198D01*
X13244Y15056D01*
X13135D01*
X13130Y15068D01*
X13243Y15181D01*
X13260Y15179D01*
X13301Y15183D01*
X13341Y15195D01*
X13377Y15215D01*
X13378Y15215D01*
X13382Y15213D01*
D02*
G37*
G36*
X15205Y15877D02*
X15198Y15871D01*
X15171Y15844D01*
X15162Y15843D01*
X15130Y15830D01*
X15101Y15808D01*
X15049Y15755D01*
X15027Y15727D01*
X15013Y15694D01*
X15013Y15694D01*
X15001Y15695D01*
Y15889D01*
X15201D01*
X15205Y15877D01*
D02*
G37*
G36*
X20510Y20741D02*
X20541Y20724D01*
X20575Y20714D01*
X20610Y20710D01*
X20645Y20714D01*
X20671Y20721D01*
X20684Y20713D01*
Y20209D01*
X20671Y20202D01*
X20658Y20212D01*
X20635Y20222D01*
X20623Y20224D01*
Y20129D01*
Y20034D01*
X20635Y20036D01*
X20658Y20046D01*
X20671Y20056D01*
X20684Y20049D01*
Y19791D01*
X20671Y19784D01*
X20658Y19794D01*
X20635Y19804D01*
X20623Y19806D01*
Y19711D01*
Y19616D01*
X20635Y19618D01*
X20658Y19628D01*
X20671Y19638D01*
X20684Y19631D01*
Y19127D01*
X20671Y19119D01*
X20645Y19126D01*
X20610Y19130D01*
X20575Y19126D01*
X20541Y19116D01*
X20510Y19099D01*
X20482Y19077D01*
X20460Y19049D01*
X20443Y19018D01*
X20433Y18984D01*
X20429Y18949D01*
X20433Y18914D01*
X20443Y18880D01*
X20460Y18849D01*
X20468Y18838D01*
Y18610D01*
X20455Y18602D01*
X20431Y18615D01*
X20391Y18627D01*
X20350Y18631D01*
X20309Y18627D01*
X20269Y18615D01*
X20243Y18601D01*
X20230Y18608D01*
Y18814D01*
X20250Y18839D01*
X20267Y18870D01*
X20277Y18904D01*
X20281Y18939D01*
X20277Y18974D01*
X20267Y19008D01*
X20250Y19039D01*
X20228Y19067D01*
X20200Y19089D01*
X20169Y19106D01*
X20135Y19116D01*
X20100Y19120D01*
X20065Y19116D01*
X20031Y19106D01*
X20000Y19089D01*
X19972Y19067D01*
X19950Y19039D01*
X19933Y19008D01*
X19923Y18974D01*
X19919Y18939D01*
X19923Y18904D01*
X19933Y18870D01*
X19950Y18839D01*
X19958Y18828D01*
Y18610D01*
X19945Y18602D01*
X19921Y18615D01*
X19881Y18627D01*
X19840Y18631D01*
X19799Y18627D01*
X19759Y18615D01*
X19733Y18601D01*
X19720Y18608D01*
Y18804D01*
X19740Y18829D01*
X19757Y18860D01*
X19767Y18894D01*
X19771Y18929D01*
X19767Y18964D01*
X19757Y18998D01*
X19740Y19029D01*
X19718Y19057D01*
X19690Y19079D01*
X19659Y19096D01*
X19625Y19106D01*
X19590Y19110D01*
X19555Y19106D01*
X19521Y19096D01*
X19490Y19079D01*
X19462Y19057D01*
X19440Y19029D01*
X19423Y18998D01*
X19413Y18964D01*
X19409Y18929D01*
X19413Y18894D01*
X19423Y18860D01*
X19440Y18829D01*
X19448Y18818D01*
Y18610D01*
X19435Y18602D01*
X19411Y18615D01*
X19371Y18627D01*
X19330Y18631D01*
X19289Y18627D01*
X19249Y18615D01*
X19223Y18601D01*
X19210Y18608D01*
Y18814D01*
X19230Y18839D01*
X19247Y18870D01*
X19257Y18904D01*
X19261Y18939D01*
X19257Y18974D01*
X19247Y19008D01*
X19230Y19039D01*
X19208Y19067D01*
X19180Y19089D01*
X19149Y19106D01*
X19115Y19116D01*
X19080Y19120D01*
X19045Y19116D01*
X19011Y19106D01*
X18980Y19089D01*
X18952Y19067D01*
X18930Y19039D01*
X18913Y19008D01*
X18903Y18974D01*
X18899Y18939D01*
X18903Y18904D01*
X18913Y18870D01*
X18930Y18839D01*
X18938Y18828D01*
Y18610D01*
X18925Y18602D01*
X18901Y18615D01*
X18861Y18627D01*
X18820Y18631D01*
X18803Y18629D01*
X18216Y19216D01*
X18188Y19238D01*
X18155Y19252D01*
X18120Y19256D01*
X17185D01*
X17180Y19268D01*
X17196Y19284D01*
X17218Y19312D01*
X17232Y19345D01*
X17236Y19380D01*
Y19460D01*
X17247Y19467D01*
X17269Y19455D01*
X17309Y19443D01*
X17350Y19439D01*
X17391Y19443D01*
X17431Y19455D01*
X17467Y19475D01*
X17499Y19501D01*
X17525Y19533D01*
X17545Y19569D01*
X17557Y19609D01*
X17561Y19650D01*
X17557Y19691D01*
X17545Y19731D01*
X17525Y19767D01*
X17499Y19799D01*
X17467Y19825D01*
X17456Y19831D01*
Y20220D01*
X17469Y20231D01*
X17495Y20263D01*
X17497Y20266D01*
X17510Y20268D01*
X17514Y20264D01*
X17542Y20242D01*
X17575Y20228D01*
X17610Y20224D01*
X19017D01*
X19020Y20217D01*
X19020Y20211D01*
X19002Y20197D01*
X18987Y20177D01*
X18977Y20154D01*
X18975Y20142D01*
X19070D01*
X19165D01*
X19163Y20154D01*
X19153Y20177D01*
X19138Y20197D01*
X19120Y20211D01*
X19120Y20217D01*
X19123Y20224D01*
X19537D01*
X19540Y20217D01*
X19540Y20211D01*
X19522Y20197D01*
X19507Y20177D01*
X19497Y20154D01*
X19495Y20142D01*
X19590D01*
X19685D01*
X19683Y20154D01*
X19673Y20177D01*
X19658Y20197D01*
X19640Y20211D01*
X19640Y20217D01*
X19643Y20224D01*
X20062D01*
X20065Y20212D01*
X20042Y20202D01*
X20022Y20187D01*
X20007Y20167D01*
X19997Y20144D01*
X19995Y20132D01*
X20090D01*
X20185D01*
X20183Y20144D01*
X20173Y20167D01*
X20158Y20187D01*
X20138Y20202D01*
X20115Y20212D01*
X20118Y20224D01*
X20150D01*
X20185Y20228D01*
X20218Y20242D01*
X20246Y20264D01*
X20436Y20454D01*
X20458Y20482D01*
X20472Y20515D01*
X20476Y20550D01*
Y20752D01*
X20489Y20758D01*
X20510Y20741D01*
D02*
G37*
G36*
X20487Y14675D02*
X20523Y14655D01*
X20563Y14643D01*
X20604Y14639D01*
X20645Y14643D01*
X20674Y14652D01*
X20684Y14644D01*
Y14342D01*
X20674Y14334D01*
X20665Y14337D01*
X20624Y14341D01*
X20583Y14337D01*
X20543Y14325D01*
X20507Y14305D01*
X20497Y14297D01*
X20487Y14305D01*
X20451Y14325D01*
X20411Y14337D01*
X20370Y14341D01*
X20329Y14337D01*
X20289Y14325D01*
X20253Y14305D01*
X20242Y14297D01*
X20231Y14305D01*
X20195Y14325D01*
X20155Y14337D01*
X20114Y14341D01*
X20073Y14337D01*
X20033Y14325D01*
X20031Y14324D01*
X20025Y14335D01*
X20036Y14344D01*
X20333Y14641D01*
X20350Y14639D01*
X20391Y14643D01*
X20431Y14655D01*
X20467Y14675D01*
X20477Y14683D01*
X20487Y14675D01*
D02*
G37*
G36*
X18611Y14867D02*
X18609Y14850D01*
X18613Y14809D01*
X18625Y14769D01*
X18626Y14767D01*
X18620Y14756D01*
X18506D01*
X17896Y15366D01*
X17889Y15372D01*
X17893Y15384D01*
X18094D01*
X18611Y14867D01*
D02*
G37*
G36*
X1220Y27310D02*
X5821D01*
X5826Y27298D01*
X5754Y27226D01*
X5732Y27198D01*
X5718Y27165D01*
X5714Y27130D01*
Y19040D01*
X5718Y19005D01*
X5732Y18972D01*
X5754Y18944D01*
X6672Y18025D01*
X6671Y18014D01*
X6675Y17974D01*
X6687Y17936D01*
X6706Y17900D01*
X6716Y17887D01*
X6706Y17874D01*
X6687Y17838D01*
X6675Y17800D01*
X6671Y17760D01*
X6675Y17720D01*
X6687Y17682D01*
X6706Y17646D01*
X6716Y17633D01*
X6706Y17620D01*
X6687Y17584D01*
X6675Y17546D01*
X6671Y17506D01*
X6675Y17466D01*
X6687Y17428D01*
X6706Y17392D01*
X6716Y17379D01*
X6706Y17366D01*
X6687Y17330D01*
X6675Y17292D01*
X6671Y17252D01*
X6675Y17212D01*
X6687Y17174D01*
X6706Y17138D01*
X6716Y17125D01*
X6706Y17112D01*
X6687Y17076D01*
X6675Y17038D01*
X6671Y16998D01*
X6675Y16958D01*
X6687Y16920D01*
X6706Y16884D01*
X6716Y16871D01*
X6706Y16858D01*
X6687Y16822D01*
X6675Y16784D01*
X6671Y16744D01*
X6675Y16704D01*
X6687Y16666D01*
X6706Y16630D01*
X6716Y16617D01*
X6706Y16604D01*
X6687Y16568D01*
X6675Y16530D01*
X6671Y16490D01*
X6675Y16450D01*
X6687Y16412D01*
X6706Y16376D01*
X6731Y16345D01*
X6762Y16320D01*
X6798Y16301D01*
X6836Y16289D01*
X6876Y16285D01*
X6916Y16289D01*
X6954Y16301D01*
X6990Y16320D01*
X7021Y16345D01*
X7046Y16376D01*
X7065Y16412D01*
X7077Y16450D01*
X7081Y16490D01*
X7077Y16530D01*
X7065Y16568D01*
X7046Y16604D01*
X7036Y16617D01*
X7046Y16630D01*
X7065Y16666D01*
X7077Y16704D01*
X7081Y16744D01*
X7077Y16784D01*
X7065Y16822D01*
X7046Y16858D01*
X7036Y16871D01*
X7046Y16884D01*
X7065Y16920D01*
X7077Y16958D01*
X7081Y16998D01*
X7077Y17038D01*
X7065Y17076D01*
X7046Y17112D01*
X7036Y17125D01*
X7046Y17138D01*
X7065Y17174D01*
X7077Y17212D01*
X7081Y17252D01*
X7077Y17292D01*
X7065Y17330D01*
X7046Y17366D01*
X7036Y17379D01*
X7046Y17392D01*
X7065Y17428D01*
X7077Y17466D01*
X7081Y17506D01*
X7077Y17546D01*
X7065Y17584D01*
X7046Y17620D01*
X7036Y17633D01*
X7046Y17646D01*
X7065Y17682D01*
X7077Y17720D01*
X7081Y17760D01*
X7080Y17771D01*
X7586Y18278D01*
X7608Y18306D01*
X7622Y18339D01*
X7626Y18374D01*
Y26974D01*
X9308D01*
X9316Y26961D01*
X9316Y26961D01*
X7990D01*
X7959Y26958D01*
X7928Y26949D01*
X7901Y26934D01*
X7876Y26914D01*
X7856Y26889D01*
X7841Y26862D01*
X7832Y26831D01*
X7829Y26800D01*
Y23190D01*
Y19800D01*
Y16390D01*
Y15091D01*
X3171D01*
Y18340D01*
X3168Y18371D01*
X3159Y18402D01*
X3144Y18429D01*
X3124Y18454D01*
X3069Y18509D01*
X3044Y18529D01*
X3017Y18544D01*
X2986Y18553D01*
X2955Y18556D01*
X2540D01*
X2535Y18568D01*
X2954Y18986D01*
X2974Y19011D01*
X2989Y19038D01*
X2998Y19069D01*
X3001Y19100D01*
X3001Y19100D01*
Y19319D01*
X3680D01*
X3711Y19322D01*
X3742Y19331D01*
X3769Y19346D01*
X3794Y19366D01*
X3974Y19546D01*
X3994Y19571D01*
X4009Y19598D01*
X4018Y19629D01*
X4021Y19660D01*
X4018Y19691D01*
X4009Y19722D01*
X3994Y19749D01*
X3974Y19774D01*
X3949Y19794D01*
X3922Y19809D01*
X3891Y19818D01*
X3860Y19821D01*
X3829Y19818D01*
X3798Y19809D01*
X3771Y19794D01*
X3746Y19774D01*
X3613Y19641D01*
X3001D01*
Y23239D01*
X3124D01*
X3155Y23242D01*
X3186Y23251D01*
X3213Y23266D01*
X3238Y23286D01*
X3258Y23311D01*
X3273Y23338D01*
X3282Y23369D01*
X3285Y23400D01*
Y24680D01*
Y25830D01*
X3282Y25861D01*
X3273Y25892D01*
X3258Y25919D01*
X3238Y25944D01*
X3213Y25964D01*
X3186Y25979D01*
X3155Y25988D01*
X3124Y25991D01*
X2870D01*
X2839Y25988D01*
X2808Y25979D01*
X2781Y25964D01*
X2775Y25959D01*
X2759Y25979D01*
X2727Y26005D01*
X2691Y26025D01*
X2651Y26037D01*
X2610Y26041D01*
X2569Y26037D01*
X2529Y26025D01*
X2493Y26005D01*
X2483Y25997D01*
X2473Y26005D01*
X2437Y26025D01*
X2397Y26037D01*
X2356Y26041D01*
X2315Y26037D01*
X2275Y26025D01*
X2239Y26005D01*
X2207Y25979D01*
X2181Y25947D01*
X2161Y25911D01*
X2149Y25871D01*
X2145Y25830D01*
X2149Y25789D01*
X2161Y25749D01*
X2181Y25713D01*
X2207Y25681D01*
X2220Y25670D01*
Y24837D01*
X2211Y24829D01*
X2185Y24797D01*
X2165Y24761D01*
X2153Y24721D01*
X2149Y24680D01*
X2153Y24639D01*
X2165Y24599D01*
X2185Y24563D01*
X2211Y24531D01*
X2224Y24520D01*
Y23560D01*
X2211Y23549D01*
X2185Y23517D01*
X2165Y23481D01*
X2153Y23441D01*
X2149Y23400D01*
X2153Y23359D01*
X2165Y23319D01*
X2185Y23283D01*
X2211Y23251D01*
X2224Y23240D01*
Y22216D01*
X1444Y21436D01*
X1422Y21408D01*
X1408Y21375D01*
X1404Y21340D01*
Y21191D01*
X1408Y21156D01*
X1422Y21123D01*
X1444Y21095D01*
X1846Y20692D01*
X1845Y20681D01*
X1849Y20641D01*
X1861Y20603D01*
X1880Y20567D01*
X1890Y20554D01*
X1880Y20541D01*
X1861Y20505D01*
X1849Y20467D01*
X1845Y20427D01*
X1849Y20387D01*
X1861Y20349D01*
X1880Y20313D01*
X1890Y20300D01*
X1880Y20287D01*
X1861Y20251D01*
X1849Y20213D01*
X1845Y20173D01*
X1849Y20133D01*
X1861Y20095D01*
X1880Y20059D01*
X1890Y20046D01*
X1880Y20033D01*
X1861Y19997D01*
X1849Y19959D01*
X1845Y19919D01*
X1849Y19879D01*
X1861Y19841D01*
X1880Y19805D01*
X1890Y19792D01*
X1880Y19779D01*
X1861Y19743D01*
X1849Y19705D01*
X1845Y19665D01*
X1849Y19625D01*
X1861Y19587D01*
X1880Y19551D01*
X1905Y19520D01*
X1936Y19495D01*
X1972Y19476D01*
X2010Y19464D01*
X2050Y19460D01*
X2090Y19464D01*
X2128Y19476D01*
X2164Y19495D01*
X2195Y19520D01*
X2220Y19551D01*
X2239Y19587D01*
X2251Y19625D01*
X2255Y19665D01*
X2251Y19705D01*
X2239Y19743D01*
X2220Y19779D01*
X2210Y19792D01*
X2220Y19805D01*
X2239Y19841D01*
X2251Y19879D01*
X2255Y19919D01*
X2251Y19959D01*
X2239Y19997D01*
X2220Y20033D01*
X2210Y20046D01*
X2220Y20059D01*
X2239Y20095D01*
X2251Y20133D01*
X2255Y20173D01*
X2251Y20213D01*
X2239Y20251D01*
X2220Y20287D01*
X2210Y20300D01*
X2220Y20313D01*
X2239Y20349D01*
X2251Y20387D01*
X2255Y20427D01*
X2251Y20467D01*
X2239Y20505D01*
X2220Y20541D01*
X2210Y20554D01*
X2220Y20567D01*
X2239Y20603D01*
X2251Y20641D01*
X2255Y20681D01*
X2251Y20721D01*
X2239Y20759D01*
X2220Y20795D01*
X2210Y20808D01*
X2220Y20821D01*
X2239Y20857D01*
X2251Y20895D01*
X2255Y20935D01*
X2254Y20946D01*
X2667Y21360D01*
X2679Y21355D01*
Y19480D01*
Y19167D01*
X2322Y18810D01*
X2244D01*
X2237Y18821D01*
X2239Y18825D01*
X2251Y18863D01*
X2255Y18903D01*
X2251Y18943D01*
X2239Y18981D01*
X2220Y19017D01*
X2210Y19030D01*
X2220Y19043D01*
X2239Y19079D01*
X2251Y19117D01*
X2255Y19157D01*
X2251Y19197D01*
X2239Y19235D01*
X2220Y19271D01*
X2195Y19302D01*
X2164Y19327D01*
X2128Y19346D01*
X2090Y19358D01*
X2050Y19362D01*
X2010Y19358D01*
X1972Y19346D01*
X1936Y19327D01*
X1905Y19302D01*
X1880Y19271D01*
X1861Y19235D01*
X1849Y19197D01*
X1845Y19157D01*
X1849Y19117D01*
X1861Y19079D01*
X1880Y19043D01*
X1890Y19030D01*
X1880Y19017D01*
X1861Y18981D01*
X1849Y18943D01*
X1845Y18903D01*
X1849Y18863D01*
X1861Y18825D01*
X1880Y18789D01*
X1905Y18758D01*
X1921Y18745D01*
X1916Y18738D01*
X1901Y18711D01*
X1892Y18680D01*
X1889Y18649D01*
X1892Y18618D01*
X1901Y18587D01*
X1916Y18560D01*
X1921Y18553D01*
X1905Y18540D01*
X1880Y18509D01*
X1861Y18473D01*
X1849Y18435D01*
X1845Y18395D01*
X1849Y18355D01*
X1861Y18317D01*
X1880Y18281D01*
X1890Y18268D01*
X1880Y18255D01*
X1861Y18219D01*
X1849Y18181D01*
X1845Y18141D01*
X1849Y18101D01*
X1861Y18063D01*
X1880Y18027D01*
X1890Y18014D01*
X1880Y18001D01*
X1861Y17965D01*
X1849Y17927D01*
X1845Y17887D01*
X1849Y17847D01*
X1861Y17809D01*
X1880Y17773D01*
X1890Y17760D01*
X1880Y17747D01*
X1861Y17711D01*
X1849Y17673D01*
X1845Y17633D01*
X1849Y17593D01*
X1861Y17555D01*
X1880Y17519D01*
X1890Y17506D01*
X1880Y17493D01*
X1861Y17457D01*
X1849Y17419D01*
X1845Y17379D01*
X1849Y17339D01*
X1861Y17301D01*
X1880Y17265D01*
X1905Y17234D01*
X1936Y17209D01*
X1972Y17190D01*
X2010Y17178D01*
X2050Y17174D01*
X2090Y17178D01*
X2128Y17190D01*
X2164Y17209D01*
X2195Y17234D01*
X2220Y17265D01*
X2239Y17301D01*
X2251Y17339D01*
X2255Y17379D01*
X2251Y17419D01*
X2239Y17457D01*
X2220Y17493D01*
X2210Y17506D01*
X2220Y17519D01*
X2239Y17555D01*
X2251Y17593D01*
X2255Y17633D01*
X2251Y17673D01*
X2239Y17711D01*
X2220Y17747D01*
X2210Y17760D01*
X2220Y17773D01*
X2239Y17809D01*
X2251Y17847D01*
X2255Y17887D01*
X2251Y17927D01*
X2239Y17965D01*
X2220Y18001D01*
X2210Y18014D01*
X2220Y18027D01*
X2239Y18063D01*
X2251Y18101D01*
X2255Y18141D01*
X2251Y18181D01*
X2239Y18219D01*
X2237Y18223D01*
X2244Y18234D01*
X2849D01*
Y14930D01*
X2852Y14899D01*
X2861Y14868D01*
X2876Y14841D01*
X2896Y14816D01*
X2921Y14796D01*
X2948Y14781D01*
X2979Y14772D01*
X3010Y14769D01*
X7829D01*
Y12660D01*
Y9760D01*
X7832Y9729D01*
X7841Y9698D01*
X7856Y9671D01*
X7876Y9646D01*
X8039Y9484D01*
X8039Y9483D01*
X8055Y9453D01*
X8077Y9427D01*
X8103Y9405D01*
X8133Y9389D01*
X8166Y9379D01*
X8200Y9376D01*
X8234Y9379D01*
X8267Y9389D01*
X8297Y9405D01*
X8323Y9427D01*
X8345Y9453D01*
X8361Y9483D01*
X8371Y9516D01*
X8374Y9550D01*
X8371Y9584D01*
X8361Y9617D01*
X8345Y9647D01*
X8323Y9673D01*
X8297Y9695D01*
X8267Y9711D01*
X8266Y9711D01*
X8151Y9827D01*
Y10162D01*
X8163Y10166D01*
X8169Y10158D01*
X8818Y9509D01*
X8846Y9487D01*
X8860Y9481D01*
X8879Y9473D01*
X8914Y9469D01*
X10114D01*
X10281Y9302D01*
X10276Y9290D01*
X1200D01*
Y27310D01*
X1210Y27320D01*
X1220Y27310D01*
D02*
G37*
G36*
X15618Y20029D02*
X15646Y20007D01*
X15660Y20001D01*
X15679Y19993D01*
X15714Y19989D01*
X15717D01*
X15723Y19977D01*
X15716Y19969D01*
X15701Y19942D01*
X15692Y19911D01*
X15689Y19880D01*
Y19811D01*
X15001D01*
Y20629D01*
X15013Y20634D01*
X15618Y20029D01*
D02*
G37*
G36*
X8636Y19617D02*
X8628Y19611D01*
X8479Y19462D01*
X8457Y19434D01*
X8443Y19401D01*
X8439Y19366D01*
Y17384D01*
X8443Y17349D01*
X8457Y17316D01*
X8479Y17288D01*
X9090Y16677D01*
X9076Y16664D01*
X9056Y16639D01*
X9041Y16612D01*
X9032Y16581D01*
X9029Y16551D01*
X8151D01*
Y19629D01*
X8632D01*
X8636Y19617D01*
D02*
G37*
G36*
X10694Y16800D02*
Y16604D01*
X10690Y16601D01*
X10649Y16597D01*
X10609Y16585D01*
X10587Y16573D01*
X10576Y16580D01*
Y16760D01*
X10575Y16768D01*
X10586Y16780D01*
X10621Y16783D01*
X10661Y16795D01*
X10683Y16807D01*
X10694Y16800D01*
D02*
G37*
G36*
X15666Y16480D02*
X15695Y16459D01*
X15727Y16445D01*
X15763Y16440D01*
X15799D01*
X15804Y16428D01*
X15786Y16414D01*
X15766Y16389D01*
X15751Y16362D01*
X15742Y16331D01*
X15739Y16300D01*
Y16211D01*
X15001D01*
Y17129D01*
X15013Y17134D01*
X15666Y16480D01*
D02*
G37*
G36*
X8636Y23027D02*
X8628Y23021D01*
X8479Y22872D01*
X8457Y22844D01*
X8443Y22811D01*
X8439Y22776D01*
Y20794D01*
X8443Y20759D01*
X8457Y20726D01*
X8479Y20698D01*
X9128Y20049D01*
X9156Y20027D01*
X9172Y20020D01*
X9169Y19990D01*
Y19951D01*
X8151D01*
Y23039D01*
X8632D01*
X8636Y23027D01*
D02*
G37*
G36*
X20510Y17051D02*
X20541Y17034D01*
X20575Y17024D01*
X20610Y17020D01*
X20645Y17024D01*
X20671Y17031D01*
X20684Y17023D01*
Y16519D01*
X20671Y16512D01*
X20658Y16522D01*
X20635Y16532D01*
X20623Y16534D01*
Y16439D01*
Y16344D01*
X20635Y16346D01*
X20658Y16356D01*
X20671Y16366D01*
X20684Y16359D01*
Y16147D01*
X20672Y16141D01*
X20668Y16144D01*
X20645Y16154D01*
X20633Y16156D01*
Y16061D01*
Y15966D01*
X20645Y15968D01*
X20668Y15978D01*
X20672Y15981D01*
X20684Y15975D01*
Y15478D01*
X20674Y15471D01*
X20655Y15476D01*
X20620Y15480D01*
X20585Y15476D01*
X20551Y15466D01*
X20520Y15449D01*
X20492Y15427D01*
X20470Y15399D01*
X20453Y15368D01*
X20443Y15334D01*
X20439Y15299D01*
X20443Y15264D01*
X20453Y15230D01*
X20468Y15202D01*
Y15040D01*
X20455Y15032D01*
X20431Y15045D01*
X20391Y15057D01*
X20350Y15061D01*
X20309Y15057D01*
X20269Y15045D01*
X20239Y15029D01*
X20226Y15036D01*
Y15191D01*
X20240Y15209D01*
X20257Y15240D01*
X20267Y15274D01*
X20271Y15309D01*
X20267Y15344D01*
X20257Y15378D01*
X20240Y15409D01*
X20218Y15437D01*
X20190Y15459D01*
X20159Y15476D01*
X20125Y15486D01*
X20090Y15490D01*
X20055Y15486D01*
X20021Y15476D01*
X19990Y15459D01*
X19962Y15437D01*
X19940Y15409D01*
X19923Y15378D01*
X19913Y15344D01*
X19909Y15309D01*
X19913Y15274D01*
X19923Y15240D01*
X19940Y15209D01*
X19954Y15191D01*
Y15040D01*
X19943Y15033D01*
X19921Y15045D01*
X19881Y15057D01*
X19840Y15061D01*
X19799Y15057D01*
X19759Y15045D01*
X19737Y15033D01*
X19726Y15040D01*
Y15201D01*
X19740Y15219D01*
X19757Y15250D01*
X19767Y15284D01*
X19771Y15319D01*
X19767Y15354D01*
X19757Y15388D01*
X19740Y15419D01*
X19718Y15447D01*
X19690Y15469D01*
X19659Y15486D01*
X19625Y15496D01*
X19590Y15500D01*
X19555Y15496D01*
X19521Y15486D01*
X19490Y15469D01*
X19462Y15447D01*
X19440Y15419D01*
X19423Y15388D01*
X19413Y15354D01*
X19409Y15319D01*
X19413Y15284D01*
X19423Y15250D01*
X19440Y15219D01*
X19454Y15201D01*
Y15036D01*
X19441Y15029D01*
X19411Y15045D01*
X19371Y15057D01*
X19330Y15061D01*
X19289Y15057D01*
X19249Y15045D01*
X19227Y15033D01*
X19216Y15040D01*
Y15201D01*
X19230Y15219D01*
X19247Y15250D01*
X19257Y15284D01*
X19261Y15319D01*
X19257Y15354D01*
X19247Y15388D01*
X19230Y15419D01*
X19208Y15447D01*
X19180Y15469D01*
X19149Y15486D01*
X19115Y15496D01*
X19080Y15500D01*
X19045Y15496D01*
X19011Y15486D01*
X18980Y15469D01*
X18952Y15447D01*
X18930Y15419D01*
X18913Y15388D01*
X18903Y15354D01*
X18899Y15319D01*
X18903Y15284D01*
X18913Y15250D01*
X18930Y15219D01*
X18944Y15201D01*
Y15036D01*
X18931Y15029D01*
X18901Y15045D01*
X18861Y15057D01*
X18820Y15061D01*
X18803Y15059D01*
X18246Y15616D01*
X18218Y15638D01*
X18185Y15652D01*
X18150Y15656D01*
X17205D01*
X17200Y15668D01*
X17246Y15714D01*
X17268Y15742D01*
X17282Y15775D01*
X17286Y15810D01*
Y15860D01*
X17297Y15867D01*
X17319Y15855D01*
X17359Y15843D01*
X17400Y15839D01*
X17441Y15843D01*
X17481Y15855D01*
X17517Y15875D01*
X17549Y15901D01*
X17575Y15933D01*
X17595Y15969D01*
X17607Y16009D01*
X17611Y16050D01*
X17607Y16091D01*
X17595Y16131D01*
X17575Y16167D01*
X17549Y16199D01*
X17517Y16225D01*
X17486Y16242D01*
Y16690D01*
X17499Y16701D01*
X17525Y16733D01*
X17545Y16769D01*
X17547Y16775D01*
X17559Y16778D01*
X17804Y16534D01*
X17832Y16512D01*
X17865Y16498D01*
X17900Y16494D01*
X19005D01*
X19011Y16482D01*
X19007Y16477D01*
X18997Y16454D01*
X18995Y16442D01*
X19090D01*
X19185D01*
X19183Y16454D01*
X19173Y16477D01*
X19169Y16482D01*
X19175Y16494D01*
X19505D01*
X19511Y16482D01*
X19507Y16477D01*
X19497Y16454D01*
X19495Y16442D01*
X19590D01*
X19685D01*
X19683Y16454D01*
X19673Y16477D01*
X19669Y16482D01*
X19675Y16494D01*
X20031D01*
X20037Y16481D01*
X20027Y16467D01*
X20017Y16444D01*
X20015Y16432D01*
X20110D01*
X20205D01*
X20203Y16444D01*
X20193Y16467D01*
X20180Y16485D01*
X20182Y16498D01*
X20185Y16498D01*
X20218Y16512D01*
X20246Y16534D01*
X20456Y16744D01*
X20478Y16772D01*
X20492Y16805D01*
X20496Y16840D01*
Y17047D01*
X20508Y17052D01*
X20510Y17051D01*
D02*
G37*
G36*
X18577Y24899D02*
X18589Y24859D01*
X18609Y24823D01*
X18635Y24791D01*
X18667Y24765D01*
X18703Y24745D01*
X18743Y24733D01*
X18784Y24729D01*
X18825Y24733D01*
X18865Y24745D01*
X18901Y24765D01*
X18914Y24758D01*
Y24579D01*
X18900Y24561D01*
X18883Y24530D01*
X18873Y24496D01*
X18869Y24461D01*
X18873Y24426D01*
X18883Y24392D01*
X18900Y24361D01*
X18922Y24333D01*
X18950Y24311D01*
X18971Y24299D01*
X18968Y24286D01*
X17006D01*
X16376Y24916D01*
X16369Y24922D01*
X16373Y24934D01*
X18574D01*
X18577Y24899D01*
D02*
G37*
G36*
X13354Y24391D02*
X13385Y24374D01*
X13419Y24364D01*
X13454Y24360D01*
X13471Y24362D01*
X13477Y24350D01*
X13364Y24236D01*
X13292D01*
X13288Y24249D01*
X13298Y24262D01*
X13312Y24295D01*
X13316Y24330D01*
Y24407D01*
X13329Y24411D01*
X13354Y24391D01*
D02*
G37*
G36*
X11009Y24179D02*
X11002Y24168D01*
X10971Y24177D01*
X10930Y24181D01*
X10889Y24177D01*
X10849Y24165D01*
X10813Y24145D01*
X10805Y24139D01*
X10797Y24145D01*
X10761Y24165D01*
X10721Y24177D01*
X10680Y24181D01*
X10639Y24177D01*
X10599Y24165D01*
X10563Y24145D01*
X10555Y24139D01*
X10547Y24145D01*
X10511Y24165D01*
X10471Y24177D01*
X10430Y24181D01*
X10389Y24177D01*
X10349Y24165D01*
X10313Y24145D01*
X10305Y24139D01*
X10297Y24145D01*
X10261Y24165D01*
X10221Y24177D01*
X10180Y24181D01*
X10139Y24177D01*
X10099Y24165D01*
X10063Y24145D01*
X10055Y24139D01*
X10047Y24145D01*
X10011Y24165D01*
X9971Y24177D01*
X9930Y24181D01*
X9889Y24177D01*
X9849Y24165D01*
X9813Y24145D01*
X9805Y24139D01*
X9797Y24145D01*
X9761Y24165D01*
X9721Y24177D01*
X9680Y24181D01*
X9639Y24177D01*
X9599Y24165D01*
X9563Y24145D01*
X9555Y24139D01*
X9547Y24145D01*
X9511Y24165D01*
X9471Y24177D01*
X9430Y24181D01*
X9389Y24177D01*
X9349Y24165D01*
X9313Y24145D01*
X9281Y24119D01*
X9268Y24104D01*
X9256Y24104D01*
X9055Y24305D01*
X9056Y24321D01*
X9079Y24341D01*
X9090Y24354D01*
X10834D01*
X11009Y24179D01*
D02*
G37*
G36*
X11953Y25079D02*
X11965Y25039D01*
X11985Y25003D01*
X12011Y24971D01*
X12043Y24945D01*
X12079Y24925D01*
X12119Y24913D01*
X12160Y24909D01*
X12201Y24913D01*
X12241Y24925D01*
X12277Y24945D01*
X12287Y24953D01*
X12297Y24945D01*
X12308Y24939D01*
Y24649D01*
X12294Y24631D01*
X12277Y24600D01*
X12267Y24566D01*
X12263Y24531D01*
X12267Y24496D01*
X12277Y24462D01*
X12294Y24431D01*
X12296Y24428D01*
X12291Y24416D01*
X11906D01*
X11236Y25086D01*
X11229Y25092D01*
X11233Y25104D01*
X11951D01*
X11953Y25079D01*
D02*
G37*
G36*
X19922Y25543D02*
X19925Y25528D01*
X19724Y25326D01*
X19615D01*
X19610Y25338D01*
X19783Y25511D01*
X19800Y25509D01*
X19841Y25513D01*
X19881Y25525D01*
X19917Y25545D01*
X19918Y25545D01*
X19922Y25543D01*
D02*
G37*
G36*
X11712Y25498D02*
X11707Y25486D01*
X10496D01*
X10396Y25586D01*
X10389Y25592D01*
X10393Y25604D01*
X11606D01*
X11712Y25498D01*
D02*
G37*
G36*
X2781Y25696D02*
X2808Y25681D01*
X2839Y25672D01*
X2870Y25669D01*
X2963D01*
Y24841D01*
X2870D01*
X2839Y24838D01*
X2808Y24829D01*
X2781Y24814D01*
X2778Y24811D01*
X2763Y24829D01*
X2746Y24843D01*
Y25670D01*
X2759Y25681D01*
X2775Y25701D01*
X2781Y25696D01*
D02*
G37*
G36*
X13372Y11613D02*
X13375Y11598D01*
X13064Y11286D01*
X12955D01*
X12950Y11298D01*
X13233Y11581D01*
X13250Y11579D01*
X13291Y11583D01*
X13331Y11595D01*
X13367Y11615D01*
X13368Y11615D01*
X13372Y11613D01*
D02*
G37*
G36*
X20480Y24331D02*
X20511Y24314D01*
X20545Y24304D01*
X20580Y24300D01*
X20615Y24304D01*
X20649Y24314D01*
X20671Y24326D01*
X20684Y24318D01*
Y23751D01*
X20671Y23748D01*
X20663Y23767D01*
X20648Y23787D01*
X20628Y23802D01*
X20605Y23812D01*
X20593Y23814D01*
Y23719D01*
Y23624D01*
X20605Y23626D01*
X20628Y23636D01*
X20648Y23651D01*
X20663Y23671D01*
X20671Y23690D01*
X20684Y23687D01*
Y23471D01*
X20671Y23464D01*
X20658Y23474D01*
X20635Y23484D01*
X20623Y23486D01*
Y23391D01*
Y23296D01*
X20635Y23298D01*
X20658Y23308D01*
X20671Y23318D01*
X20684Y23311D01*
Y22807D01*
X20671Y22799D01*
X20645Y22806D01*
X20610Y22810D01*
X20575Y22806D01*
X20541Y22796D01*
X20510Y22779D01*
X20482Y22757D01*
X20460Y22729D01*
X20443Y22698D01*
X20433Y22664D01*
X20429Y22629D01*
X20433Y22594D01*
X20443Y22560D01*
X20460Y22529D01*
X20478Y22506D01*
Y22380D01*
X20465Y22372D01*
X20441Y22385D01*
X20401Y22397D01*
X20360Y22401D01*
X20319Y22397D01*
X20279Y22385D01*
X20253Y22371D01*
X20240Y22378D01*
Y22528D01*
X20240Y22529D01*
X20257Y22560D01*
X20267Y22594D01*
X20271Y22629D01*
X20267Y22664D01*
X20257Y22698D01*
X20240Y22729D01*
X20218Y22757D01*
X20190Y22779D01*
X20159Y22796D01*
X20125Y22806D01*
X20090Y22810D01*
X20055Y22806D01*
X20021Y22796D01*
X19990Y22779D01*
X19962Y22757D01*
X19940Y22729D01*
X19923Y22698D01*
X19913Y22664D01*
X19909Y22629D01*
X19913Y22594D01*
X19923Y22560D01*
X19940Y22529D01*
X19962Y22501D01*
X19968Y22496D01*
Y22380D01*
X19955Y22372D01*
X19931Y22385D01*
X19891Y22397D01*
X19850Y22401D01*
X19809Y22397D01*
X19769Y22385D01*
X19743Y22371D01*
X19730Y22378D01*
Y22506D01*
X19740Y22519D01*
X19757Y22550D01*
X19767Y22584D01*
X19771Y22619D01*
X19767Y22654D01*
X19757Y22688D01*
X19740Y22719D01*
X19718Y22747D01*
X19690Y22769D01*
X19659Y22786D01*
X19625Y22796D01*
X19590Y22800D01*
X19555Y22796D01*
X19521Y22786D01*
X19490Y22769D01*
X19462Y22747D01*
X19440Y22719D01*
X19423Y22688D01*
X19413Y22654D01*
X19409Y22619D01*
X19413Y22584D01*
X19423Y22550D01*
X19440Y22519D01*
X19458Y22496D01*
Y22380D01*
X19445Y22372D01*
X19421Y22385D01*
X19381Y22397D01*
X19340Y22401D01*
X19299Y22397D01*
X19259Y22385D01*
X19227Y22368D01*
X19214Y22373D01*
Y22536D01*
X19227Y22560D01*
X19237Y22594D01*
X19241Y22629D01*
X19237Y22664D01*
X19227Y22698D01*
X19210Y22729D01*
X19188Y22757D01*
X19160Y22779D01*
X19129Y22796D01*
X19095Y22806D01*
X19060Y22810D01*
X19025Y22806D01*
X18991Y22796D01*
X18960Y22779D01*
X18932Y22757D01*
X18910Y22729D01*
X18893Y22698D01*
X18883Y22664D01*
X18879Y22629D01*
X18883Y22594D01*
X18893Y22560D01*
X18910Y22529D01*
X18932Y22501D01*
X18942Y22493D01*
Y22380D01*
X18929Y22372D01*
X18905Y22385D01*
X18865Y22397D01*
X18824Y22401D01*
X18807Y22399D01*
X18460Y22746D01*
X18432Y22768D01*
X18399Y22782D01*
X18364Y22786D01*
X17095D01*
X17090Y22798D01*
X17166Y22874D01*
X17188Y22902D01*
X17194Y22916D01*
X17202Y22935D01*
X17206Y22970D01*
Y22990D01*
X17217Y22997D01*
X17239Y22985D01*
X17279Y22973D01*
X17320Y22969D01*
X17361Y22973D01*
X17401Y22985D01*
X17437Y23005D01*
X17469Y23031D01*
X17495Y23063D01*
X17515Y23099D01*
X17527Y23139D01*
X17531Y23180D01*
X17529Y23197D01*
X17636Y23304D01*
X17658Y23332D01*
X17672Y23365D01*
X17676Y23400D01*
Y23640D01*
X17689Y23651D01*
X17715Y23683D01*
X17735Y23719D01*
X17747Y23759D01*
X17751Y23800D01*
X17749Y23824D01*
X17757Y23834D01*
X20080D01*
X20115Y23838D01*
X20148Y23852D01*
X20176Y23874D01*
X20416Y24114D01*
X20438Y24142D01*
X20452Y24175D01*
X20456Y24210D01*
Y24335D01*
X20468Y24340D01*
X20480Y24331D01*
D02*
G37*
G36*
X8326Y12487D02*
X8318Y12481D01*
X8169Y12332D01*
X8163Y12324D01*
X8151Y12328D01*
Y12499D01*
X8322D01*
X8326Y12487D01*
D02*
G37*
G36*
X11994Y11444D02*
X12022Y11422D01*
X12055Y11408D01*
X12090Y11404D01*
X12620D01*
X12655Y11408D01*
X12660Y11410D01*
X12667Y11400D01*
X12644Y11376D01*
X11916D01*
X11566Y11726D01*
X11559Y11732D01*
X11563Y11744D01*
X11694D01*
X11994Y11444D01*
D02*
G37*
G36*
X19970Y24321D02*
X20001Y24304D01*
X20035Y24294D01*
X20070Y24290D01*
X20105Y24294D01*
X20139Y24304D01*
X20170Y24321D01*
X20172Y24322D01*
X20184Y24317D01*
Y24266D01*
X20024Y24106D01*
X19725D01*
X19720Y24118D01*
X19906Y24304D01*
X19928Y24332D01*
X19930Y24338D01*
X19934Y24339D01*
X19945Y24341D01*
X19970Y24321D01*
D02*
G37*
G36*
X16240Y24018D02*
X16236Y24003D01*
X16209Y23995D01*
X16173Y23975D01*
X16165Y23969D01*
X16157Y23975D01*
X16121Y23995D01*
X16081Y24007D01*
X16040Y24011D01*
X15999Y24007D01*
X15959Y23995D01*
X15923Y23975D01*
X15891Y23949D01*
X15878Y23934D01*
X15866Y23934D01*
X15665Y24135D01*
X15666Y24151D01*
X15689Y24171D01*
X15700Y24184D01*
X16074D01*
X16240Y24018D01*
D02*
G37*
G36*
X11726Y11054D02*
X11734Y11048D01*
X11730Y11036D01*
X10876D01*
X10686Y11226D01*
X10679Y11232D01*
X10683Y11244D01*
X11536D01*
X11726Y11054D01*
D02*
G37*
G36*
X20447Y25545D02*
X20483Y25525D01*
X20523Y25513D01*
X20564Y25509D01*
X20605Y25513D01*
X20645Y25525D01*
X20671Y25539D01*
X20684Y25532D01*
Y25132D01*
X20673Y25125D01*
X20655Y25135D01*
X20615Y25147D01*
X20574Y25151D01*
X20533Y25147D01*
X20493Y25135D01*
X20457Y25115D01*
X20447Y25107D01*
X20437Y25115D01*
X20401Y25135D01*
X20361Y25147D01*
X20320Y25151D01*
X20279Y25147D01*
X20239Y25135D01*
X20203Y25115D01*
X20192Y25107D01*
X20181Y25115D01*
X20145Y25135D01*
X20105Y25147D01*
X20064Y25151D01*
X20023Y25147D01*
X19983Y25135D01*
X19947Y25115D01*
X19937Y25107D01*
X19927Y25115D01*
X19918Y25121D01*
X19916Y25133D01*
X20293Y25511D01*
X20310Y25509D01*
X20351Y25513D01*
X20391Y25525D01*
X20427Y25545D01*
X20437Y25553D01*
X20447Y25545D01*
D02*
G37*
G36*
X12890Y10301D02*
X12921Y10284D01*
X12955Y10274D01*
X12990Y10270D01*
X13025Y10274D01*
X13059Y10284D01*
X13090Y10301D01*
X13098Y10291D01*
X13014Y10206D01*
X12825D01*
X12820Y10218D01*
X12826Y10224D01*
X12848Y10252D01*
X12862Y10285D01*
X12864Y10307D01*
X12876Y10312D01*
X12890Y10301D01*
D02*
G37*
G36*
X10724Y10804D02*
X10752Y10782D01*
X10785Y10768D01*
X10820Y10764D01*
X12060D01*
X12071Y10751D01*
X12103Y10725D01*
X12139Y10705D01*
X12179Y10693D01*
X12220Y10689D01*
X12261Y10693D01*
X12301Y10705D01*
X12331Y10721D01*
X12344Y10714D01*
Y10569D01*
X12330Y10551D01*
X12313Y10520D01*
X12303Y10486D01*
X12299Y10451D01*
X12303Y10416D01*
X12313Y10382D01*
X12330Y10351D01*
X12352Y10323D01*
X12369Y10309D01*
X12365Y10296D01*
X11106D01*
X10426Y10976D01*
X10419Y10982D01*
X10423Y10994D01*
X10534D01*
X10724Y10804D01*
D02*
G37*
G36*
X6170Y27142D02*
X6034Y27006D01*
X6012Y26978D01*
X5998Y26945D01*
X5986Y26947D01*
Y27074D01*
X6066Y27154D01*
X6165D01*
X6170Y27142D01*
D02*
G37*
G36*
X10800Y10218D02*
X10795Y10206D01*
X10746D01*
X10226Y10726D01*
X10219Y10732D01*
X10223Y10744D01*
X10274D01*
X10800Y10218D01*
D02*
G37*
G36*
X28210Y9294D02*
X28200Y9290D01*
X20894D01*
X20889Y9302D01*
X21096Y9509D01*
X21118Y9537D01*
X21132Y9570D01*
X21136Y9605D01*
Y26525D01*
X21132Y26560D01*
X21118Y26593D01*
X21096Y26621D01*
X20775Y26942D01*
X20747Y26964D01*
X20714Y26978D01*
X20679Y26982D01*
X20666D01*
X20663Y27006D01*
X20653Y27029D01*
X20638Y27049D01*
X20618Y27064D01*
X20595Y27074D01*
X20570Y27077D01*
X20545Y27074D01*
X20522Y27064D01*
X20502Y27049D01*
X20487Y27029D01*
X20477Y27006D01*
X20474Y26982D01*
X20231D01*
X20228Y27012D01*
X20219Y27043D01*
X20204Y27070D01*
X20184Y27095D01*
X20174Y27105D01*
X20149Y27125D01*
X20122Y27140D01*
X20091Y27149D01*
X20060Y27152D01*
X20029Y27149D01*
X19998Y27140D01*
X19971Y27125D01*
X19946Y27105D01*
X19926Y27080D01*
X19911Y27053D01*
X19902Y27022D01*
X19899Y26991D01*
X19891Y26982D01*
X19719D01*
X19711Y26991D01*
X19708Y27022D01*
X19699Y27053D01*
X19684Y27080D01*
X19664Y27105D01*
X19639Y27125D01*
X19612Y27140D01*
X19581Y27149D01*
X19550Y27152D01*
X19519Y27149D01*
X19488Y27140D01*
X19461Y27125D01*
X19436Y27105D01*
X19426Y27095D01*
X19406Y27070D01*
X19391Y27043D01*
X19382Y27012D01*
X19380Y26991D01*
X19200D01*
X19198Y27012D01*
X19189Y27043D01*
X19174Y27070D01*
X19154Y27095D01*
X19144Y27105D01*
X19119Y27125D01*
X19092Y27140D01*
X19061Y27149D01*
X19030Y27152D01*
X18999Y27149D01*
X18968Y27140D01*
X18941Y27125D01*
X18916Y27105D01*
X18896Y27080D01*
X18881Y27053D01*
X18872Y27022D01*
X18869Y26991D01*
X17295D01*
X17260Y26987D01*
X17227Y26973D01*
X17199Y26951D01*
X17057Y26809D01*
X17040Y26811D01*
X16999Y26807D01*
X16971Y26799D01*
X16961Y26806D01*
Y26960D01*
X16958Y26991D01*
X16949Y27022D01*
X16934Y27049D01*
X16914Y27074D01*
X16889Y27094D01*
X16862Y27109D01*
X16831Y27118D01*
X16800Y27121D01*
X16769Y27118D01*
X16738Y27109D01*
X16711Y27094D01*
X16686Y27074D01*
X16666Y27049D01*
X16651Y27022D01*
X16642Y26991D01*
X16639Y26960D01*
Y26952D01*
X16628Y26947D01*
X16619Y26954D01*
X16592Y26969D01*
X16561Y26978D01*
X16530Y26981D01*
X16040D01*
X16009Y26978D01*
X15978Y26969D01*
X15951Y26954D01*
X15926Y26934D01*
X15906Y26909D01*
X15891Y26882D01*
X15882Y26851D01*
X15879Y26821D01*
X14840D01*
X14809Y26818D01*
X14778Y26809D01*
X14751Y26794D01*
X14726Y26774D01*
X14706Y26749D01*
X14691Y26722D01*
X14682Y26691D01*
X14679Y26660D01*
Y23180D01*
Y19640D01*
Y16050D01*
Y12490D01*
Y10787D01*
X14679Y10787D01*
X14669Y10754D01*
X14666Y10720D01*
X14669Y10686D01*
X14679Y10653D01*
X14695Y10623D01*
X14717Y10597D01*
X14743Y10575D01*
X14773Y10559D01*
X14806Y10549D01*
X14840Y10546D01*
X14874Y10549D01*
X14907Y10559D01*
X14937Y10575D01*
X14963Y10597D01*
X14985Y10623D01*
X15001Y10653D01*
X15011Y10686D01*
X15014Y10720D01*
X15011Y10754D01*
X15001Y10787D01*
X15001Y10787D01*
Y12329D01*
X15755D01*
X15773Y12315D01*
X15809Y12295D01*
X15849Y12283D01*
X15890Y12279D01*
X15931Y12283D01*
X15971Y12295D01*
X15985Y12303D01*
X16003Y12298D01*
X16006Y12291D01*
X16026Y12266D01*
X16146Y12146D01*
X16146Y12146D01*
X16171Y12126D01*
X16198Y12111D01*
X16207Y12109D01*
X16205Y12096D01*
X15550D01*
X15539Y12109D01*
X15507Y12135D01*
X15471Y12155D01*
X15431Y12167D01*
X15390Y12171D01*
X15349Y12167D01*
X15309Y12155D01*
X15273Y12135D01*
X15241Y12109D01*
X15215Y12077D01*
X15195Y12041D01*
X15183Y12001D01*
X15179Y11960D01*
X15183Y11919D01*
X15195Y11879D01*
X15215Y11843D01*
X15221Y11835D01*
X15215Y11827D01*
X15195Y11791D01*
X15183Y11751D01*
X15179Y11710D01*
X15183Y11669D01*
X15195Y11629D01*
X15215Y11593D01*
X15221Y11585D01*
X15215Y11577D01*
X15195Y11541D01*
X15183Y11501D01*
X15179Y11460D01*
X15183Y11419D01*
X15195Y11379D01*
X15215Y11343D01*
X15221Y11335D01*
X15215Y11327D01*
X15195Y11291D01*
X15183Y11251D01*
X15179Y11210D01*
X15183Y11169D01*
X15195Y11129D01*
X15215Y11093D01*
X15221Y11085D01*
X15215Y11077D01*
X15195Y11041D01*
X15183Y11001D01*
X15179Y10960D01*
X15183Y10919D01*
X15195Y10879D01*
X15215Y10843D01*
X15221Y10835D01*
X15215Y10827D01*
X15195Y10791D01*
X15183Y10751D01*
X15179Y10710D01*
X15183Y10669D01*
X15195Y10629D01*
X15215Y10593D01*
X15221Y10585D01*
X15215Y10577D01*
X15195Y10541D01*
X15183Y10501D01*
X15179Y10460D01*
X15183Y10419D01*
X15195Y10379D01*
X15215Y10343D01*
X15221Y10335D01*
X15215Y10327D01*
X15195Y10291D01*
X15183Y10251D01*
X15179Y10210D01*
X15183Y10169D01*
X15195Y10129D01*
X15215Y10093D01*
X15241Y10061D01*
X15273Y10035D01*
X15309Y10015D01*
X15349Y10003D01*
X15390Y9999D01*
X15431Y10003D01*
X15471Y10015D01*
X15507Y10035D01*
X15539Y10061D01*
X15565Y10093D01*
X15585Y10129D01*
X15597Y10169D01*
X15601Y10210D01*
X15597Y10251D01*
X15585Y10291D01*
X15565Y10327D01*
X15559Y10335D01*
X15565Y10343D01*
X15585Y10379D01*
X15597Y10419D01*
X15601Y10460D01*
X15597Y10501D01*
X15585Y10541D01*
X15565Y10577D01*
X15559Y10585D01*
X15565Y10593D01*
X15585Y10629D01*
X15597Y10669D01*
X15601Y10710D01*
X15597Y10751D01*
X15585Y10791D01*
X15565Y10827D01*
X15559Y10835D01*
X15565Y10843D01*
X15585Y10879D01*
X15597Y10919D01*
X15601Y10960D01*
X15597Y11001D01*
X15585Y11041D01*
X15565Y11077D01*
X15559Y11085D01*
X15565Y11093D01*
X15585Y11129D01*
X15597Y11169D01*
X15601Y11210D01*
X15597Y11251D01*
X15585Y11291D01*
X15573Y11313D01*
X15580Y11324D01*
X15864D01*
X16874Y10314D01*
X16902Y10292D01*
X16916Y10286D01*
X16935Y10278D01*
X16970Y10274D01*
X19080D01*
X19115Y10278D01*
X19148Y10292D01*
X19176Y10314D01*
X19743Y10881D01*
X19760Y10879D01*
X19801Y10883D01*
X19841Y10895D01*
X19877Y10915D01*
X19887Y10923D01*
X19897Y10915D01*
X19933Y10895D01*
X19973Y10883D01*
X20014Y10879D01*
X20055Y10883D01*
X20095Y10895D01*
X20131Y10915D01*
X20163Y10941D01*
X20189Y10973D01*
X20209Y11009D01*
X20221Y11049D01*
X20225Y11090D01*
X20221Y11131D01*
X20209Y11171D01*
X20189Y11207D01*
X20163Y11239D01*
X20150Y11250D01*
Y11454D01*
X20170Y11479D01*
X20187Y11510D01*
X20197Y11544D01*
X20201Y11579D01*
X20197Y11614D01*
X20187Y11648D01*
X20170Y11679D01*
X20148Y11707D01*
X20120Y11729D01*
X20089Y11746D01*
X20055Y11756D01*
X20020Y11760D01*
X19985Y11756D01*
X19951Y11746D01*
X19920Y11729D01*
X19892Y11707D01*
X19870Y11679D01*
X19853Y11648D01*
X19843Y11614D01*
X19839Y11579D01*
X19843Y11544D01*
X19853Y11510D01*
X19870Y11479D01*
X19878Y11468D01*
Y11280D01*
X19865Y11272D01*
X19841Y11285D01*
X19801Y11297D01*
X19760Y11301D01*
X19719Y11297D01*
X19679Y11285D01*
X19653Y11271D01*
X19640Y11278D01*
Y11444D01*
X19660Y11469D01*
X19677Y11500D01*
X19687Y11534D01*
X19691Y11569D01*
X19687Y11604D01*
X19677Y11638D01*
X19660Y11669D01*
X19638Y11697D01*
X19610Y11719D01*
X19579Y11736D01*
X19545Y11746D01*
X19510Y11750D01*
X19475Y11746D01*
X19441Y11736D01*
X19410Y11719D01*
X19382Y11697D01*
X19360Y11669D01*
X19343Y11638D01*
X19333Y11604D01*
X19329Y11569D01*
X19333Y11534D01*
X19343Y11500D01*
X19360Y11469D01*
X19368Y11458D01*
Y11280D01*
X19355Y11272D01*
X19331Y11285D01*
X19291Y11297D01*
X19250Y11301D01*
X19209Y11297D01*
X19169Y11285D01*
X19143Y11271D01*
X19130Y11278D01*
Y11456D01*
X19140Y11469D01*
X19157Y11500D01*
X19167Y11534D01*
X19171Y11569D01*
X19167Y11604D01*
X19157Y11638D01*
X19140Y11669D01*
X19118Y11697D01*
X19090Y11719D01*
X19059Y11736D01*
X19025Y11746D01*
X18990Y11750D01*
X18955Y11746D01*
X18921Y11736D01*
X18890Y11719D01*
X18862Y11697D01*
X18840Y11669D01*
X18823Y11638D01*
X18813Y11604D01*
X18809Y11569D01*
X18813Y11534D01*
X18823Y11500D01*
X18840Y11469D01*
X18858Y11446D01*
Y11280D01*
X18845Y11272D01*
X18821Y11285D01*
X18781Y11297D01*
X18740Y11301D01*
X18723Y11299D01*
X17966Y12056D01*
X17938Y12078D01*
X17905Y12092D01*
X17870Y12096D01*
X16484D01*
X16482Y12109D01*
X16490Y12111D01*
X16518Y12126D01*
X16542Y12146D01*
X16737Y12341D01*
X16741Y12341D01*
X16773Y12315D01*
X16809Y12295D01*
X16849Y12283D01*
X16890Y12279D01*
X16931Y12283D01*
X16971Y12295D01*
X17007Y12315D01*
X17015Y12321D01*
X17023Y12315D01*
X17059Y12295D01*
X17099Y12283D01*
X17140Y12279D01*
X17181Y12283D01*
X17221Y12295D01*
X17257Y12315D01*
X17265Y12321D01*
X17273Y12315D01*
X17309Y12295D01*
X17349Y12283D01*
X17390Y12279D01*
X17431Y12283D01*
X17471Y12295D01*
X17507Y12315D01*
X17539Y12341D01*
X17565Y12373D01*
X17585Y12409D01*
X17597Y12449D01*
X17601Y12490D01*
X17597Y12531D01*
X17585Y12571D01*
X17565Y12607D01*
X17539Y12639D01*
X17536Y12642D01*
Y13090D01*
X17549Y13101D01*
X17575Y13133D01*
X17595Y13169D01*
X17607Y13209D01*
X17611Y13250D01*
X17607Y13291D01*
X17602Y13307D01*
X17613Y13314D01*
X18014Y12914D01*
X18042Y12892D01*
X18056Y12886D01*
X18075Y12878D01*
X18110Y12874D01*
X19005D01*
X19011Y12862D01*
X19007Y12857D01*
X18997Y12834D01*
X18995Y12822D01*
X19090D01*
X19185D01*
X19183Y12834D01*
X19173Y12857D01*
X19169Y12862D01*
X19175Y12874D01*
X19531D01*
X19537Y12861D01*
X19527Y12847D01*
X19517Y12824D01*
X19515Y12812D01*
X19610D01*
X19705D01*
X19703Y12824D01*
X19693Y12847D01*
X19683Y12861D01*
X19689Y12874D01*
X20025D01*
X20031Y12862D01*
X20027Y12857D01*
X20017Y12834D01*
X20015Y12822D01*
X20110D01*
X20205D01*
X20203Y12834D01*
X20193Y12857D01*
X20180Y12875D01*
X20180Y12884D01*
X20182Y12890D01*
X20188Y12892D01*
X20216Y12914D01*
X20466Y13164D01*
X20488Y13192D01*
X20502Y13225D01*
X20506Y13260D01*
Y13425D01*
X20518Y13430D01*
X20530Y13421D01*
X20561Y13404D01*
X20595Y13394D01*
X20630Y13390D01*
X20665Y13394D01*
X20674Y13396D01*
X20684Y13389D01*
Y12903D01*
X20671Y12895D01*
X20655Y12902D01*
X20643Y12904D01*
Y12809D01*
Y12714D01*
X20655Y12716D01*
X20671Y12723D01*
X20684Y12715D01*
Y9736D01*
X20594Y9646D01*
X17609D01*
X17598Y9659D01*
X17601Y9690D01*
X17597Y9731D01*
X17585Y9771D01*
X17565Y9807D01*
X17539Y9839D01*
X17507Y9865D01*
X17471Y9885D01*
X17431Y9897D01*
X17390Y9901D01*
X17349Y9897D01*
X17309Y9885D01*
X17273Y9865D01*
X17265Y9859D01*
X17257Y9865D01*
X17221Y9885D01*
X17181Y9897D01*
X17140Y9901D01*
X17099Y9897D01*
X17059Y9885D01*
X17023Y9865D01*
X17015Y9859D01*
X17007Y9865D01*
X16971Y9885D01*
X16931Y9897D01*
X16890Y9901D01*
X16849Y9897D01*
X16809Y9885D01*
X16773Y9865D01*
X16765Y9859D01*
X16757Y9865D01*
X16721Y9885D01*
X16681Y9897D01*
X16640Y9901D01*
X16599Y9897D01*
X16559Y9885D01*
X16523Y9865D01*
X16515Y9859D01*
X16507Y9865D01*
X16471Y9885D01*
X16431Y9897D01*
X16390Y9901D01*
X16349Y9897D01*
X16309Y9885D01*
X16273Y9865D01*
X16265Y9859D01*
X16257Y9865D01*
X16221Y9885D01*
X16181Y9897D01*
X16140Y9901D01*
X16099Y9897D01*
X16059Y9885D01*
X16023Y9865D01*
X16015Y9859D01*
X16007Y9865D01*
X15971Y9885D01*
X15931Y9897D01*
X15890Y9901D01*
X15849Y9897D01*
X15809Y9885D01*
X15773Y9865D01*
X15741Y9839D01*
X15715Y9807D01*
X15695Y9771D01*
X15683Y9731D01*
X15679Y9690D01*
X15682Y9659D01*
X15671Y9646D01*
X14095D01*
X14087Y9659D01*
X14093Y9674D01*
X14095Y9686D01*
X14000D01*
X13905D01*
X13907Y9674D01*
X13913Y9659D01*
X13905Y9646D01*
X13595D01*
X13587Y9659D01*
X13593Y9674D01*
X13595Y9686D01*
X13500D01*
X13405D01*
X13407Y9674D01*
X13413Y9659D01*
X13405Y9646D01*
X13087D01*
X13080Y9657D01*
X13083Y9664D01*
X13085Y9676D01*
X12990D01*
X12895D01*
X12897Y9664D01*
X12900Y9657D01*
X12893Y9646D01*
X12577D01*
X12570Y9657D01*
X12573Y9664D01*
X12575Y9676D01*
X12480D01*
X12385D01*
X12387Y9664D01*
X12390Y9657D01*
X12383Y9646D01*
X10656D01*
Y9700D01*
X10669Y9711D01*
X10695Y9743D01*
X10715Y9779D01*
X10727Y9819D01*
X10729Y9844D01*
X13600D01*
X13635Y9848D01*
X13668Y9862D01*
X13696Y9884D01*
X13846Y10034D01*
X13868Y10062D01*
X13874Y10076D01*
X13882Y10095D01*
X13886Y10130D01*
Y10307D01*
X13898Y10312D01*
X13900Y10311D01*
X13931Y10294D01*
X13965Y10284D01*
X14000Y10280D01*
X14035Y10284D01*
X14069Y10294D01*
X14100Y10311D01*
X14128Y10333D01*
X14150Y10361D01*
X14167Y10392D01*
X14177Y10426D01*
X14181Y10461D01*
X14177Y10496D01*
X14167Y10530D01*
X14150Y10561D01*
X14136Y10579D01*
Y10737D01*
X14153Y10751D01*
X14179Y10783D01*
X14199Y10819D01*
X14211Y10859D01*
X14215Y10900D01*
X14211Y10941D01*
X14199Y10981D01*
X14179Y11017D01*
X14153Y11049D01*
X14121Y11075D01*
X14085Y11095D01*
X14045Y11107D01*
X14004Y11111D01*
X13963Y11107D01*
X13923Y11095D01*
X13887Y11075D01*
X13877Y11067D01*
X13867Y11075D01*
X13831Y11095D01*
X13791Y11107D01*
X13750Y11111D01*
X13709Y11107D01*
X13669Y11095D01*
X13633Y11075D01*
X13622Y11067D01*
X13611Y11075D01*
X13575Y11095D01*
X13535Y11107D01*
X13494Y11111D01*
X13453Y11107D01*
X13413Y11095D01*
X13377Y11075D01*
X13367Y11067D01*
X13357Y11075D01*
X13321Y11095D01*
X13286Y11105D01*
X13281Y11119D01*
X13743Y11581D01*
X13760Y11579D01*
X13801Y11583D01*
X13841Y11595D01*
X13877Y11615D01*
X13887Y11623D01*
X13897Y11615D01*
X13933Y11595D01*
X13973Y11583D01*
X14014Y11579D01*
X14055Y11583D01*
X14095Y11595D01*
X14131Y11615D01*
X14163Y11641D01*
X14189Y11673D01*
X14209Y11709D01*
X14221Y11749D01*
X14225Y11790D01*
X14221Y11831D01*
X14209Y11871D01*
X14189Y11907D01*
X14163Y11939D01*
X14150Y11950D01*
Y12093D01*
X14170Y12118D01*
X14187Y12149D01*
X14197Y12183D01*
X14201Y12218D01*
X14197Y12253D01*
X14187Y12287D01*
X14170Y12318D01*
X14148Y12346D01*
X14120Y12368D01*
X14089Y12385D01*
X14055Y12395D01*
X14020Y12399D01*
X13985Y12395D01*
X13951Y12385D01*
X13920Y12368D01*
X13892Y12346D01*
X13870Y12318D01*
X13853Y12287D01*
X13843Y12253D01*
X13839Y12218D01*
X13843Y12183D01*
X13853Y12149D01*
X13870Y12118D01*
X13878Y12107D01*
Y11980D01*
X13865Y11972D01*
X13841Y11985D01*
X13801Y11997D01*
X13760Y12001D01*
X13719Y11997D01*
X13679Y11985D01*
X13653Y11971D01*
X13640Y11978D01*
Y12115D01*
X13650Y12128D01*
X13667Y12159D01*
X13677Y12193D01*
X13681Y12228D01*
X13677Y12263D01*
X13667Y12297D01*
X13650Y12328D01*
X13628Y12356D01*
X13600Y12378D01*
X13569Y12395D01*
X13535Y12405D01*
X13500Y12409D01*
X13465Y12405D01*
X13431Y12395D01*
X13400Y12378D01*
X13372Y12356D01*
X13350Y12328D01*
X13333Y12297D01*
X13323Y12263D01*
X13319Y12228D01*
X13323Y12193D01*
X13333Y12159D01*
X13350Y12128D01*
X13368Y12105D01*
Y11980D01*
X13355Y11972D01*
X13331Y11985D01*
X13291Y11997D01*
X13250Y12001D01*
X13209Y11997D01*
X13169Y11985D01*
X13143Y11971D01*
X13130Y11978D01*
Y12093D01*
X13150Y12118D01*
X13167Y12149D01*
X13177Y12183D01*
X13181Y12218D01*
X13177Y12253D01*
X13167Y12287D01*
X13150Y12318D01*
X13128Y12346D01*
X13100Y12368D01*
X13069Y12385D01*
X13035Y12395D01*
X13000Y12399D01*
X12965Y12395D01*
X12931Y12385D01*
X12900Y12368D01*
X12872Y12346D01*
X12850Y12318D01*
X12833Y12287D01*
X12823Y12253D01*
X12819Y12218D01*
X12823Y12183D01*
X12833Y12149D01*
X12850Y12118D01*
X12858Y12107D01*
Y11980D01*
X12845Y11972D01*
X12821Y11985D01*
X12781Y11997D01*
X12740Y12001D01*
X12699Y11997D01*
X12659Y11985D01*
X12633Y11971D01*
X12620Y11978D01*
Y12115D01*
X12630Y12128D01*
X12647Y12159D01*
X12657Y12193D01*
X12661Y12228D01*
X12657Y12263D01*
X12647Y12297D01*
X12630Y12328D01*
X12608Y12356D01*
X12580Y12378D01*
X12549Y12395D01*
X12515Y12405D01*
X12480Y12409D01*
X12445Y12405D01*
X12411Y12395D01*
X12380Y12378D01*
X12352Y12356D01*
X12330Y12328D01*
X12313Y12297D01*
X12303Y12263D01*
X12299Y12228D01*
X12303Y12193D01*
X12313Y12159D01*
X12330Y12128D01*
X12348Y12105D01*
Y11980D01*
X12335Y11972D01*
X12311Y11985D01*
X12271Y11997D01*
X12230Y12001D01*
X12213Y11999D01*
X11986Y12226D01*
X11958Y12248D01*
X11925Y12262D01*
X11890Y12266D01*
X10399D01*
X10391Y12279D01*
X10402Y12305D01*
X10406Y12340D01*
Y12470D01*
X10417Y12477D01*
X10439Y12465D01*
X10479Y12453D01*
X10520Y12449D01*
X10561Y12453D01*
X10601Y12465D01*
X10637Y12485D01*
X10669Y12511D01*
X10695Y12543D01*
X10715Y12579D01*
X10727Y12619D01*
X10731Y12660D01*
X10729Y12677D01*
X10786Y12734D01*
X10808Y12762D01*
X10822Y12795D01*
X10826Y12830D01*
Y13430D01*
X10839Y13441D01*
X10865Y13473D01*
X10885Y13509D01*
X10897Y13549D01*
X10901Y13590D01*
X10898Y13621D01*
X10909Y13634D01*
X13480D01*
X13515Y13638D01*
X13548Y13652D01*
X13576Y13674D01*
X13856Y13954D01*
X13878Y13982D01*
X13886Y14002D01*
X13901Y14005D01*
X13920Y13991D01*
X13951Y13974D01*
X13985Y13964D01*
X14020Y13960D01*
X14055Y13964D01*
X14089Y13974D01*
X14120Y13991D01*
X14148Y14013D01*
X14170Y14041D01*
X14187Y14072D01*
X14197Y14106D01*
X14201Y14141D01*
X14197Y14176D01*
X14187Y14210D01*
X14170Y14241D01*
X14156Y14259D01*
Y14365D01*
X14163Y14371D01*
X14189Y14403D01*
X14209Y14439D01*
X14221Y14479D01*
X14225Y14520D01*
X14221Y14561D01*
X14209Y14601D01*
X14189Y14637D01*
X14163Y14669D01*
X14131Y14695D01*
X14095Y14715D01*
X14055Y14727D01*
X14014Y14731D01*
X13973Y14727D01*
X13933Y14715D01*
X13897Y14695D01*
X13887Y14687D01*
X13877Y14695D01*
X13841Y14715D01*
X13801Y14727D01*
X13760Y14731D01*
X13719Y14727D01*
X13679Y14715D01*
X13643Y14695D01*
X13632Y14687D01*
X13621Y14695D01*
X13585Y14715D01*
X13545Y14727D01*
X13504Y14731D01*
X13463Y14727D01*
X13423Y14715D01*
X13387Y14695D01*
X13377Y14687D01*
X13367Y14695D01*
X13331Y14715D01*
X13291Y14727D01*
X13250Y14731D01*
X13209Y14727D01*
X13169Y14715D01*
X13133Y14695D01*
X13122Y14687D01*
X13111Y14695D01*
X13075Y14715D01*
X13035Y14727D01*
X12994Y14731D01*
X12953Y14727D01*
X12913Y14715D01*
X12877Y14695D01*
X12867Y14687D01*
X12857Y14695D01*
X12821Y14715D01*
X12781Y14727D01*
X12740Y14731D01*
X12699Y14727D01*
X12659Y14715D01*
X12623Y14695D01*
X12612Y14687D01*
X12601Y14695D01*
X12565Y14715D01*
X12525Y14727D01*
X12484Y14731D01*
X12443Y14727D01*
X12403Y14715D01*
X12367Y14695D01*
X12357Y14687D01*
X12347Y14695D01*
X12311Y14715D01*
X12271Y14727D01*
X12230Y14731D01*
X12213Y14729D01*
X12170Y14772D01*
X12175Y14784D01*
X13300D01*
X13335Y14788D01*
X13368Y14802D01*
X13396Y14824D01*
X13753Y15181D01*
X13770Y15179D01*
X13811Y15183D01*
X13851Y15195D01*
X13887Y15215D01*
X13897Y15223D01*
X13907Y15215D01*
X13943Y15195D01*
X13983Y15183D01*
X14024Y15179D01*
X14065Y15183D01*
X14105Y15195D01*
X14141Y15215D01*
X14173Y15241D01*
X14199Y15273D01*
X14219Y15309D01*
X14231Y15349D01*
X14235Y15390D01*
X14231Y15431D01*
X14219Y15471D01*
X14199Y15507D01*
X14173Y15539D01*
X14156Y15553D01*
Y15691D01*
X14170Y15709D01*
X14187Y15740D01*
X14197Y15774D01*
X14201Y15809D01*
X14197Y15844D01*
X14187Y15878D01*
X14170Y15909D01*
X14148Y15937D01*
X14120Y15959D01*
X14089Y15976D01*
X14055Y15986D01*
X14020Y15990D01*
X13985Y15986D01*
X13951Y15976D01*
X13920Y15959D01*
X13892Y15937D01*
X13870Y15909D01*
X13853Y15878D01*
X13843Y15844D01*
X13839Y15809D01*
X13843Y15774D01*
X13853Y15740D01*
X13870Y15709D01*
X13884Y15691D01*
Y15580D01*
X13873Y15573D01*
X13851Y15585D01*
X13811Y15597D01*
X13770Y15601D01*
X13729Y15597D01*
X13689Y15585D01*
X13659Y15569D01*
X13646Y15576D01*
Y15681D01*
X13660Y15699D01*
X13677Y15730D01*
X13687Y15764D01*
X13691Y15799D01*
X13687Y15834D01*
X13677Y15868D01*
X13660Y15899D01*
X13638Y15927D01*
X13610Y15949D01*
X13579Y15966D01*
X13545Y15976D01*
X13510Y15980D01*
X13475Y15976D01*
X13441Y15966D01*
X13410Y15949D01*
X13382Y15927D01*
X13360Y15899D01*
X13343Y15868D01*
X13333Y15834D01*
X13329Y15799D01*
X13333Y15764D01*
X13343Y15730D01*
X13360Y15699D01*
X13374Y15681D01*
Y15580D01*
X13363Y15573D01*
X13341Y15585D01*
X13301Y15597D01*
X13260Y15601D01*
X13219Y15597D01*
X13179Y15585D01*
X13149Y15569D01*
X13136Y15576D01*
Y15671D01*
X13150Y15689D01*
X13167Y15720D01*
X13177Y15754D01*
X13181Y15789D01*
X13177Y15824D01*
X13167Y15858D01*
X13150Y15889D01*
X13128Y15917D01*
X13100Y15939D01*
X13069Y15956D01*
X13035Y15966D01*
X13000Y15970D01*
X12965Y15966D01*
X12931Y15956D01*
X12900Y15939D01*
X12872Y15917D01*
X12850Y15889D01*
X12833Y15858D01*
X12823Y15824D01*
X12819Y15789D01*
X12823Y15754D01*
X12833Y15720D01*
X12850Y15689D01*
X12864Y15671D01*
Y15580D01*
X12853Y15573D01*
X12831Y15585D01*
X12791Y15597D01*
X12750Y15601D01*
X12709Y15597D01*
X12669Y15585D01*
X12639Y15569D01*
X12626Y15576D01*
Y15671D01*
X12640Y15689D01*
X12657Y15720D01*
X12667Y15754D01*
X12671Y15789D01*
X12667Y15824D01*
X12657Y15858D01*
X12640Y15889D01*
X12618Y15917D01*
X12590Y15939D01*
X12559Y15956D01*
X12525Y15966D01*
X12490Y15970D01*
X12455Y15966D01*
X12421Y15956D01*
X12390Y15939D01*
X12362Y15917D01*
X12340Y15889D01*
X12323Y15858D01*
X12313Y15824D01*
X12309Y15789D01*
X12313Y15754D01*
X12323Y15720D01*
X12340Y15689D01*
X12354Y15671D01*
Y15580D01*
X12343Y15573D01*
X12321Y15585D01*
X12281Y15597D01*
X12240Y15601D01*
X12223Y15599D01*
X11866Y15956D01*
X11838Y15978D01*
X11805Y15992D01*
X11770Y15996D01*
X10525D01*
X10520Y16008D01*
X10536Y16024D01*
X10558Y16052D01*
X10564Y16066D01*
X10572Y16085D01*
X10576Y16120D01*
Y16200D01*
X10587Y16207D01*
X10609Y16195D01*
X10649Y16183D01*
X10690Y16179D01*
X10731Y16183D01*
X10771Y16195D01*
X10807Y16215D01*
X10839Y16241D01*
X10865Y16273D01*
X10885Y16309D01*
X10897Y16349D01*
X10901Y16390D01*
X10899Y16407D01*
X10926Y16434D01*
X10948Y16462D01*
X10962Y16495D01*
X10966Y16530D01*
Y16830D01*
X10979Y16841D01*
X11005Y16873D01*
X11025Y16909D01*
X11037Y16949D01*
X11037Y16954D01*
X12394D01*
X12401Y16943D01*
X12397Y16934D01*
X12395Y16922D01*
X12490D01*
X12585D01*
X12583Y16934D01*
X12579Y16943D01*
X12586Y16954D01*
X12899D01*
X12907Y16941D01*
X12905Y16932D01*
X13000D01*
X13095D01*
X13093Y16941D01*
X13101Y16954D01*
X13414D01*
X13421Y16943D01*
X13417Y16934D01*
X13415Y16922D01*
X13510D01*
X13605D01*
X13603Y16934D01*
X13593Y16957D01*
X13578Y16977D01*
Y16980D01*
X13596Y16994D01*
X13842Y17240D01*
X13864Y17268D01*
X13878Y17301D01*
X13882Y17336D01*
Y17527D01*
X13895Y17531D01*
X13920Y17511D01*
X13951Y17494D01*
X13985Y17484D01*
X14020Y17480D01*
X14055Y17484D01*
X14089Y17494D01*
X14120Y17511D01*
X14148Y17533D01*
X14170Y17561D01*
X14187Y17592D01*
X14197Y17626D01*
X14201Y17661D01*
X14197Y17696D01*
X14187Y17730D01*
X14170Y17761D01*
X14156Y17779D01*
Y18049D01*
X14175Y18073D01*
X14195Y18109D01*
X14207Y18149D01*
X14211Y18190D01*
X14207Y18231D01*
X14195Y18271D01*
X14175Y18307D01*
X14149Y18339D01*
X14117Y18365D01*
X14081Y18385D01*
X14041Y18397D01*
X14000Y18401D01*
X13959Y18397D01*
X13919Y18385D01*
X13883Y18365D01*
X13873Y18357D01*
X13863Y18365D01*
X13827Y18385D01*
X13787Y18397D01*
X13746Y18401D01*
X13705Y18397D01*
X13665Y18385D01*
X13629Y18365D01*
X13618Y18357D01*
X13607Y18365D01*
X13580Y18380D01*
X13578Y18395D01*
X13713Y18531D01*
X13730Y18529D01*
X13771Y18533D01*
X13811Y18545D01*
X13847Y18565D01*
X13857Y18573D01*
X13867Y18565D01*
X13903Y18545D01*
X13943Y18533D01*
X13984Y18529D01*
X14025Y18533D01*
X14065Y18545D01*
X14101Y18565D01*
X14133Y18591D01*
X14159Y18623D01*
X14179Y18659D01*
X14191Y18699D01*
X14195Y18740D01*
X14191Y18781D01*
X14179Y18821D01*
X14159Y18857D01*
X14133Y18889D01*
X14120Y18900D01*
Y19176D01*
X14130Y19189D01*
X14147Y19220D01*
X14157Y19254D01*
X14161Y19289D01*
X14157Y19324D01*
X14147Y19358D01*
X14130Y19389D01*
X14108Y19417D01*
X14080Y19439D01*
X14049Y19456D01*
X14015Y19466D01*
X13980Y19470D01*
X13945Y19466D01*
X13911Y19456D01*
X13880Y19439D01*
X13852Y19417D01*
X13830Y19389D01*
X13813Y19358D01*
X13803Y19324D01*
X13799Y19289D01*
X13803Y19254D01*
X13813Y19220D01*
X13830Y19189D01*
X13848Y19166D01*
Y18930D01*
X13835Y18922D01*
X13811Y18935D01*
X13771Y18947D01*
X13730Y18951D01*
X13689Y18947D01*
X13649Y18935D01*
X13623Y18921D01*
X13610Y18928D01*
Y19197D01*
X13617Y19210D01*
X13627Y19244D01*
X13631Y19279D01*
X13627Y19314D01*
X13617Y19348D01*
X13600Y19379D01*
X13578Y19407D01*
X13550Y19429D01*
X13519Y19446D01*
X13485Y19456D01*
X13450Y19460D01*
X13415Y19456D01*
X13381Y19446D01*
X13350Y19429D01*
X13322Y19407D01*
X13300Y19379D01*
X13283Y19348D01*
X13273Y19314D01*
X13269Y19279D01*
X13273Y19244D01*
X13283Y19210D01*
X13300Y19179D01*
X13322Y19151D01*
X13338Y19138D01*
Y18930D01*
X13325Y18922D01*
X13301Y18935D01*
X13261Y18947D01*
X13220Y18951D01*
X13179Y18947D01*
X13139Y18935D01*
X13113Y18921D01*
X13100Y18928D01*
Y19178D01*
X13100Y19179D01*
X13117Y19210D01*
X13127Y19244D01*
X13131Y19279D01*
X13127Y19314D01*
X13117Y19348D01*
X13100Y19379D01*
X13078Y19407D01*
X13050Y19429D01*
X13019Y19446D01*
X12985Y19456D01*
X12950Y19460D01*
X12915Y19456D01*
X12881Y19446D01*
X12850Y19429D01*
X12822Y19407D01*
X12800Y19379D01*
X12783Y19348D01*
X12773Y19314D01*
X12769Y19279D01*
X12773Y19244D01*
X12783Y19210D01*
X12800Y19179D01*
X12822Y19151D01*
X12828Y19146D01*
Y18930D01*
X12815Y18922D01*
X12791Y18935D01*
X12751Y18947D01*
X12710Y18951D01*
X12669Y18947D01*
X12629Y18935D01*
X12603Y18921D01*
X12590Y18928D01*
Y19168D01*
X12590Y19169D01*
X12607Y19200D01*
X12617Y19234D01*
X12621Y19269D01*
X12617Y19304D01*
X12607Y19338D01*
X12590Y19369D01*
X12568Y19397D01*
X12540Y19419D01*
X12509Y19436D01*
X12475Y19446D01*
X12440Y19450D01*
X12405Y19446D01*
X12371Y19436D01*
X12340Y19419D01*
X12312Y19397D01*
X12290Y19369D01*
X12273Y19338D01*
X12263Y19304D01*
X12259Y19269D01*
X12263Y19234D01*
X12273Y19200D01*
X12290Y19169D01*
X12312Y19141D01*
X12318Y19136D01*
Y18930D01*
X12305Y18922D01*
X12281Y18935D01*
X12241Y18947D01*
X12200Y18951D01*
X12183Y18949D01*
X11776Y19356D01*
X11748Y19378D01*
X11715Y19392D01*
X11680Y19396D01*
X10665D01*
X10660Y19408D01*
X10676Y19424D01*
X10698Y19452D01*
X10704Y19466D01*
X10712Y19485D01*
X10716Y19520D01*
Y19600D01*
X10727Y19607D01*
X10749Y19595D01*
X10789Y19583D01*
X10830Y19579D01*
X10871Y19583D01*
X10911Y19595D01*
X10947Y19615D01*
X10979Y19641D01*
X11005Y19673D01*
X11025Y19709D01*
X11037Y19749D01*
X11041Y19790D01*
X11037Y19831D01*
X11025Y19871D01*
X11005Y19907D01*
X10979Y19939D01*
X10966Y19950D01*
Y20240D01*
X10979Y20251D01*
X11005Y20283D01*
X11025Y20319D01*
X11033Y20345D01*
X11047Y20350D01*
X11075Y20338D01*
X11110Y20334D01*
X12334D01*
X12341Y20323D01*
X12337Y20314D01*
X12335Y20302D01*
X12430D01*
X12525D01*
X12523Y20314D01*
X12519Y20323D01*
X12526Y20334D01*
X12854D01*
X12861Y20323D01*
X12857Y20314D01*
X12855Y20302D01*
X12950D01*
X13045D01*
X13043Y20314D01*
X13039Y20323D01*
X13046Y20334D01*
X13366D01*
X13367Y20333D01*
X13374Y20321D01*
X13367Y20304D01*
X13365Y20292D01*
X13460D01*
X13555D01*
X13553Y20304D01*
X13543Y20327D01*
X13528Y20347D01*
X13508Y20362D01*
X13490Y20370D01*
X13487Y20382D01*
X13487Y20384D01*
X13806Y20704D01*
X13828Y20732D01*
X13834Y20746D01*
X13842Y20765D01*
X13846Y20800D01*
Y20905D01*
X13858Y20910D01*
X13870Y20901D01*
X13901Y20884D01*
X13935Y20874D01*
X13970Y20870D01*
X14005Y20874D01*
X14039Y20884D01*
X14070Y20901D01*
X14098Y20923D01*
X14120Y20951D01*
X14137Y20982D01*
X14147Y21016D01*
X14151Y21051D01*
X14147Y21086D01*
X14137Y21120D01*
X14120Y21151D01*
X14106Y21169D01*
Y21435D01*
X14113Y21441D01*
X14139Y21473D01*
X14159Y21509D01*
X14171Y21549D01*
X14175Y21590D01*
X14171Y21631D01*
X14159Y21671D01*
X14139Y21707D01*
X14113Y21739D01*
X14081Y21765D01*
X14045Y21785D01*
X14005Y21797D01*
X13964Y21801D01*
X13923Y21797D01*
X13883Y21785D01*
X13847Y21765D01*
X13837Y21757D01*
X13827Y21765D01*
X13791Y21785D01*
X13751Y21797D01*
X13710Y21801D01*
X13669Y21797D01*
X13629Y21785D01*
X13593Y21765D01*
X13582Y21757D01*
X13571Y21765D01*
X13535Y21785D01*
X13495Y21797D01*
X13487Y21798D01*
X13482Y21810D01*
X13703Y22031D01*
X13720Y22029D01*
X13761Y22033D01*
X13801Y22045D01*
X13837Y22065D01*
X13847Y22073D01*
X13857Y22065D01*
X13893Y22045D01*
X13933Y22033D01*
X13974Y22029D01*
X14015Y22033D01*
X14055Y22045D01*
X14091Y22065D01*
X14123Y22091D01*
X14149Y22123D01*
X14169Y22159D01*
X14181Y22199D01*
X14185Y22240D01*
X14181Y22281D01*
X14169Y22321D01*
X14149Y22357D01*
X14123Y22389D01*
X14110Y22400D01*
Y22666D01*
X14120Y22679D01*
X14137Y22710D01*
X14147Y22744D01*
X14151Y22779D01*
X14147Y22814D01*
X14137Y22848D01*
X14120Y22879D01*
X14098Y22907D01*
X14070Y22929D01*
X14039Y22946D01*
X14005Y22956D01*
X13970Y22960D01*
X13935Y22956D01*
X13901Y22946D01*
X13870Y22929D01*
X13842Y22907D01*
X13820Y22879D01*
X13803Y22848D01*
X13793Y22814D01*
X13789Y22779D01*
X13793Y22744D01*
X13803Y22710D01*
X13820Y22679D01*
X13838Y22656D01*
Y22430D01*
X13825Y22422D01*
X13801Y22435D01*
X13761Y22447D01*
X13720Y22451D01*
X13679Y22447D01*
X13639Y22435D01*
X13613Y22421D01*
X13600Y22428D01*
Y22644D01*
X13620Y22669D01*
X13637Y22700D01*
X13647Y22734D01*
X13651Y22769D01*
X13647Y22804D01*
X13637Y22838D01*
X13620Y22869D01*
X13598Y22897D01*
X13570Y22919D01*
X13539Y22936D01*
X13505Y22946D01*
X13470Y22950D01*
X13435Y22946D01*
X13401Y22936D01*
X13370Y22919D01*
X13342Y22897D01*
X13320Y22869D01*
X13303Y22838D01*
X13293Y22804D01*
X13289Y22769D01*
X13293Y22734D01*
X13303Y22700D01*
X13320Y22669D01*
X13328Y22658D01*
Y22430D01*
X13315Y22422D01*
X13291Y22435D01*
X13251Y22447D01*
X13210Y22451D01*
X13169Y22447D01*
X13129Y22435D01*
X13103Y22421D01*
X13090Y22428D01*
Y22656D01*
X13100Y22669D01*
X13117Y22700D01*
X13127Y22734D01*
X13131Y22769D01*
X13127Y22804D01*
X13117Y22838D01*
X13100Y22869D01*
X13078Y22897D01*
X13050Y22919D01*
X13019Y22936D01*
X12985Y22946D01*
X12950Y22950D01*
X12915Y22946D01*
X12881Y22936D01*
X12850Y22919D01*
X12822Y22897D01*
X12800Y22869D01*
X12783Y22838D01*
X12773Y22804D01*
X12769Y22769D01*
X12773Y22734D01*
X12783Y22700D01*
X12800Y22669D01*
X12818Y22646D01*
Y22430D01*
X12805Y22422D01*
X12781Y22435D01*
X12741Y22447D01*
X12700Y22451D01*
X12659Y22447D01*
X12619Y22435D01*
X12589Y22419D01*
X12576Y22426D01*
Y22620D01*
X12578Y22621D01*
X12600Y22649D01*
X12617Y22680D01*
X12627Y22714D01*
X12631Y22749D01*
X12627Y22784D01*
X12617Y22818D01*
X12600Y22849D01*
X12578Y22877D01*
X12550Y22899D01*
X12519Y22916D01*
X12485Y22926D01*
X12450Y22930D01*
X12415Y22926D01*
X12381Y22916D01*
X12350Y22899D01*
X12322Y22877D01*
X12300Y22849D01*
X12283Y22818D01*
X12273Y22784D01*
X12269Y22749D01*
X12273Y22714D01*
X12283Y22680D01*
X12300Y22649D01*
X12304Y22643D01*
Y22430D01*
X12291Y22422D01*
X12267Y22435D01*
X12227Y22447D01*
X12186Y22451D01*
X12169Y22449D01*
X11852Y22766D01*
X11824Y22788D01*
X11791Y22802D01*
X11756Y22806D01*
X10605D01*
X10600Y22818D01*
X10676Y22894D01*
X10698Y22922D01*
X10712Y22955D01*
X10716Y22990D01*
Y23010D01*
X10727Y23017D01*
X10749Y23005D01*
X10789Y22993D01*
X10830Y22989D01*
X10871Y22993D01*
X10911Y23005D01*
X10947Y23025D01*
X10979Y23051D01*
X11005Y23083D01*
X11025Y23119D01*
X11037Y23159D01*
X11041Y23200D01*
X11039Y23220D01*
X11048Y23232D01*
X11054Y23246D01*
X11062Y23265D01*
X11064Y23283D01*
X11066Y23300D01*
Y23810D01*
X11079Y23821D01*
X11105Y23853D01*
X11125Y23889D01*
X11137Y23929D01*
X11141Y23970D01*
X11137Y24011D01*
X11128Y24042D01*
X11139Y24049D01*
X11184Y24004D01*
X11212Y23982D01*
X11226Y23976D01*
X11245Y23968D01*
X11280Y23964D01*
X13420D01*
X13455Y23968D01*
X13488Y23982D01*
X13516Y24004D01*
X13786Y24274D01*
X13808Y24302D01*
X13814Y24316D01*
X13822Y24335D01*
X13826Y24370D01*
Y24398D01*
X13838Y24404D01*
X13854Y24391D01*
X13885Y24374D01*
X13919Y24364D01*
X13954Y24360D01*
X13989Y24364D01*
X14023Y24374D01*
X14054Y24391D01*
X14082Y24413D01*
X14104Y24441D01*
X14121Y24472D01*
X14131Y24506D01*
X14135Y24541D01*
X14131Y24576D01*
X14121Y24610D01*
X14104Y24641D01*
X14090Y24659D01*
Y24958D01*
X14093Y24961D01*
X14119Y24993D01*
X14139Y25029D01*
X14151Y25069D01*
X14155Y25110D01*
X14151Y25151D01*
X14139Y25191D01*
X14119Y25227D01*
X14093Y25259D01*
X14061Y25285D01*
X14025Y25305D01*
X13985Y25317D01*
X13944Y25321D01*
X13903Y25317D01*
X13863Y25305D01*
X13827Y25285D01*
X13817Y25277D01*
X13807Y25285D01*
X13771Y25305D01*
X13731Y25317D01*
X13690Y25321D01*
X13649Y25317D01*
X13609Y25305D01*
X13573Y25285D01*
X13562Y25277D01*
X13551Y25285D01*
X13515Y25305D01*
X13475Y25317D01*
X13434Y25321D01*
X13393Y25317D01*
X13353Y25305D01*
X13317Y25285D01*
X13307Y25277D01*
X13297Y25285D01*
X13261Y25305D01*
X13259Y25305D01*
X13256Y25318D01*
X13629Y25691D01*
X13646Y25689D01*
X13687Y25693D01*
X13727Y25705D01*
X13763Y25725D01*
X13773Y25733D01*
X13783Y25725D01*
X13819Y25705D01*
X13859Y25693D01*
X13900Y25689D01*
X13941Y25693D01*
X13981Y25705D01*
X14017Y25725D01*
X14049Y25751D01*
X14075Y25783D01*
X14095Y25819D01*
X14107Y25859D01*
X14111Y25900D01*
X14107Y25941D01*
X14095Y25981D01*
X14075Y26017D01*
X14049Y26049D01*
X14036Y26060D01*
Y26251D01*
X14050Y26269D01*
X14067Y26300D01*
X14077Y26334D01*
X14081Y26369D01*
X14077Y26404D01*
X14067Y26438D01*
X14050Y26469D01*
X14028Y26497D01*
X14000Y26519D01*
X13969Y26536D01*
X13935Y26546D01*
X13900Y26550D01*
X13865Y26546D01*
X13831Y26536D01*
X13800Y26519D01*
X13772Y26497D01*
X13750Y26469D01*
X13733Y26438D01*
X13723Y26404D01*
X13719Y26369D01*
X13723Y26334D01*
X13733Y26300D01*
X13750Y26269D01*
X13764Y26251D01*
Y26090D01*
X13751Y26082D01*
X13727Y26095D01*
X13687Y26107D01*
X13646Y26111D01*
X13605Y26107D01*
X13565Y26095D01*
X13541Y26082D01*
X13530Y26089D01*
Y26258D01*
X13530Y26259D01*
X13547Y26290D01*
X13557Y26324D01*
X13561Y26359D01*
X13557Y26394D01*
X13547Y26428D01*
X13530Y26459D01*
X13508Y26487D01*
X13480Y26509D01*
X13449Y26526D01*
X13415Y26536D01*
X13380Y26540D01*
X13345Y26536D01*
X13311Y26526D01*
X13280Y26509D01*
X13252Y26487D01*
X13230Y26459D01*
X13213Y26428D01*
X13203Y26394D01*
X13199Y26359D01*
X13203Y26324D01*
X13213Y26290D01*
X13230Y26259D01*
X13252Y26231D01*
X13258Y26226D01*
Y26080D01*
X13245Y26072D01*
X13221Y26085D01*
X13181Y26097D01*
X13140Y26101D01*
X13099Y26097D01*
X13059Y26085D01*
X13029Y26069D01*
X13016Y26076D01*
Y26240D01*
X13018Y26241D01*
X13040Y26269D01*
X13057Y26300D01*
X13067Y26334D01*
X13071Y26369D01*
X13067Y26404D01*
X13057Y26438D01*
X13040Y26469D01*
X13018Y26497D01*
X12990Y26519D01*
X12959Y26536D01*
X12925Y26546D01*
X12890Y26550D01*
X12855Y26546D01*
X12821Y26536D01*
X12790Y26519D01*
X12762Y26497D01*
X12740Y26469D01*
X12723Y26438D01*
X12713Y26404D01*
X12709Y26369D01*
X12713Y26334D01*
X12723Y26300D01*
X12740Y26269D01*
X12744Y26263D01*
Y26080D01*
X12731Y26072D01*
X12707Y26085D01*
X12667Y26097D01*
X12626Y26101D01*
X12585Y26097D01*
X12545Y26085D01*
X12519Y26071D01*
X12506Y26078D01*
Y26220D01*
X12508Y26221D01*
X12530Y26249D01*
X12547Y26280D01*
X12557Y26314D01*
X12561Y26349D01*
X12557Y26384D01*
X12547Y26418D01*
X12530Y26449D01*
X12508Y26477D01*
X12480Y26499D01*
X12449Y26516D01*
X12415Y26526D01*
X12380Y26530D01*
X12345Y26526D01*
X12311Y26516D01*
X12280Y26499D01*
X12252Y26477D01*
X12230Y26449D01*
X12213Y26418D01*
X12203Y26384D01*
X12199Y26349D01*
X12203Y26314D01*
X12213Y26280D01*
X12230Y26249D01*
X12234Y26243D01*
Y26080D01*
X12221Y26072D01*
X12197Y26085D01*
X12157Y26097D01*
X12116Y26101D01*
X12099Y26099D01*
X11862Y26336D01*
X11834Y26358D01*
X11801Y26372D01*
X11766Y26376D01*
X10725D01*
X10720Y26388D01*
X10776Y26444D01*
X10798Y26472D01*
X10812Y26505D01*
X10816Y26540D01*
Y26580D01*
X10827Y26587D01*
X10849Y26575D01*
X10889Y26563D01*
X10930Y26559D01*
X10971Y26563D01*
X11011Y26575D01*
X11047Y26595D01*
X11079Y26621D01*
X11105Y26653D01*
X11125Y26689D01*
X11137Y26729D01*
X11141Y26770D01*
X11137Y26811D01*
X11125Y26851D01*
X11105Y26887D01*
X11079Y26919D01*
X11066Y26930D01*
Y27170D01*
X11062Y27205D01*
X11048Y27238D01*
X11026Y27266D01*
X10994Y27298D01*
X10999Y27310D01*
X28210D01*
Y9294D01*
D02*
G37*
G36*
X10353Y10067D02*
X10347Y10056D01*
X10311Y10067D01*
X10270Y10071D01*
X10229Y10067D01*
X10189Y10055D01*
X10153Y10035D01*
X10145Y10029D01*
X10137Y10035D01*
X10101Y10055D01*
X10061Y10067D01*
X10020Y10071D01*
X9979Y10067D01*
X9939Y10055D01*
X9903Y10035D01*
X9895Y10029D01*
X9887Y10035D01*
X9851Y10055D01*
X9811Y10067D01*
X9770Y10071D01*
X9729Y10067D01*
X9689Y10055D01*
X9653Y10035D01*
X9645Y10029D01*
X9637Y10035D01*
X9601Y10055D01*
X9561Y10067D01*
X9520Y10071D01*
X9479Y10067D01*
X9439Y10055D01*
X9403Y10035D01*
X9395Y10029D01*
X9387Y10035D01*
X9351Y10055D01*
X9311Y10067D01*
X9270Y10071D01*
X9229Y10067D01*
X9189Y10055D01*
X9153Y10035D01*
X9145Y10029D01*
X9137Y10035D01*
X9101Y10055D01*
X9061Y10067D01*
X9020Y10071D01*
X8979Y10067D01*
X8939Y10055D01*
X8903Y10035D01*
X8871Y10009D01*
X8858Y9994D01*
X8846Y9993D01*
X8645Y10195D01*
X8646Y10211D01*
X8669Y10231D01*
X8680Y10244D01*
X10177D01*
X10353Y10067D01*
D02*
G37*
G36*
X13400Y10311D02*
X13431Y10294D01*
X13465Y10284D01*
X13500Y10280D01*
X13535Y10284D01*
X13569Y10294D01*
X13600Y10311D01*
X13602Y10312D01*
X13614Y10307D01*
Y10186D01*
X13544Y10116D01*
X13325D01*
X13320Y10128D01*
X13336Y10144D01*
X13358Y10172D01*
X13372Y10205D01*
X13376Y10240D01*
Y10315D01*
X13388Y10320D01*
X13400Y10311D01*
D02*
G37*
G36*
X15865Y26483D02*
X15891Y26451D01*
X15923Y26425D01*
X15959Y26405D01*
X15980Y26399D01*
X15978Y26386D01*
X15777D01*
X15742Y26421D01*
X15714Y26443D01*
X15681Y26457D01*
X15646Y26461D01*
X15434D01*
X15399Y26457D01*
X15380Y26449D01*
X15366Y26443D01*
X15338Y26421D01*
X15189Y26272D01*
X15167Y26244D01*
X15153Y26211D01*
X15149Y26176D01*
Y24194D01*
X15153Y24159D01*
X15167Y24126D01*
X15189Y24098D01*
X15738Y23549D01*
X15736Y23536D01*
X15731Y23534D01*
X15706Y23514D01*
X15686Y23489D01*
X15671Y23462D01*
X15662Y23431D01*
X15659Y23400D01*
Y23341D01*
X15001D01*
Y26499D01*
X15856D01*
X15865Y26483D01*
D02*
G37*
G36*
X11907Y25907D02*
X11905Y25890D01*
X11909Y25849D01*
X11917Y25824D01*
X11905Y25817D01*
X11636Y26086D01*
X11629Y26092D01*
X11633Y26104D01*
X11710D01*
X11907Y25907D01*
D02*
G37*
G36*
X13249Y25696D02*
X13040Y25486D01*
X12945D01*
X12940Y25498D01*
X13123Y25681D01*
X13140Y25679D01*
X13181Y25683D01*
X13221Y25695D01*
X13242Y25706D01*
X13249Y25696D01*
D02*
G37*
G36*
X20684Y26394D02*
Y26373D01*
X20672Y26368D01*
X20670Y26369D01*
X20639Y26386D01*
X20605Y26396D01*
X20570Y26400D01*
X20535Y26396D01*
X20501Y26386D01*
X20470Y26369D01*
X20442Y26347D01*
X20420Y26319D01*
X20403Y26288D01*
X20393Y26254D01*
X20389Y26219D01*
X20393Y26184D01*
X20403Y26150D01*
X20420Y26119D01*
X20428Y26108D01*
Y25910D01*
X20415Y25902D01*
X20391Y25915D01*
X20351Y25927D01*
X20310Y25931D01*
X20269Y25927D01*
X20229Y25915D01*
X20203Y25901D01*
X20190Y25908D01*
Y26104D01*
X20210Y26129D01*
X20227Y26160D01*
X20237Y26194D01*
X20241Y26229D01*
X20237Y26264D01*
X20227Y26298D01*
X20210Y26329D01*
X20188Y26357D01*
X20160Y26379D01*
X20129Y26396D01*
X20095Y26406D01*
X20060Y26410D01*
X20025Y26406D01*
X19991Y26396D01*
X19960Y26379D01*
X19932Y26357D01*
X19910Y26329D01*
X19893Y26298D01*
X19883Y26264D01*
X19879Y26229D01*
X19883Y26194D01*
X19893Y26160D01*
X19910Y26129D01*
X19918Y26118D01*
Y25910D01*
X19905Y25902D01*
X19881Y25915D01*
X19841Y25927D01*
X19800Y25931D01*
X19759Y25927D01*
X19719Y25915D01*
X19693Y25901D01*
X19680Y25908D01*
Y26106D01*
X19690Y26119D01*
X19707Y26150D01*
X19717Y26184D01*
X19721Y26219D01*
X19717Y26254D01*
X19707Y26288D01*
X19690Y26319D01*
X19668Y26347D01*
X19640Y26369D01*
X19609Y26386D01*
X19575Y26396D01*
X19540Y26400D01*
X19505Y26396D01*
X19471Y26386D01*
X19440Y26369D01*
X19412Y26347D01*
X19390Y26319D01*
X19373Y26288D01*
X19363Y26254D01*
X19359Y26219D01*
X19363Y26184D01*
X19373Y26150D01*
X19390Y26119D01*
X19408Y26096D01*
Y25910D01*
X19395Y25902D01*
X19371Y25915D01*
X19331Y25927D01*
X19290Y25931D01*
X19249Y25927D01*
X19209Y25915D01*
X19183Y25901D01*
X19170Y25908D01*
Y26116D01*
X19180Y26129D01*
X19197Y26160D01*
X19207Y26194D01*
X19211Y26229D01*
X19207Y26264D01*
X19197Y26298D01*
X19180Y26329D01*
X19158Y26357D01*
X19130Y26379D01*
X19099Y26396D01*
X19065Y26406D01*
X19030Y26410D01*
X18995Y26406D01*
X18961Y26396D01*
X18930Y26379D01*
X18902Y26357D01*
X18880Y26329D01*
X18863Y26298D01*
X18853Y26264D01*
X18849Y26229D01*
X18853Y26194D01*
X18863Y26160D01*
X18880Y26129D01*
X18898Y26106D01*
Y25910D01*
X18885Y25902D01*
X18861Y25915D01*
X18821Y25927D01*
X18780Y25931D01*
X18763Y25929D01*
X18526Y26166D01*
X18498Y26188D01*
X18465Y26202D01*
X18430Y26206D01*
X17315D01*
X17310Y26218D01*
X17386Y26294D01*
X17408Y26322D01*
X17422Y26355D01*
X17426Y26390D01*
Y26410D01*
X17437Y26417D01*
X17459Y26405D01*
X17499Y26393D01*
X17540Y26389D01*
X17581Y26393D01*
X17621Y26405D01*
X17657Y26425D01*
X17689Y26451D01*
X17700Y26464D01*
X20614D01*
X20684Y26394D01*
D02*
G37*
G36*
X18531Y11107D02*
X18529Y11090D01*
X18533Y11049D01*
X18545Y11009D01*
X18565Y10973D01*
X18591Y10941D01*
X18623Y10915D01*
X18659Y10895D01*
X18699Y10883D01*
X18740Y10879D01*
X18781Y10883D01*
X18821Y10895D01*
X18857Y10915D01*
X18858Y10915D01*
X18862Y10913D01*
X18865Y10898D01*
X18604Y10636D01*
X17156D01*
X15986Y11806D01*
X15979Y11812D01*
X15983Y11824D01*
X17814D01*
X18531Y11107D01*
D02*
G37*
G36*
X19372Y10913D02*
X19375Y10898D01*
X19024Y10546D01*
X18915D01*
X18910Y10558D01*
X19233Y10881D01*
X19250Y10879D01*
X19291Y10883D01*
X19331Y10895D01*
X19367Y10915D01*
X19368Y10915D01*
X19372Y10913D01*
D02*
G37*
G36*
X9281Y26621D02*
X9313Y26595D01*
X9349Y26575D01*
X9370Y26569D01*
X9368Y26556D01*
X9167D01*
X9132Y26591D01*
X9104Y26613D01*
X9071Y26627D01*
X9071Y26627D01*
X9072Y26639D01*
X9266D01*
X9281Y26621D01*
D02*
G37*
%LPC*%
G36*
X19067Y19796D02*
X19055Y19794D01*
X19032Y19784D01*
X19012Y19769D01*
X18997Y19749D01*
X18987Y19726D01*
X18985Y19714D01*
X19067D01*
Y19796D01*
D02*
G37*
G36*
X20113D02*
Y19714D01*
X20195D01*
X20193Y19726D01*
X20183Y19749D01*
X20168Y19769D01*
X20148Y19784D01*
X20125Y19794D01*
X20113Y19796D01*
D02*
G37*
G36*
X20597Y19806D02*
X20585Y19804D01*
X20562Y19794D01*
X20542Y19779D01*
X20527Y19759D01*
X20517Y19736D01*
X20515Y19724D01*
X20597D01*
Y19806D01*
D02*
G37*
G36*
X19093Y19796D02*
Y19714D01*
X19175D01*
X19173Y19726D01*
X19163Y19749D01*
X19148Y19769D01*
X19128Y19784D01*
X19105Y19794D01*
X19093Y19796D01*
D02*
G37*
G36*
X20185Y20106D02*
X20103D01*
Y20024D01*
X20115Y20026D01*
X20138Y20036D01*
X20158Y20051D01*
X20173Y20071D01*
X20183Y20094D01*
X20185Y20106D01*
D02*
G37*
G36*
X20077D02*
X19995D01*
X19997Y20094D01*
X20007Y20071D01*
X20022Y20051D01*
X20042Y20036D01*
X20065Y20026D01*
X20077Y20024D01*
Y20106D01*
D02*
G37*
G36*
X20597Y20116D02*
X20515D01*
X20517Y20104D01*
X20527Y20081D01*
X20542Y20061D01*
X20562Y20046D01*
X20585Y20036D01*
X20597Y20034D01*
Y20116D01*
D02*
G37*
G36*
X19057D02*
X18975D01*
X18977Y20104D01*
X18987Y20081D01*
X19002Y20061D01*
X19022Y20046D01*
X19045Y20036D01*
X19057Y20034D01*
Y20116D01*
D02*
G37*
G36*
X20087Y19796D02*
X20075Y19794D01*
X20052Y19784D01*
X20032Y19769D01*
X20017Y19749D01*
X20007Y19726D01*
X20005Y19714D01*
X20087D01*
Y19796D01*
D02*
G37*
G36*
X19685Y19678D02*
X19603D01*
Y19596D01*
X19615Y19598D01*
X19638Y19608D01*
X19658Y19623D01*
X19673Y19643D01*
X19683Y19666D01*
X19685Y19678D01*
D02*
G37*
G36*
X20597Y19698D02*
X20515D01*
X20517Y19686D01*
X20527Y19663D01*
X20542Y19643D01*
X20562Y19628D01*
X20585Y19618D01*
X20597Y19616D01*
Y19698D01*
D02*
G37*
G36*
X20087Y19688D02*
X20005D01*
X20007Y19676D01*
X20017Y19653D01*
X20032Y19633D01*
X20052Y19618D01*
X20075Y19608D01*
X20087Y19606D01*
Y19688D01*
D02*
G37*
G36*
X19603Y19786D02*
Y19704D01*
X19685D01*
X19683Y19716D01*
X19673Y19739D01*
X19658Y19759D01*
X19638Y19774D01*
X19615Y19784D01*
X19603Y19786D01*
D02*
G37*
G36*
X19577Y19786D02*
X19565Y19784D01*
X19542Y19774D01*
X19522Y19759D01*
X19507Y19739D01*
X19497Y19716D01*
X19495Y19704D01*
X19577D01*
Y19786D01*
D02*
G37*
G36*
X20195Y19688D02*
X20113D01*
Y19606D01*
X20125Y19608D01*
X20148Y19618D01*
X20168Y19633D01*
X20183Y19653D01*
X20193Y19676D01*
X20195Y19688D01*
D02*
G37*
G36*
X19577Y19678D02*
X19495D01*
X19497Y19666D01*
X19507Y19643D01*
X19522Y19623D01*
X19542Y19608D01*
X19565Y19598D01*
X19577Y19596D01*
Y19678D01*
D02*
G37*
G36*
X19175Y19688D02*
X19093D01*
Y19606D01*
X19105Y19608D01*
X19128Y19618D01*
X19148Y19633D01*
X19163Y19653D01*
X19173Y19676D01*
X19175Y19688D01*
D02*
G37*
G36*
X19067D02*
X18985D01*
X18987Y19676D01*
X18997Y19653D01*
X19012Y19633D01*
X19032Y19618D01*
X19055Y19608D01*
X19067Y19606D01*
Y19688D01*
D02*
G37*
G36*
X19577Y20116D02*
X19495D01*
X19497Y20104D01*
X19507Y20081D01*
X19522Y20061D01*
X19542Y20046D01*
X19565Y20036D01*
X19577Y20034D01*
Y20116D01*
D02*
G37*
G36*
X19685D02*
X19603D01*
Y20034D01*
X19615Y20036D01*
X19638Y20046D01*
X19658Y20061D01*
X19673Y20081D01*
X19683Y20104D01*
X19685Y20116D01*
D02*
G37*
G36*
X19165Y20116D02*
X19083D01*
Y20034D01*
X19095Y20036D01*
X19118Y20046D01*
X19138Y20061D01*
X19153Y20081D01*
X19163Y20104D01*
X19165Y20116D01*
D02*
G37*
G36*
X20597Y20224D02*
X20585Y20222D01*
X20562Y20212D01*
X20542Y20197D01*
X20527Y20177D01*
X20517Y20154D01*
X20515Y20142D01*
X20597D01*
Y20224D01*
D02*
G37*
G36*
X1690Y10046D02*
X1645Y10042D01*
X1602Y10032D01*
X1560Y10015D01*
X1522Y9991D01*
X1488Y9962D01*
X1459Y9928D01*
X1435Y9890D01*
X1418Y9848D01*
X1408Y9805D01*
X1404Y9760D01*
X1408Y9715D01*
X1418Y9672D01*
X1435Y9630D01*
X1459Y9592D01*
X1488Y9558D01*
X1522Y9529D01*
X1560Y9505D01*
X1602Y9488D01*
X1645Y9478D01*
X1690Y9474D01*
X1735Y9478D01*
X1778Y9488D01*
X1820Y9505D01*
X1858Y9529D01*
X1892Y9558D01*
X1921Y9592D01*
X1945Y9630D01*
X1962Y9672D01*
X1972Y9715D01*
X1976Y9760D01*
X1972Y9805D01*
X1962Y9848D01*
X1945Y9890D01*
X1921Y9928D01*
X1892Y9962D01*
X1858Y9991D01*
X1820Y10015D01*
X1778Y10032D01*
X1735Y10042D01*
X1690Y10046D01*
D02*
G37*
G36*
X1590Y27226D02*
X1545Y27222D01*
X1502Y27212D01*
X1460Y27195D01*
X1422Y27171D01*
X1388Y27142D01*
X1359Y27108D01*
X1335Y27070D01*
X1318Y27028D01*
X1308Y26985D01*
X1304Y26940D01*
X1308Y26895D01*
X1318Y26852D01*
X1335Y26810D01*
X1359Y26772D01*
X1388Y26738D01*
X1422Y26709D01*
X1460Y26685D01*
X1502Y26668D01*
X1545Y26658D01*
X1590Y26654D01*
X1635Y26658D01*
X1678Y26668D01*
X1720Y26685D01*
X1758Y26709D01*
X1792Y26738D01*
X1821Y26772D01*
X1845Y26810D01*
X1862Y26852D01*
X1872Y26895D01*
X1876Y26940D01*
X1872Y26985D01*
X1862Y27028D01*
X1845Y27070D01*
X1821Y27108D01*
X1792Y27142D01*
X1758Y27171D01*
X1720Y27195D01*
X1678Y27212D01*
X1635Y27222D01*
X1590Y27226D01*
D02*
G37*
G36*
X20597Y16534D02*
X20585Y16532D01*
X20562Y16522D01*
X20542Y16507D01*
X20527Y16487D01*
X20517Y16464D01*
X20515Y16452D01*
X20597D01*
Y16534D01*
D02*
G37*
G36*
X19577Y16416D02*
X19495D01*
X19497Y16404D01*
X19507Y16381D01*
X19522Y16361D01*
X19542Y16346D01*
X19565Y16336D01*
X19577Y16334D01*
Y16416D01*
D02*
G37*
G36*
X20597Y16426D02*
X20515D01*
X20517Y16414D01*
X20527Y16391D01*
X20542Y16371D01*
X20562Y16356D01*
X20585Y16346D01*
X20597Y16344D01*
Y16426D01*
D02*
G37*
G36*
X19077Y16416D02*
X18995D01*
X18997Y16404D01*
X19007Y16381D01*
X19022Y16361D01*
X19042Y16346D01*
X19065Y16336D01*
X19077Y16334D01*
Y16416D01*
D02*
G37*
G36*
X19603Y16176D02*
Y16094D01*
X19685D01*
X19683Y16106D01*
X19673Y16129D01*
X19658Y16149D01*
X19638Y16164D01*
X19615Y16174D01*
X19603Y16176D01*
D02*
G37*
G36*
X19067D02*
X19055Y16174D01*
X19032Y16164D01*
X19012Y16149D01*
X18997Y16129D01*
X18987Y16106D01*
X18985Y16094D01*
X19067D01*
Y16176D01*
D02*
G37*
G36*
X19093D02*
Y16094D01*
X19175D01*
X19173Y16106D01*
X19163Y16129D01*
X19148Y16149D01*
X19128Y16164D01*
X19105Y16174D01*
X19093Y16176D01*
D02*
G37*
G36*
X20077Y16166D02*
X20065Y16164D01*
X20042Y16154D01*
X20022Y16139D01*
X20007Y16119D01*
X19997Y16096D01*
X19995Y16084D01*
X20077D01*
Y16166D01*
D02*
G37*
G36*
X20103Y16166D02*
Y16084D01*
X20185D01*
X20183Y16096D01*
X20173Y16119D01*
X20158Y16139D01*
X20138Y16154D01*
X20115Y16164D01*
X20103Y16166D01*
D02*
G37*
G36*
X19577Y16176D02*
X19565Y16174D01*
X19542Y16164D01*
X19522Y16149D01*
X19507Y16129D01*
X19497Y16106D01*
X19495Y16094D01*
X19577D01*
Y16176D01*
D02*
G37*
G36*
X19185Y16416D02*
X19103D01*
Y16334D01*
X19115Y16336D01*
X19138Y16346D01*
X19158Y16361D01*
X19173Y16381D01*
X19183Y16404D01*
X19185Y16416D01*
D02*
G37*
G36*
X19685D02*
X19603D01*
Y16334D01*
X19615Y16336D01*
X19638Y16346D01*
X19658Y16361D01*
X19673Y16381D01*
X19683Y16404D01*
X19685Y16416D01*
D02*
G37*
G36*
X20097Y16406D02*
X20015D01*
X20017Y16394D01*
X20027Y16371D01*
X20042Y16351D01*
X20062Y16336D01*
X20085Y16326D01*
X20097Y16324D01*
Y16406D01*
D02*
G37*
G36*
X20205D02*
X20123D01*
Y16324D01*
X20135Y16326D01*
X20158Y16336D01*
X20178Y16351D01*
X20193Y16371D01*
X20203Y16394D01*
X20205Y16406D01*
D02*
G37*
G36*
X20607Y16048D02*
X20525D01*
X20527Y16036D01*
X20537Y16013D01*
X20552Y15993D01*
X20572Y15978D01*
X20595Y15968D01*
X20607Y15966D01*
Y16048D01*
D02*
G37*
G36*
X20185Y16058D02*
X20103D01*
Y15976D01*
X20115Y15978D01*
X20138Y15988D01*
X20158Y16003D01*
X20173Y16023D01*
X20183Y16046D01*
X20185Y16058D01*
D02*
G37*
G36*
X19175Y16068D02*
X19093D01*
Y15986D01*
X19105Y15988D01*
X19128Y15998D01*
X19148Y16013D01*
X19163Y16033D01*
X19173Y16056D01*
X19175Y16068D01*
D02*
G37*
G36*
X19577Y16068D02*
X19495D01*
X19497Y16056D01*
X19507Y16033D01*
X19522Y16013D01*
X19542Y15998D01*
X19565Y15988D01*
X19577Y15986D01*
Y16068D01*
D02*
G37*
G36*
X20607Y16156D02*
X20595Y16154D01*
X20572Y16144D01*
X20552Y16129D01*
X20537Y16109D01*
X20527Y16086D01*
X20525Y16074D01*
X20607D01*
Y16156D01*
D02*
G37*
G36*
X20077Y16058D02*
X19995D01*
X19997Y16046D01*
X20007Y16023D01*
X20022Y16003D01*
X20042Y15988D01*
X20065Y15978D01*
X20077Y15976D01*
Y16058D01*
D02*
G37*
G36*
X19685Y16068D02*
X19603D01*
Y15986D01*
X19615Y15988D01*
X19638Y15998D01*
X19658Y16013D01*
X19673Y16033D01*
X19683Y16056D01*
X19685Y16068D01*
D02*
G37*
G36*
X19067Y16068D02*
X18985D01*
X18987Y16056D01*
X18997Y16033D01*
X19012Y16013D01*
X19032Y15998D01*
X19055Y15988D01*
X19067Y15986D01*
Y16068D01*
D02*
G37*
G36*
X20165Y23696D02*
X20083D01*
Y23614D01*
X20095Y23616D01*
X20118Y23626D01*
X20138Y23641D01*
X20153Y23661D01*
X20163Y23684D01*
X20165Y23696D01*
D02*
G37*
G36*
X20057D02*
X19975D01*
X19977Y23684D01*
X19987Y23661D01*
X20002Y23641D01*
X20022Y23626D01*
X20045Y23616D01*
X20057Y23614D01*
Y23696D01*
D02*
G37*
G36*
X20567Y23706D02*
X20485D01*
X20487Y23694D01*
X20497Y23671D01*
X20512Y23651D01*
X20532Y23636D01*
X20555Y23626D01*
X20567Y23624D01*
Y23706D01*
D02*
G37*
G36*
X19547Y23696D02*
X19465D01*
X19467Y23684D01*
X19477Y23661D01*
X19492Y23641D01*
X19512Y23626D01*
X19535Y23616D01*
X19547Y23614D01*
Y23696D01*
D02*
G37*
G36*
X19037Y23686D02*
X18955D01*
X18957Y23674D01*
X18967Y23651D01*
X18982Y23631D01*
X19002Y23616D01*
X19025Y23606D01*
X19037Y23604D01*
Y23686D01*
D02*
G37*
G36*
X19655Y23696D02*
X19573D01*
Y23614D01*
X19585Y23616D01*
X19608Y23626D01*
X19628Y23641D01*
X19643Y23661D01*
X19653Y23684D01*
X19655Y23696D01*
D02*
G37*
G36*
X19145Y23686D02*
X19063D01*
Y23604D01*
X19075Y23606D01*
X19098Y23616D01*
X19118Y23631D01*
X19133Y23651D01*
X19143Y23674D01*
X19145Y23686D01*
D02*
G37*
G36*
X19073Y23486D02*
Y23404D01*
X19155D01*
X19153Y23416D01*
X19143Y23439D01*
X19128Y23459D01*
X19108Y23474D01*
X19085Y23484D01*
X19073Y23486D01*
D02*
G37*
G36*
X19047Y23486D02*
X19035Y23484D01*
X19012Y23474D01*
X18992Y23459D01*
X18977Y23439D01*
X18967Y23416D01*
X18965Y23404D01*
X19047D01*
Y23486D01*
D02*
G37*
G36*
X19573Y23804D02*
Y23722D01*
X19655D01*
X19653Y23734D01*
X19643Y23757D01*
X19628Y23777D01*
X19608Y23792D01*
X19585Y23802D01*
X19573Y23804D01*
D02*
G37*
G36*
X19547Y23804D02*
X19535Y23802D01*
X19512Y23792D01*
X19492Y23777D01*
X19477Y23757D01*
X19467Y23734D01*
X19465Y23722D01*
X19547D01*
Y23804D01*
D02*
G37*
G36*
X20567Y23814D02*
X20555Y23812D01*
X20532Y23802D01*
X20512Y23787D01*
X20497Y23767D01*
X20487Y23744D01*
X20485Y23732D01*
X20567D01*
Y23814D01*
D02*
G37*
G36*
X19063Y23794D02*
Y23712D01*
X19145D01*
X19143Y23724D01*
X19133Y23747D01*
X19118Y23767D01*
X19098Y23782D01*
X19075Y23792D01*
X19063Y23794D01*
D02*
G37*
G36*
X19037D02*
X19025Y23792D01*
X19002Y23782D01*
X18982Y23767D01*
X18967Y23747D01*
X18957Y23724D01*
X18955Y23712D01*
X19037D01*
Y23794D01*
D02*
G37*
G36*
X20083Y23804D02*
Y23722D01*
X20165D01*
X20163Y23734D01*
X20153Y23757D01*
X20138Y23777D01*
X20118Y23792D01*
X20095Y23802D01*
X20083Y23804D01*
D02*
G37*
G36*
X20057Y23804D02*
X20045Y23802D01*
X20022Y23792D01*
X20002Y23777D01*
X19987Y23757D01*
X19977Y23734D01*
X19975Y23722D01*
X20057D01*
Y23804D01*
D02*
G37*
G36*
X20597Y23486D02*
X20585Y23484D01*
X20562Y23474D01*
X20542Y23459D01*
X20527Y23439D01*
X20517Y23416D01*
X20515Y23404D01*
X20597D01*
Y23486D01*
D02*
G37*
G36*
X19685Y23368D02*
X19603D01*
Y23286D01*
X19615Y23288D01*
X19638Y23298D01*
X19658Y23313D01*
X19673Y23333D01*
X19683Y23356D01*
X19685Y23368D01*
D02*
G37*
G36*
X19047Y23378D02*
X18965D01*
X18967Y23366D01*
X18977Y23343D01*
X18992Y23323D01*
X19012Y23308D01*
X19035Y23298D01*
X19047Y23296D01*
Y23378D01*
D02*
G37*
G36*
X19577Y23368D02*
X19495D01*
X19497Y23356D01*
X19507Y23333D01*
X19522Y23313D01*
X19542Y23298D01*
X19565Y23288D01*
X19577Y23286D01*
Y23368D01*
D02*
G37*
G36*
X19603Y23476D02*
Y23394D01*
X19685D01*
X19683Y23406D01*
X19673Y23429D01*
X19658Y23449D01*
X19638Y23464D01*
X19615Y23474D01*
X19603Y23476D01*
D02*
G37*
G36*
X19577Y23476D02*
X19565Y23474D01*
X19542Y23464D01*
X19522Y23449D01*
X19507Y23429D01*
X19497Y23406D01*
X19495Y23394D01*
X19577D01*
Y23476D01*
D02*
G37*
G36*
X20103Y23486D02*
Y23404D01*
X20185D01*
X20183Y23416D01*
X20173Y23439D01*
X20158Y23459D01*
X20138Y23474D01*
X20115Y23484D01*
X20103Y23486D01*
D02*
G37*
G36*
X20077Y23486D02*
X20065Y23484D01*
X20042Y23474D01*
X20022Y23459D01*
X20007Y23439D01*
X19997Y23416D01*
X19995Y23404D01*
X20077D01*
Y23486D01*
D02*
G37*
G36*
X20185Y23378D02*
X20103D01*
Y23296D01*
X20115Y23298D01*
X20138Y23308D01*
X20158Y23323D01*
X20173Y23343D01*
X20183Y23366D01*
X20185Y23378D01*
D02*
G37*
G36*
X20597Y23378D02*
X20515D01*
X20517Y23366D01*
X20527Y23343D01*
X20542Y23323D01*
X20562Y23308D01*
X20585Y23298D01*
X20597Y23296D01*
Y23378D01*
D02*
G37*
G36*
X19155Y23378D02*
X19073D01*
Y23296D01*
X19085Y23298D01*
X19108Y23308D01*
X19128Y23323D01*
X19143Y23343D01*
X19153Y23366D01*
X19155Y23378D01*
D02*
G37*
G36*
X20077Y23378D02*
X19995D01*
X19997Y23366D01*
X20007Y23343D01*
X20022Y23323D01*
X20042Y23308D01*
X20065Y23298D01*
X20077Y23296D01*
Y23378D01*
D02*
G37*
G36*
X19077Y12796D02*
X18995D01*
X18997Y12784D01*
X19007Y12761D01*
X19022Y12741D01*
X19042Y12726D01*
X19065Y12716D01*
X19077Y12714D01*
Y12796D01*
D02*
G37*
G36*
X12987Y16538D02*
X12905D01*
X12907Y16526D01*
X12917Y16503D01*
X12932Y16483D01*
X12952Y16468D01*
X12975Y16458D01*
X12987Y16456D01*
Y16538D01*
D02*
G37*
G36*
X20617Y12796D02*
X20535D01*
X20537Y12784D01*
X20547Y12761D01*
X20562Y12741D01*
X20582Y12726D01*
X20605Y12716D01*
X20617Y12714D01*
Y12796D01*
D02*
G37*
G36*
X13605Y16548D02*
X13523D01*
Y16466D01*
X13535Y16468D01*
X13558Y16478D01*
X13578Y16493D01*
X13593Y16513D01*
X13603Y16536D01*
X13605Y16548D01*
D02*
G37*
G36*
X13497D02*
X13415D01*
X13417Y16536D01*
X13427Y16513D01*
X13442Y16493D01*
X13462Y16478D01*
X13485Y16468D01*
X13497Y16466D01*
Y16548D01*
D02*
G37*
G36*
X14115Y16558D02*
X14033D01*
Y16476D01*
X14045Y16478D01*
X14068Y16488D01*
X14088Y16503D01*
X14103Y16523D01*
X14113Y16546D01*
X14115Y16558D01*
D02*
G37*
G36*
X12477Y16538D02*
X12395D01*
X12397Y16526D01*
X12407Y16503D01*
X12422Y16483D01*
X12442Y16468D01*
X12465Y16458D01*
X12477Y16456D01*
Y16538D01*
D02*
G37*
G36*
X12585D02*
X12503D01*
Y16456D01*
X12515Y16458D01*
X12538Y16468D01*
X12558Y16483D01*
X12573Y16503D01*
X12583Y16526D01*
X12585Y16538D01*
D02*
G37*
G36*
X13095Y16538D02*
X13013D01*
Y16456D01*
X13025Y16458D01*
X13048Y16468D01*
X13068Y16483D01*
X13083Y16503D01*
X13093Y16526D01*
X13095Y16538D01*
D02*
G37*
G36*
X19185Y12796D02*
X19103D01*
Y12714D01*
X19115Y12716D01*
X19138Y12726D01*
X19158Y12741D01*
X19173Y12761D01*
X19183Y12784D01*
X19185Y12796D01*
D02*
G37*
G36*
X20205Y12796D02*
X20123D01*
Y12714D01*
X20135Y12716D01*
X20158Y12726D01*
X20178Y12741D01*
X20193Y12761D01*
X20203Y12784D01*
X20205Y12796D01*
D02*
G37*
G36*
X14007Y16558D02*
X13925D01*
X13927Y16546D01*
X13937Y16523D01*
X13952Y16503D01*
X13972Y16488D01*
X13995Y16478D01*
X14007Y16476D01*
Y16558D01*
D02*
G37*
G36*
X21630Y9956D02*
X21585Y9952D01*
X21542Y9942D01*
X21500Y9925D01*
X21462Y9901D01*
X21428Y9872D01*
X21399Y9838D01*
X21375Y9800D01*
X21358Y9758D01*
X21348Y9715D01*
X21344Y9670D01*
X21348Y9625D01*
X21358Y9582D01*
X21375Y9540D01*
X21399Y9502D01*
X21428Y9468D01*
X21462Y9439D01*
X21500Y9415D01*
X21542Y9398D01*
X21585Y9388D01*
X21630Y9384D01*
X21675Y9388D01*
X21718Y9398D01*
X21760Y9415D01*
X21798Y9439D01*
X21832Y9468D01*
X21861Y9502D01*
X21885Y9540D01*
X21902Y9582D01*
X21912Y9625D01*
X21916Y9670D01*
X21912Y9715D01*
X21902Y9758D01*
X21885Y9800D01*
X21861Y9838D01*
X21832Y9872D01*
X21798Y9901D01*
X21760Y9925D01*
X21718Y9942D01*
X21675Y9952D01*
X21630Y9956D01*
D02*
G37*
G36*
X13497Y16656D02*
X13485Y16654D01*
X13462Y16644D01*
X13442Y16629D01*
X13427Y16609D01*
X13417Y16586D01*
X13415Y16574D01*
X13497D01*
Y16656D01*
D02*
G37*
G36*
X12977Y9784D02*
X12965Y9782D01*
X12942Y9772D01*
X12922Y9757D01*
X12907Y9737D01*
X12897Y9714D01*
X12895Y9702D01*
X12977D01*
Y9784D01*
D02*
G37*
G36*
X12493Y9784D02*
Y9702D01*
X12575D01*
X12573Y9714D01*
X12563Y9737D01*
X12548Y9757D01*
X12528Y9772D01*
X12505Y9782D01*
X12493Y9784D01*
D02*
G37*
G36*
X12467Y9784D02*
X12455Y9782D01*
X12432Y9772D01*
X12412Y9757D01*
X12397Y9737D01*
X12387Y9714D01*
X12385Y9702D01*
X12467D01*
Y9784D01*
D02*
G37*
G36*
X20033Y12436D02*
Y12354D01*
X20115D01*
X20113Y12366D01*
X20103Y12389D01*
X20088Y12409D01*
X20068Y12424D01*
X20045Y12434D01*
X20033Y12436D01*
D02*
G37*
G36*
X14007Y16886D02*
X13925D01*
X13927Y16874D01*
X13937Y16851D01*
X13952Y16831D01*
X13972Y16816D01*
X13995Y16806D01*
X14007Y16804D01*
Y16886D01*
D02*
G37*
G36*
X14115D02*
X14033D01*
Y16804D01*
X14045Y16806D01*
X14068Y16816D01*
X14088Y16831D01*
X14103Y16851D01*
X14113Y16874D01*
X14115Y16886D01*
D02*
G37*
G36*
X13523Y16656D02*
Y16574D01*
X13605D01*
X13603Y16586D01*
X13593Y16609D01*
X13578Y16629D01*
X13558Y16644D01*
X13535Y16654D01*
X13523Y16656D01*
D02*
G37*
G36*
X14007Y16666D02*
X13995Y16664D01*
X13972Y16654D01*
X13952Y16639D01*
X13937Y16619D01*
X13927Y16596D01*
X13925Y16584D01*
X14007D01*
Y16666D01*
D02*
G37*
G36*
X14033Y16666D02*
Y16584D01*
X14115D01*
X14113Y16596D01*
X14103Y16619D01*
X14088Y16639D01*
X14068Y16654D01*
X14045Y16664D01*
X14033Y16666D01*
D02*
G37*
G36*
X13003Y9784D02*
Y9702D01*
X13085D01*
X13083Y9714D01*
X13073Y9737D01*
X13058Y9757D01*
X13038Y9772D01*
X13015Y9782D01*
X13003Y9784D01*
D02*
G37*
G36*
X12987Y16646D02*
X12975Y16644D01*
X12952Y16634D01*
X12932Y16619D01*
X12917Y16599D01*
X12907Y16576D01*
X12905Y16564D01*
X12987D01*
Y16646D01*
D02*
G37*
G36*
X13013Y16646D02*
Y16564D01*
X13095D01*
X13093Y16576D01*
X13083Y16599D01*
X13068Y16619D01*
X13048Y16634D01*
X13025Y16644D01*
X13013Y16646D01*
D02*
G37*
G36*
X19705Y12786D02*
X19623D01*
Y12704D01*
X19635Y12706D01*
X19658Y12716D01*
X19678Y12731D01*
X19693Y12751D01*
X19703Y12774D01*
X19705Y12786D01*
D02*
G37*
G36*
X20097Y12796D02*
X20015D01*
X20017Y12784D01*
X20027Y12761D01*
X20042Y12741D01*
X20062Y12726D01*
X20085Y12716D01*
X20097Y12714D01*
Y12796D01*
D02*
G37*
G36*
X12477Y16646D02*
X12465Y16644D01*
X12442Y16634D01*
X12422Y16619D01*
X12407Y16599D01*
X12397Y16576D01*
X12395Y16564D01*
X12477D01*
Y16646D01*
D02*
G37*
G36*
X12503Y16646D02*
Y16564D01*
X12585D01*
X12583Y16576D01*
X12573Y16599D01*
X12558Y16619D01*
X12538Y16634D01*
X12515Y16644D01*
X12503Y16646D01*
D02*
G37*
G36*
X13513Y9794D02*
Y9712D01*
X13595D01*
X13593Y9724D01*
X13583Y9747D01*
X13568Y9767D01*
X13548Y9782D01*
X13525Y9792D01*
X13513Y9794D01*
D02*
G37*
G36*
X13987Y9794D02*
X13975Y9792D01*
X13952Y9782D01*
X13932Y9767D01*
X13917Y9747D01*
X13907Y9724D01*
X13905Y9712D01*
X13987D01*
Y9794D01*
D02*
G37*
G36*
X13487D02*
X13475Y9792D01*
X13452Y9782D01*
X13432Y9767D01*
X13417Y9747D01*
X13407Y9724D01*
X13405Y9712D01*
X13487D01*
Y9794D01*
D02*
G37*
G36*
X19597Y12786D02*
X19515D01*
X19517Y12774D01*
X19527Y12751D01*
X19542Y12731D01*
X19562Y12716D01*
X19585Y12706D01*
X19597Y12704D01*
Y12786D01*
D02*
G37*
G36*
X20007Y12436D02*
X19995Y12434D01*
X19972Y12424D01*
X19952Y12409D01*
X19937Y12389D01*
X19927Y12366D01*
X19925Y12354D01*
X20007D01*
Y12436D01*
D02*
G37*
G36*
X14013Y9794D02*
Y9712D01*
X14095D01*
X14093Y9724D01*
X14083Y9747D01*
X14068Y9767D01*
X14048Y9782D01*
X14025Y9792D01*
X14013Y9794D01*
D02*
G37*
G36*
X20115Y12328D02*
X20033D01*
Y12246D01*
X20045Y12248D01*
X20068Y12258D01*
X20088Y12273D01*
X20103Y12293D01*
X20113Y12316D01*
X20115Y12328D01*
D02*
G37*
G36*
X13497Y13464D02*
X13485Y13462D01*
X13462Y13452D01*
X13442Y13437D01*
X13427Y13417D01*
X13417Y13394D01*
X13415Y13382D01*
X13497D01*
Y13464D01*
D02*
G37*
G36*
X13523Y13464D02*
Y13382D01*
X13605D01*
X13603Y13394D01*
X13593Y13417D01*
X13578Y13437D01*
X13558Y13452D01*
X13535Y13462D01*
X13523Y13464D01*
D02*
G37*
G36*
X13003Y13454D02*
Y13372D01*
X13085D01*
X13083Y13384D01*
X13073Y13407D01*
X13058Y13427D01*
X13038Y13442D01*
X13015Y13452D01*
X13003Y13454D01*
D02*
G37*
G36*
X12467D02*
X12455Y13452D01*
X12432Y13442D01*
X12412Y13427D01*
X12397Y13407D01*
X12387Y13384D01*
X12385Y13372D01*
X12467D01*
Y13454D01*
D02*
G37*
G36*
X12493Y13454D02*
Y13372D01*
X12575D01*
X12573Y13384D01*
X12563Y13407D01*
X12548Y13427D01*
X12528Y13442D01*
X12505Y13452D01*
X12493Y13454D01*
D02*
G37*
G36*
X18977Y12318D02*
X18895D01*
X18897Y12306D01*
X18907Y12283D01*
X18922Y12263D01*
X18942Y12248D01*
X18965Y12238D01*
X18977Y12236D01*
Y12318D01*
D02*
G37*
G36*
X13487Y13085D02*
X13475Y13083D01*
X13452Y13073D01*
X13432Y13058D01*
X13417Y13038D01*
X13407Y13015D01*
X13405Y13003D01*
X13487D01*
Y13085D01*
D02*
G37*
G36*
X12467D02*
X12455Y13083D01*
X12432Y13073D01*
X12412Y13058D01*
X12397Y13038D01*
X12387Y13015D01*
X12385Y13003D01*
X12467D01*
Y13085D01*
D02*
G37*
G36*
X19085Y12318D02*
X19003D01*
Y12236D01*
X19015Y12238D01*
X19038Y12248D01*
X19058Y12263D01*
X19073Y12283D01*
X19083Y12306D01*
X19085Y12318D01*
D02*
G37*
G36*
X19497Y12318D02*
X19415D01*
X19417Y12306D01*
X19427Y12283D01*
X19442Y12263D01*
X19462Y12248D01*
X19485Y12238D01*
X19497Y12236D01*
Y12318D01*
D02*
G37*
G36*
X19605D02*
X19523D01*
Y12236D01*
X19535Y12238D01*
X19558Y12248D01*
X19578Y12263D01*
X19593Y12283D01*
X19603Y12306D01*
X19605Y12318D01*
D02*
G37*
G36*
X12493Y13085D02*
Y13003D01*
X12575D01*
X12573Y13015D01*
X12563Y13038D01*
X12548Y13058D01*
X12528Y13073D01*
X12505Y13083D01*
X12493Y13085D01*
D02*
G37*
G36*
X12467Y13346D02*
X12385D01*
X12387Y13334D01*
X12397Y13311D01*
X12412Y13291D01*
X12432Y13276D01*
X12455Y13266D01*
X12467Y13264D01*
Y13346D01*
D02*
G37*
G36*
X13085Y13346D02*
X13003D01*
Y13264D01*
X13015Y13266D01*
X13038Y13276D01*
X13058Y13291D01*
X13073Y13311D01*
X13083Y13334D01*
X13085Y13346D01*
D02*
G37*
G36*
X13605Y13356D02*
X13523D01*
Y13274D01*
X13535Y13276D01*
X13558Y13286D01*
X13578Y13301D01*
X13593Y13321D01*
X13603Y13344D01*
X13605Y13356D01*
D02*
G37*
G36*
X19497Y12426D02*
X19485Y12424D01*
X19462Y12414D01*
X19442Y12399D01*
X19427Y12379D01*
X19417Y12356D01*
X19415Y12344D01*
X19497D01*
Y12426D01*
D02*
G37*
G36*
X12977Y13346D02*
X12895D01*
X12897Y13334D01*
X12907Y13311D01*
X12922Y13291D01*
X12942Y13276D01*
X12965Y13266D01*
X12977Y13264D01*
Y13346D01*
D02*
G37*
G36*
X12575Y13346D02*
X12493D01*
Y13264D01*
X12505Y13266D01*
X12528Y13276D01*
X12548Y13291D01*
X12563Y13311D01*
X12573Y13334D01*
X12575Y13346D01*
D02*
G37*
G36*
X13513Y13085D02*
Y13003D01*
X13595D01*
X13593Y13015D01*
X13583Y13038D01*
X13568Y13058D01*
X13548Y13073D01*
X13525Y13083D01*
X13513Y13085D01*
D02*
G37*
G36*
X12977Y13454D02*
X12965Y13452D01*
X12942Y13442D01*
X12922Y13427D01*
X12907Y13407D01*
X12897Y13384D01*
X12895Y13372D01*
X12977D01*
Y13454D01*
D02*
G37*
G36*
X20007Y12328D02*
X19925D01*
X19927Y12316D01*
X19937Y12293D01*
X19952Y12273D01*
X19972Y12258D01*
X19995Y12248D01*
X20007Y12246D01*
Y12328D01*
D02*
G37*
G36*
X13497Y13356D02*
X13415D01*
X13417Y13344D01*
X13427Y13321D01*
X13442Y13301D01*
X13462Y13286D01*
X13485Y13276D01*
X13497Y13274D01*
Y13356D01*
D02*
G37*
G36*
X14115Y13366D02*
X14033D01*
Y13284D01*
X14045Y13286D01*
X14068Y13296D01*
X14088Y13311D01*
X14103Y13331D01*
X14113Y13354D01*
X14115Y13366D01*
D02*
G37*
G36*
X14007D02*
X13925D01*
X13927Y13354D01*
X13937Y13331D01*
X13952Y13311D01*
X13972Y13296D01*
X13995Y13286D01*
X14007Y13284D01*
Y13366D01*
D02*
G37*
G36*
X14033Y13075D02*
Y12993D01*
X14115D01*
X14113Y13005D01*
X14103Y13028D01*
X14088Y13048D01*
X14068Y13063D01*
X14045Y13073D01*
X14033Y13075D01*
D02*
G37*
G36*
X19003Y12426D02*
Y12344D01*
X19085D01*
X19083Y12356D01*
X19073Y12379D01*
X19058Y12399D01*
X19038Y12414D01*
X19015Y12424D01*
X19003Y12426D01*
D02*
G37*
G36*
X14007Y12967D02*
X13925D01*
X13927Y12955D01*
X13937Y12932D01*
X13952Y12912D01*
X13972Y12897D01*
X13995Y12887D01*
X14007Y12885D01*
Y12967D01*
D02*
G37*
G36*
X12987D02*
X12905D01*
X12907Y12955D01*
X12917Y12932D01*
X12932Y12912D01*
X12952Y12897D01*
X12975Y12887D01*
X12987Y12885D01*
Y12967D01*
D02*
G37*
G36*
X20617Y12904D02*
X20605Y12902D01*
X20582Y12892D01*
X20562Y12877D01*
X20547Y12857D01*
X20537Y12834D01*
X20535Y12822D01*
X20617D01*
Y12904D01*
D02*
G37*
G36*
X13095Y12967D02*
X13013D01*
Y12885D01*
X13025Y12887D01*
X13048Y12897D01*
X13068Y12912D01*
X13083Y12932D01*
X13093Y12955D01*
X13095Y12967D01*
D02*
G37*
G36*
X13595Y12977D02*
X13513D01*
Y12895D01*
X13525Y12897D01*
X13548Y12907D01*
X13568Y12922D01*
X13583Y12942D01*
X13593Y12965D01*
X13595Y12977D01*
D02*
G37*
G36*
X12575D02*
X12493D01*
Y12895D01*
X12505Y12897D01*
X12528Y12907D01*
X12548Y12922D01*
X12563Y12942D01*
X12573Y12965D01*
X12575Y12977D01*
D02*
G37*
G36*
X13487D02*
X13405D01*
X13407Y12965D01*
X13417Y12942D01*
X13432Y12922D01*
X13452Y12907D01*
X13475Y12897D01*
X13487Y12895D01*
Y12977D01*
D02*
G37*
G36*
X13013Y13075D02*
Y12993D01*
X13095D01*
X13093Y13005D01*
X13083Y13028D01*
X13068Y13048D01*
X13048Y13063D01*
X13025Y13073D01*
X13013Y13075D01*
D02*
G37*
G36*
X14007D02*
X13995Y13073D01*
X13972Y13063D01*
X13952Y13048D01*
X13937Y13028D01*
X13927Y13005D01*
X13925Y12993D01*
X14007D01*
Y13075D01*
D02*
G37*
G36*
X12987D02*
X12975Y13073D01*
X12952Y13063D01*
X12932Y13048D01*
X12917Y13028D01*
X12907Y13005D01*
X12905Y12993D01*
X12987D01*
Y13075D01*
D02*
G37*
G36*
X19523Y12426D02*
Y12344D01*
X19605D01*
X19603Y12356D01*
X19593Y12379D01*
X19578Y12399D01*
X19558Y12414D01*
X19535Y12424D01*
X19523Y12426D01*
D02*
G37*
G36*
X18977D02*
X18965Y12424D01*
X18942Y12414D01*
X18922Y12399D01*
X18907Y12379D01*
X18897Y12356D01*
X18895Y12344D01*
X18977D01*
Y12426D01*
D02*
G37*
G36*
X14115Y12967D02*
X14033D01*
Y12885D01*
X14045Y12887D01*
X14068Y12897D01*
X14088Y12912D01*
X14103Y12932D01*
X14113Y12955D01*
X14115Y12967D01*
D02*
G37*
G36*
X14007Y13474D02*
X13995Y13472D01*
X13972Y13462D01*
X13952Y13447D01*
X13937Y13427D01*
X13927Y13404D01*
X13925Y13392D01*
X14007D01*
Y13474D01*
D02*
G37*
G36*
X14033Y13474D02*
Y13392D01*
X14115D01*
X14113Y13404D01*
X14103Y13427D01*
X14088Y13447D01*
X14068Y13462D01*
X14045Y13472D01*
X14033Y13474D01*
D02*
G37*
G36*
X12467Y12977D02*
X12385D01*
X12387Y12965D01*
X12397Y12942D01*
X12412Y12922D01*
X12432Y12907D01*
X12455Y12897D01*
X12467Y12895D01*
Y12977D01*
D02*
G37*
G36*
X12585Y16896D02*
X12503D01*
Y16814D01*
X12515Y16816D01*
X12538Y16826D01*
X12558Y16841D01*
X12573Y16861D01*
X12583Y16884D01*
X12585Y16896D01*
D02*
G37*
G36*
X13983Y23636D02*
Y23554D01*
X14065D01*
X14063Y23566D01*
X14053Y23589D01*
X14038Y23609D01*
X14018Y23624D01*
X13995Y23634D01*
X13983Y23636D01*
D02*
G37*
G36*
X13941Y23766D02*
X13859D01*
X13861Y23754D01*
X13871Y23731D01*
X13886Y23711D01*
X13906Y23696D01*
X13929Y23686D01*
X13941Y23684D01*
Y23766D01*
D02*
G37*
G36*
X13441D02*
X13359D01*
X13361Y23754D01*
X13371Y23731D01*
X13386Y23711D01*
X13406Y23696D01*
X13429Y23686D01*
X13441Y23684D01*
Y23766D01*
D02*
G37*
G36*
X14049D02*
X13967D01*
Y23684D01*
X13979Y23686D01*
X14002Y23696D01*
X14022Y23711D01*
X14037Y23731D01*
X14047Y23754D01*
X14049Y23766D01*
D02*
G37*
G36*
X13549D02*
X13467D01*
Y23684D01*
X13479Y23686D01*
X13502Y23696D01*
X13522Y23711D01*
X13537Y23731D01*
X13547Y23754D01*
X13549Y23766D01*
D02*
G37*
G36*
X13039Y23746D02*
X12957D01*
Y23664D01*
X12969Y23666D01*
X12992Y23676D01*
X13012Y23691D01*
X13027Y23711D01*
X13037Y23734D01*
X13039Y23746D01*
D02*
G37*
G36*
X12931D02*
X12849D01*
X12851Y23734D01*
X12861Y23711D01*
X12876Y23691D01*
X12896Y23676D01*
X12919Y23666D01*
X12931Y23664D01*
Y23746D01*
D02*
G37*
G36*
X12539Y23756D02*
X12457D01*
Y23674D01*
X12469Y23676D01*
X12492Y23686D01*
X12512Y23701D01*
X12527Y23721D01*
X12537Y23744D01*
X12539Y23756D01*
D02*
G37*
G36*
X12431D02*
X12349D01*
X12351Y23744D01*
X12361Y23721D01*
X12376Y23701D01*
X12396Y23686D01*
X12419Y23676D01*
X12431Y23674D01*
Y23756D01*
D02*
G37*
G36*
X13957Y23636D02*
X13945Y23634D01*
X13922Y23624D01*
X13902Y23609D01*
X13887Y23589D01*
X13877Y23566D01*
X13875Y23554D01*
X13957D01*
Y23636D01*
D02*
G37*
G36*
X13565Y23518D02*
X13483D01*
Y23436D01*
X13495Y23438D01*
X13518Y23448D01*
X13538Y23463D01*
X13553Y23483D01*
X13563Y23506D01*
X13565Y23518D01*
D02*
G37*
G36*
X13045D02*
X12963D01*
Y23436D01*
X12975Y23438D01*
X12998Y23448D01*
X13018Y23463D01*
X13033Y23483D01*
X13043Y23506D01*
X13045Y23518D01*
D02*
G37*
G36*
X13457D02*
X13375D01*
X13377Y23506D01*
X13387Y23483D01*
X13402Y23463D01*
X13422Y23448D01*
X13445Y23438D01*
X13457Y23436D01*
Y23518D01*
D02*
G37*
G36*
X12937D02*
X12855D01*
X12857Y23506D01*
X12867Y23483D01*
X12882Y23463D01*
X12902Y23448D01*
X12925Y23438D01*
X12937Y23436D01*
Y23518D01*
D02*
G37*
G36*
X12545Y23498D02*
X12463D01*
Y23416D01*
X12475Y23418D01*
X12498Y23428D01*
X12518Y23443D01*
X12533Y23463D01*
X12543Y23486D01*
X12545Y23498D01*
D02*
G37*
G36*
X12437D02*
X12355D01*
X12357Y23486D01*
X12367Y23463D01*
X12382Y23443D01*
X12402Y23428D01*
X12425Y23418D01*
X12437Y23416D01*
Y23498D01*
D02*
G37*
G36*
X13457Y23626D02*
X13445Y23624D01*
X13422Y23614D01*
X13402Y23599D01*
X13387Y23579D01*
X13377Y23556D01*
X13375Y23544D01*
X13457D01*
Y23626D01*
D02*
G37*
G36*
X12937D02*
X12925Y23624D01*
X12902Y23614D01*
X12882Y23599D01*
X12867Y23579D01*
X12857Y23556D01*
X12855Y23544D01*
X12937D01*
Y23626D01*
D02*
G37*
G36*
X13483Y23626D02*
Y23544D01*
X13565D01*
X13563Y23556D01*
X13553Y23579D01*
X13538Y23599D01*
X13518Y23614D01*
X13495Y23624D01*
X13483Y23626D01*
D02*
G37*
G36*
X12963D02*
Y23544D01*
X13045D01*
X13043Y23556D01*
X13033Y23579D01*
X13018Y23599D01*
X12998Y23614D01*
X12975Y23624D01*
X12963Y23626D01*
D02*
G37*
G36*
X13957Y23528D02*
X13875D01*
X13877Y23516D01*
X13887Y23493D01*
X13902Y23473D01*
X13922Y23458D01*
X13945Y23448D01*
X13957Y23446D01*
Y23528D01*
D02*
G37*
G36*
X14065D02*
X13983D01*
Y23446D01*
X13995Y23448D01*
X14018Y23458D01*
X14038Y23473D01*
X14053Y23493D01*
X14063Y23516D01*
X14065Y23528D01*
D02*
G37*
G36*
X12463Y23606D02*
Y23524D01*
X12545D01*
X12543Y23536D01*
X12533Y23559D01*
X12518Y23579D01*
X12498Y23594D01*
X12475Y23604D01*
X12463Y23606D01*
D02*
G37*
G36*
X12437D02*
X12425Y23604D01*
X12402Y23594D01*
X12382Y23579D01*
X12367Y23559D01*
X12357Y23536D01*
X12355Y23524D01*
X12437D01*
Y23606D01*
D02*
G37*
G36*
X12877Y27118D02*
X12795D01*
X12797Y27106D01*
X12807Y27083D01*
X12822Y27063D01*
X12842Y27048D01*
X12865Y27038D01*
X12877Y27036D01*
Y27118D01*
D02*
G37*
G36*
X13887Y27118D02*
X13805D01*
X13807Y27106D01*
X13817Y27083D01*
X13832Y27063D01*
X13852Y27048D01*
X13875Y27038D01*
X13887Y27036D01*
Y27118D01*
D02*
G37*
G36*
X13995D02*
X13913D01*
Y27036D01*
X13925Y27038D01*
X13948Y27048D01*
X13968Y27063D01*
X13983Y27083D01*
X13993Y27106D01*
X13995Y27118D01*
D02*
G37*
G36*
X12985Y27118D02*
X12903D01*
Y27036D01*
X12915Y27038D01*
X12938Y27048D01*
X12958Y27063D01*
X12973Y27083D01*
X12983Y27106D01*
X12985Y27118D01*
D02*
G37*
G36*
X12367Y27098D02*
X12285D01*
X12287Y27086D01*
X12297Y27063D01*
X12312Y27043D01*
X12332Y27028D01*
X12355Y27018D01*
X12367Y27016D01*
Y27098D01*
D02*
G37*
G36*
X12475D02*
X12393D01*
Y27016D01*
X12405Y27018D01*
X12428Y27028D01*
X12448Y27043D01*
X12463Y27063D01*
X12473Y27086D01*
X12475Y27098D01*
D02*
G37*
G36*
X13475Y27108D02*
X13393D01*
Y27026D01*
X13405Y27028D01*
X13428Y27038D01*
X13448Y27053D01*
X13463Y27073D01*
X13473Y27096D01*
X13475Y27108D01*
D02*
G37*
G36*
X13367D02*
X13285D01*
X13287Y27096D01*
X13297Y27073D01*
X13312Y27053D01*
X13332Y27038D01*
X13355Y27028D01*
X13367Y27026D01*
Y27108D01*
D02*
G37*
G36*
X12903Y27226D02*
Y27144D01*
X12985D01*
X12983Y27156D01*
X12973Y27179D01*
X12958Y27199D01*
X12938Y27214D01*
X12915Y27224D01*
X12903Y27226D01*
D02*
G37*
G36*
X12877D02*
X12865Y27224D01*
X12842Y27214D01*
X12822Y27199D01*
X12807Y27179D01*
X12797Y27156D01*
X12795Y27144D01*
X12877D01*
Y27226D01*
D02*
G37*
G36*
X13913Y27226D02*
Y27144D01*
X13995D01*
X13993Y27156D01*
X13983Y27179D01*
X13968Y27199D01*
X13948Y27214D01*
X13925Y27224D01*
X13913Y27226D01*
D02*
G37*
G36*
X13887Y27226D02*
X13875Y27224D01*
X13852Y27214D01*
X13832Y27199D01*
X13817Y27179D01*
X13807Y27156D01*
X13805Y27144D01*
X13887D01*
Y27226D01*
D02*
G37*
G36*
X12393Y27206D02*
Y27124D01*
X12475D01*
X12473Y27136D01*
X12463Y27159D01*
X12448Y27179D01*
X12428Y27194D01*
X12405Y27204D01*
X12393Y27206D01*
D02*
G37*
G36*
X12367Y27206D02*
X12355Y27204D01*
X12332Y27194D01*
X12312Y27179D01*
X12297Y27159D01*
X12287Y27136D01*
X12285Y27124D01*
X12367D01*
Y27206D01*
D02*
G37*
G36*
X13393Y27216D02*
Y27134D01*
X13475D01*
X13473Y27146D01*
X13463Y27169D01*
X13448Y27189D01*
X13428Y27204D01*
X13405Y27214D01*
X13393Y27216D01*
D02*
G37*
G36*
X13367D02*
X13355Y27214D01*
X13332Y27204D01*
X13312Y27189D01*
X13297Y27169D01*
X13287Y27146D01*
X13285Y27134D01*
X13367D01*
Y27216D01*
D02*
G37*
G36*
X21780Y27276D02*
X21735Y27272D01*
X21692Y27262D01*
X21650Y27245D01*
X21612Y27221D01*
X21578Y27192D01*
X21549Y27158D01*
X21525Y27120D01*
X21508Y27078D01*
X21498Y27035D01*
X21494Y26990D01*
X21498Y26945D01*
X21508Y26902D01*
X21525Y26860D01*
X21549Y26822D01*
X21578Y26788D01*
X21612Y26759D01*
X21650Y26735D01*
X21692Y26718D01*
X21735Y26708D01*
X21780Y26704D01*
X21825Y26708D01*
X21868Y26718D01*
X21910Y26735D01*
X21948Y26759D01*
X21982Y26788D01*
X22011Y26822D01*
X22035Y26860D01*
X22052Y26902D01*
X22062Y26945D01*
X22066Y26990D01*
X22062Y27035D01*
X22052Y27078D01*
X22035Y27120D01*
X22011Y27158D01*
X21982Y27192D01*
X21948Y27221D01*
X21910Y27245D01*
X21868Y27262D01*
X21825Y27272D01*
X21780Y27276D01*
D02*
G37*
G36*
X12931Y23854D02*
X12919Y23852D01*
X12896Y23842D01*
X12876Y23827D01*
X12861Y23807D01*
X12851Y23784D01*
X12849Y23772D01*
X12931D01*
Y23854D01*
D02*
G37*
G36*
X13467Y23874D02*
Y23792D01*
X13549D01*
X13547Y23804D01*
X13537Y23827D01*
X13522Y23847D01*
X13502Y23862D01*
X13479Y23872D01*
X13467Y23874D01*
D02*
G37*
G36*
X13941Y23874D02*
X13929Y23872D01*
X13906Y23862D01*
X13886Y23847D01*
X13871Y23827D01*
X13861Y23804D01*
X13859Y23792D01*
X13941D01*
Y23874D01*
D02*
G37*
G36*
X13967Y23874D02*
Y23792D01*
X14049D01*
X14047Y23804D01*
X14037Y23827D01*
X14022Y23847D01*
X14002Y23862D01*
X13979Y23872D01*
X13967Y23874D01*
D02*
G37*
G36*
X12431Y23864D02*
X12419Y23862D01*
X12396Y23852D01*
X12376Y23837D01*
X12361Y23817D01*
X12351Y23794D01*
X12349Y23782D01*
X12431D01*
Y23864D01*
D02*
G37*
G36*
X12957Y23854D02*
Y23772D01*
X13039D01*
X13037Y23784D01*
X13027Y23807D01*
X13012Y23827D01*
X12992Y23842D01*
X12969Y23852D01*
X12957Y23854D01*
D02*
G37*
G36*
X13441Y23874D02*
X13429Y23872D01*
X13406Y23862D01*
X13386Y23847D01*
X13371Y23827D01*
X13361Y23804D01*
X13359Y23792D01*
X13441D01*
Y23874D01*
D02*
G37*
G36*
X12457Y23864D02*
Y23782D01*
X12539D01*
X12537Y23794D01*
X12527Y23817D01*
X12512Y23837D01*
X12492Y23852D01*
X12469Y23862D01*
X12457Y23864D01*
D02*
G37*
G36*
X12427Y20018D02*
X12345D01*
X12347Y20006D01*
X12357Y19983D01*
X12372Y19963D01*
X12392Y19948D01*
X12415Y19938D01*
X12427Y19936D01*
Y20018D01*
D02*
G37*
G36*
X12535D02*
X12453D01*
Y19936D01*
X12465Y19938D01*
X12488Y19948D01*
X12508Y19963D01*
X12523Y19983D01*
X12533Y20006D01*
X12535Y20018D01*
D02*
G37*
G36*
X13545Y20028D02*
X13463D01*
Y19946D01*
X13475Y19948D01*
X13498Y19958D01*
X13518Y19973D01*
X13533Y19993D01*
X13543Y20016D01*
X13545Y20028D01*
D02*
G37*
G36*
X13045D02*
X12963D01*
Y19946D01*
X12975Y19948D01*
X12998Y19958D01*
X13018Y19973D01*
X13033Y19993D01*
X13043Y20016D01*
X13045Y20028D01*
D02*
G37*
G36*
X13437D02*
X13355D01*
X13357Y20016D01*
X13367Y19993D01*
X13382Y19973D01*
X13402Y19958D01*
X13425Y19948D01*
X13437Y19946D01*
Y20028D01*
D02*
G37*
G36*
X12937D02*
X12855D01*
X12857Y20016D01*
X12867Y19993D01*
X12882Y19973D01*
X12902Y19958D01*
X12925Y19948D01*
X12937Y19946D01*
Y20028D01*
D02*
G37*
G36*
X14075Y20038D02*
X13993D01*
Y19956D01*
X14005Y19958D01*
X14028Y19968D01*
X14048Y19983D01*
X14063Y20003D01*
X14073Y20026D01*
X14075Y20038D01*
D02*
G37*
G36*
X13967D02*
X13885D01*
X13887Y20026D01*
X13897Y20003D01*
X13912Y19983D01*
X13932Y19968D01*
X13955Y19958D01*
X13967Y19956D01*
Y20038D01*
D02*
G37*
G36*
X14007Y16994D02*
X13995Y16992D01*
X13972Y16982D01*
X13952Y16967D01*
X13937Y16947D01*
X13927Y16924D01*
X13925Y16912D01*
X14007D01*
Y16994D01*
D02*
G37*
G36*
X13095Y16906D02*
X13013D01*
Y16824D01*
X13025Y16826D01*
X13048Y16836D01*
X13068Y16851D01*
X13083Y16871D01*
X13093Y16894D01*
X13095Y16906D01*
D02*
G37*
G36*
X14033Y16994D02*
Y16912D01*
X14115D01*
X14113Y16924D01*
X14103Y16947D01*
X14088Y16967D01*
X14068Y16982D01*
X14045Y16992D01*
X14033Y16994D01*
D02*
G37*
G36*
X12477Y16896D02*
X12395D01*
X12397Y16884D01*
X12407Y16861D01*
X12422Y16841D01*
X12442Y16826D01*
X12465Y16816D01*
X12477Y16814D01*
Y16896D01*
D02*
G37*
G36*
X13605D02*
X13523D01*
Y16814D01*
X13535Y16816D01*
X13558Y16826D01*
X13578Y16841D01*
X13593Y16861D01*
X13603Y16884D01*
X13605Y16896D01*
D02*
G37*
G36*
X12987Y16906D02*
X12905D01*
X12907Y16894D01*
X12917Y16871D01*
X12932Y16851D01*
X12952Y16836D01*
X12975Y16826D01*
X12987Y16824D01*
Y16906D01*
D02*
G37*
G36*
X13497Y16896D02*
X13415D01*
X13417Y16884D01*
X13427Y16861D01*
X13442Y16841D01*
X13462Y16826D01*
X13485Y16816D01*
X13497Y16814D01*
Y16896D01*
D02*
G37*
G36*
X13983Y20384D02*
Y20302D01*
X14065D01*
X14063Y20314D01*
X14053Y20337D01*
X14038Y20357D01*
X14018Y20372D01*
X13995Y20382D01*
X13983Y20384D01*
D02*
G37*
G36*
X12937Y20276D02*
X12855D01*
X12857Y20264D01*
X12867Y20241D01*
X12882Y20221D01*
X12902Y20206D01*
X12925Y20196D01*
X12937Y20194D01*
Y20276D01*
D02*
G37*
G36*
X12417D02*
X12335D01*
X12337Y20264D01*
X12347Y20241D01*
X12362Y20221D01*
X12382Y20206D01*
X12405Y20196D01*
X12417Y20194D01*
Y20276D01*
D02*
G37*
G36*
X13957Y20384D02*
X13945Y20382D01*
X13922Y20372D01*
X13902Y20357D01*
X13887Y20337D01*
X13877Y20314D01*
X13875Y20302D01*
X13957D01*
Y20384D01*
D02*
G37*
G36*
Y20276D02*
X13875D01*
X13877Y20264D01*
X13887Y20241D01*
X13902Y20221D01*
X13922Y20206D01*
X13945Y20196D01*
X13957Y20194D01*
Y20276D01*
D02*
G37*
G36*
X14065D02*
X13983D01*
Y20194D01*
X13995Y20196D01*
X14018Y20206D01*
X14038Y20221D01*
X14053Y20241D01*
X14063Y20264D01*
X14065Y20276D01*
D02*
G37*
G36*
X12937Y20136D02*
X12925Y20134D01*
X12902Y20124D01*
X12882Y20109D01*
X12867Y20089D01*
X12857Y20066D01*
X12855Y20054D01*
X12937D01*
Y20136D01*
D02*
G37*
G36*
X12453Y20126D02*
Y20044D01*
X12535D01*
X12533Y20056D01*
X12523Y20079D01*
X12508Y20099D01*
X12488Y20114D01*
X12465Y20124D01*
X12453Y20126D01*
D02*
G37*
G36*
X12963Y20136D02*
Y20054D01*
X13045D01*
X13043Y20066D01*
X13033Y20089D01*
X13018Y20109D01*
X12998Y20124D01*
X12975Y20134D01*
X12963Y20136D01*
D02*
G37*
G36*
X13437Y20136D02*
X13425Y20134D01*
X13402Y20124D01*
X13382Y20109D01*
X13367Y20089D01*
X13357Y20066D01*
X13355Y20054D01*
X13437D01*
Y20136D01*
D02*
G37*
G36*
X12427Y20126D02*
X12415Y20124D01*
X12392Y20114D01*
X12372Y20099D01*
X12357Y20079D01*
X12347Y20056D01*
X12345Y20044D01*
X12427D01*
Y20126D01*
D02*
G37*
G36*
X13555Y20266D02*
X13473D01*
Y20184D01*
X13485Y20186D01*
X13508Y20196D01*
X13528Y20211D01*
X13543Y20231D01*
X13553Y20254D01*
X13555Y20266D01*
D02*
G37*
G36*
X13447D02*
X13365D01*
X13367Y20254D01*
X13377Y20231D01*
X13392Y20211D01*
X13412Y20196D01*
X13435Y20186D01*
X13447Y20184D01*
Y20266D01*
D02*
G37*
G36*
X13045Y20276D02*
X12963D01*
Y20194D01*
X12975Y20196D01*
X12998Y20206D01*
X13018Y20221D01*
X13033Y20241D01*
X13043Y20264D01*
X13045Y20276D01*
D02*
G37*
G36*
X12525D02*
X12443D01*
Y20194D01*
X12455Y20196D01*
X12478Y20206D01*
X12498Y20221D01*
X12513Y20241D01*
X12523Y20264D01*
X12525Y20276D01*
D02*
G37*
G36*
X13967Y20146D02*
X13955Y20144D01*
X13932Y20134D01*
X13912Y20119D01*
X13897Y20099D01*
X13887Y20076D01*
X13885Y20064D01*
X13967D01*
Y20146D01*
D02*
G37*
G36*
X13463Y20136D02*
Y20054D01*
X13545D01*
X13543Y20066D01*
X13533Y20089D01*
X13518Y20109D01*
X13498Y20124D01*
X13475Y20134D01*
X13463Y20136D01*
D02*
G37*
G36*
X13993Y20146D02*
Y20064D01*
X14075D01*
X14073Y20076D01*
X14063Y20099D01*
X14048Y20119D01*
X14028Y20134D01*
X14005Y20144D01*
X13993Y20146D01*
D02*
G37*
%LPD*%
D10*
X2840Y19480D02*
Y23400D01*
X9870Y26770D02*
Y26849D01*
X9490Y26770D02*
Y26960D01*
X9000Y12660D02*
X9010Y12670D01*
X16640Y12471D02*
Y12490D01*
X16429Y12260D02*
X16640Y12471D01*
X16260Y12260D02*
X16429D01*
X16140Y12380D02*
X16260Y12260D01*
X16140Y12380D02*
Y12490D01*
X20060Y26991D02*
X20070Y26981D01*
X19540D02*
X19550Y26991D01*
X19030D02*
X19040Y26981D01*
X2389Y18649D02*
X2840Y19100D01*
X9020Y12660D02*
Y13030D01*
X9530D01*
Y12670D02*
Y13030D01*
X9520Y12660D02*
X9530Y12670D01*
X9270Y12490D02*
Y12660D01*
Y12490D02*
X9290Y12470D01*
X9599D01*
X9770Y12641D01*
Y12660D01*
Y13020D01*
X9970Y16420D02*
Y16600D01*
X9940Y16390D02*
X9970Y16420D01*
X9440Y16371D02*
Y16390D01*
X9190D02*
Y16550D01*
X9220Y16580D01*
X9519D01*
X9690Y16409D01*
Y16390D02*
Y16409D01*
X9010Y12670D02*
X9020Y12660D01*
X7990D02*
X9000D01*
X7990Y9760D02*
Y12660D01*
Y9760D02*
X8200Y9550D01*
X2050Y18649D02*
X2389D01*
X7990Y16390D02*
X9190D01*
X9440Y16371D02*
X9611Y16200D01*
X9940D01*
Y16390D01*
X7990Y26800D02*
X9400D01*
X9430Y26770D01*
X9490D01*
Y26960D02*
X9759D01*
X9870Y26849D01*
Y26770D02*
X9930D01*
X8000Y23200D02*
X9330D01*
X7990Y23190D02*
X8000Y23200D01*
X7990Y23190D02*
Y26800D01*
X9330Y23200D02*
Y23450D01*
X9830D01*
X9830Y23450D01*
Y23200D02*
Y23450D01*
X8000Y19790D02*
X9330D01*
X7990Y19800D02*
X8000Y19790D01*
X7990Y19800D02*
Y23190D01*
X9330Y19790D02*
Y19990D01*
X9810D01*
X9830Y19970D01*
Y19790D02*
Y19970D01*
X14840Y26660D02*
X15980D01*
X16040Y26600D01*
Y26820D01*
X16530D01*
X16540Y26810D01*
Y26600D02*
Y26810D01*
X14840Y23180D02*
X15820D01*
X14840D02*
Y26660D01*
X15820Y23180D02*
Y23400D01*
X16310D01*
X16320Y23390D01*
Y23180D02*
Y23390D01*
X14850Y19650D02*
X15850D01*
X14840Y19640D02*
X14850Y19650D01*
X14840Y19640D02*
Y23180D01*
X15850Y19650D02*
Y19880D01*
X16350D01*
Y19650D02*
Y19880D01*
Y19650D02*
X16350Y19650D01*
X14840Y16050D02*
X15900D01*
X14840Y16050D02*
X14840Y16050D01*
X14840Y16050D02*
Y19640D01*
X15900Y16050D02*
Y16300D01*
X16400D01*
Y16050D02*
Y16300D01*
X14840Y12490D02*
X15890D01*
X14840Y12490D02*
X14840Y12490D01*
X14840Y10720D02*
Y12490D01*
Y16050D01*
X15890Y12490D02*
Y12720D01*
X16400D01*
Y12500D02*
Y12720D01*
X16390Y12490D02*
X16400Y12500D01*
X10120Y19830D02*
Y19990D01*
X10080Y19790D02*
X10120Y19830D01*
X10080Y19575D02*
Y19790D01*
X9575Y19575D02*
X10080D01*
X9575D02*
Y19785D01*
X9580Y19790D01*
X10080Y23200D02*
Y23500D01*
Y23200D02*
X10080Y23200D01*
Y23040D02*
Y23200D01*
X10010Y22970D02*
X10080Y23040D01*
X9580Y22970D02*
X10010D01*
X9580Y23200D02*
X9580Y23200D01*
X7990Y16390D02*
Y19800D01*
X10180Y26690D02*
Y26770D01*
X10025Y26535D02*
X10180Y26690D01*
X9690Y26535D02*
X10025D01*
X9690D02*
Y26760D01*
X9680Y26770D02*
X9690Y26760D01*
X3010Y14930D02*
X7990D01*
X3010D02*
Y18340D01*
X2955Y18395D02*
X3010Y18340D01*
X2050Y18395D02*
X2955D01*
X7990Y12660D02*
Y14930D01*
Y16390D01*
X9580Y22970D02*
Y23200D01*
X3680Y19480D02*
X3860Y19660D01*
X2840Y19480D02*
X3680D01*
X2840Y19100D02*
Y19480D01*
X16800Y26610D02*
Y26960D01*
X16790Y26600D02*
X16800Y26610D01*
X16790Y26390D02*
Y26600D01*
X16280Y26390D02*
X16790D01*
X16280D02*
X16290Y26400D01*
Y26600D01*
X16570Y23180D02*
Y23400D01*
Y23180D02*
X16570Y23180D01*
Y22980D02*
Y23180D01*
X16070Y22980D02*
X16570D01*
X16070D02*
Y23180D01*
X16070Y23180D01*
X16600Y19650D02*
Y19930D01*
Y19650D02*
X16600Y19650D01*
Y19453D02*
Y19650D01*
X16097Y19453D02*
X16600D01*
X16097D02*
Y19647D01*
X16100Y19650D01*
X16650Y16050D02*
Y16420D01*
Y16050D02*
X16650Y16050D01*
Y15820D02*
Y16050D01*
X16160Y15820D02*
X16650D01*
X16150Y15830D02*
X16160Y15820D01*
X16150Y15830D02*
Y16050D01*
X16650Y12500D02*
Y12770D01*
X16640Y12490D02*
X16650Y12500D01*
X10170Y26780D02*
X10180Y26770D01*
X10170Y26780D02*
Y26980D01*
X2870Y23400D02*
X3124D01*
Y24680D01*
Y25830D01*
X2870D02*
X3124D01*
X2870Y24680D02*
X3124D01*
D11*
X6130Y26910D02*
X6420Y27200D01*
X6130Y19522D02*
Y26910D01*
Y19522D02*
X6876Y18776D01*
X13096Y25350D02*
X13646Y25900D01*
X10440Y25350D02*
X13096D01*
X12490Y15394D02*
X12494Y15390D01*
X13000Y15394D02*
X13004Y15390D01*
X13510Y15394D02*
X13514Y15390D01*
X14020Y15394D02*
X14024Y15390D01*
X12480Y14516D02*
X12484Y14520D01*
X12990Y14516D02*
X12994Y14520D01*
X13504D02*
X13510Y14514D01*
X14014Y14520D02*
X14020Y14514D01*
X11770Y15860D02*
X12240Y15390D01*
X8690Y15610D02*
X11710D01*
X12220Y15100D01*
X12460D01*
X12750Y15390D01*
X8690Y15360D02*
X11833D01*
X12183Y15010D01*
X12880D01*
X13260Y15390D01*
X8690Y15110D02*
X11955D01*
X12145Y14920D01*
X13300D01*
X13770Y15390D01*
X8690Y14110D02*
X8950D01*
X9290Y13770D01*
X13480D01*
X13760Y14050D01*
Y14520D01*
X8690Y14360D02*
X9000D01*
X9490Y13870D01*
X13080D01*
X13250Y14040D01*
Y14520D01*
X8690Y14610D02*
X9100D01*
X9750Y13960D01*
X12580D01*
X12740Y14120D01*
Y14520D01*
X8690Y14860D02*
X11890D01*
X12230Y14520D01*
X11890Y12130D02*
X12230Y11790D01*
X8520Y11880D02*
X11750D01*
X12090Y11540D01*
X12620D01*
X12740Y11660D01*
Y11790D01*
X8520Y11630D02*
X11470D01*
X11860Y11240D01*
X12700D01*
X13250Y11790D01*
X8520Y11380D02*
X11593D01*
X11823Y11150D01*
X13120D01*
X13760Y11790D01*
X8520Y10380D02*
X10233D01*
X10633Y9980D01*
X13600D01*
X13750Y10130D01*
Y10900D01*
X8520Y10630D02*
X10130D01*
X10690Y10070D01*
X13070D01*
X13240Y10240D01*
Y10900D01*
X8520Y10880D02*
X10330D01*
X11050Y10160D01*
X12570D01*
X12730Y10320D01*
Y10900D01*
X8520Y11130D02*
X10590D01*
X10820Y10900D01*
X12220D01*
X12480Y12228D02*
X12484Y12224D01*
X12994Y12212D02*
X13000Y12218D01*
X13500Y12228D02*
X13504Y12224D01*
X14014Y12212D02*
X14020Y12218D01*
X12474Y10900D02*
X12480Y10894D01*
X12984Y10900D02*
X12990Y10894D01*
X13494Y10900D02*
X13500Y10894D01*
X14000Y10896D02*
X14004Y10900D01*
X15540Y26070D02*
X18430D01*
X18780Y25720D01*
X15540Y25820D02*
X18230D01*
X18570Y25480D01*
X19050D01*
X19290Y25720D01*
X15540Y25570D02*
X18190D01*
X18480Y25280D01*
X19360D01*
X19800Y25720D01*
X15540Y25320D02*
X18313D01*
X18443Y25190D01*
X19780D01*
X20310Y25720D01*
X15540Y25070D02*
X18654D01*
X18784Y24940D01*
X20080Y23970D02*
X20320Y24210D01*
Y24940D01*
X15540Y24570D02*
X16220D01*
X16730Y24060D01*
X19470D01*
X19810Y24400D01*
Y24940D01*
X15540Y24820D02*
X16280D01*
X16950Y24150D01*
X19120D01*
X19280Y24310D01*
Y24920D01*
X19300Y24940D01*
X19030Y26229D02*
X19034Y26225D01*
X19540Y26219D02*
X19544Y26215D01*
X20054Y26223D02*
X20060Y26229D01*
X20564Y26213D02*
X20570Y26219D01*
X19038Y24940D02*
X19050Y24928D01*
X19554Y24940D02*
X19560Y24934D01*
X20064Y24940D02*
X20070Y24934D01*
X20574Y24940D02*
X20580Y24934D01*
X19060Y22629D02*
X19078Y22611D01*
X19590Y22619D02*
X19594Y22615D01*
X20090Y22629D02*
X20104Y22615D01*
X20610Y22629D02*
X20614Y22625D01*
X20594Y21440D02*
X20610Y21424D01*
X20084Y21440D02*
X20090Y21434D01*
X19574Y21440D02*
X19590Y21424D01*
X19064Y21440D02*
X19070Y21434D01*
X15320Y22650D02*
X18364D01*
X18824Y22190D01*
X15320Y22400D02*
X18200D01*
X18650Y21950D01*
X19100D01*
X19340Y22190D01*
X15320Y22150D02*
X18323D01*
X18613Y21860D01*
X19497D01*
X19759Y22122D01*
Y22150D01*
X19810D01*
X19850Y22190D01*
X15320Y21900D02*
X18445D01*
X18575Y21770D01*
X19940D01*
X20360Y22190D01*
X15320Y21650D02*
X18600D01*
X18810Y21440D01*
X17070Y20900D02*
X17610Y20360D01*
X20150D01*
X20340Y20550D01*
Y21440D01*
X15320Y21150D02*
X17200D01*
X17900Y20450D01*
X19660D01*
X19830Y20620D01*
Y21440D01*
X15320Y21400D02*
X17110D01*
X17950Y20560D01*
X19040D01*
X19320Y20840D01*
Y21440D01*
X15350Y19120D02*
X18120D01*
X18820Y18420D01*
X15350Y18870D02*
X18243D01*
X18630Y18300D02*
X18675Y18255D01*
X19142D01*
X19307Y18420D01*
X19330D01*
X18243Y18870D02*
X18630Y18483D01*
Y18300D02*
Y18483D01*
X15350Y18620D02*
X17840D01*
X18310Y18150D01*
X19570D01*
X19840Y18420D01*
X15350Y18370D02*
X17963D01*
X18273Y18060D01*
X19990D01*
X20350Y18420D01*
X15350Y18120D02*
X17820D01*
X18200Y17740D01*
X18830D01*
X15350Y17370D02*
X17160D01*
X17900Y16630D01*
X20150D01*
X20360Y16840D01*
Y17740D01*
X15350Y17620D02*
X17190D01*
X18060Y16750D01*
X19730D01*
X19850Y16870D01*
Y17740D01*
X15350Y17870D02*
X17260D01*
X18220Y16910D01*
X19160D01*
X19340Y17090D01*
Y17740D01*
X19074Y18933D02*
X19080Y18939D01*
X19584Y18923D02*
X19590Y18929D01*
X20094Y18933D02*
X20100Y18939D01*
X20604Y18943D02*
X20610Y18949D01*
X19084Y17740D02*
X19090Y17734D01*
X19590Y17736D02*
X19594Y17740D01*
X20104D02*
X20110Y17734D01*
X20610Y17736D02*
X20614Y17740D01*
X15400Y15520D02*
X18150D01*
X18820Y14850D01*
X15400Y15270D02*
X17800D01*
X18450Y14620D01*
X19100D01*
X19330Y14850D01*
X15400Y15020D02*
X17923D01*
X18413Y14530D01*
X19520D01*
X19840Y14850D01*
X15400Y14770D02*
X18045D01*
X18375Y14440D01*
X19940D01*
X20350Y14850D01*
X15400Y14520D02*
X17940D01*
X18330Y14130D01*
X18840D01*
X15400Y13770D02*
X17350D01*
X18110Y13010D01*
X20120D01*
X20370Y13260D01*
Y14130D01*
X15400Y14020D02*
X17370D01*
X18270Y13120D01*
X19670D01*
X19860Y13310D01*
Y14130D01*
X15400Y14270D02*
X17330D01*
X18390Y13210D01*
X19160D01*
X19350Y13400D01*
Y14130D01*
X19074Y14850D02*
X19080Y14856D01*
X19584Y14850D02*
X19590Y14856D01*
X20090Y14854D02*
X20094Y14850D01*
X20624Y14130D02*
X20630Y14124D01*
X20110Y14126D02*
X20114Y14130D01*
X19604D02*
X19610Y14124D01*
X19090Y14126D02*
X19094Y14130D01*
X15390Y11460D02*
X15920D01*
X16970Y10410D01*
X19080D01*
X19760Y11090D01*
X15390Y11710D02*
X15890D01*
X17100Y10500D01*
X18660D01*
X19250Y11090D01*
X15390Y11960D02*
X17870D01*
X18740Y11090D01*
X20604Y15283D02*
X20620Y15299D01*
X8930Y26240D02*
X11766D01*
X12116Y25890D01*
X8930Y25990D02*
X11540D01*
X11880Y25650D01*
X12386D01*
X12626Y25890D01*
X8930Y25740D02*
X11663D01*
X11843Y25560D01*
X12810D01*
X13140Y25890D01*
X8930Y25490D02*
X10300D01*
X10440Y25350D01*
X8930Y25240D02*
X12040D01*
X12160Y25120D01*
X8930Y24490D02*
X10890D01*
X11280Y24100D01*
X13420D01*
X13690Y24370D01*
Y25110D01*
X8930Y24740D02*
X11030D01*
X11580Y24190D01*
X13040D01*
X13180Y24330D01*
Y25110D01*
X8930Y24990D02*
X11140D01*
X11850Y24280D01*
X12500D01*
X12670Y24450D01*
Y25110D01*
X8830Y22670D02*
X11756D01*
X12186Y22240D01*
X8830Y22420D02*
X11660D01*
X12005Y22075D01*
X12535D01*
X12700Y22240D01*
X8830Y22170D02*
X11783D01*
X11968Y21985D01*
X12932D01*
X13187Y22240D01*
X13210D01*
X8830Y21920D02*
X11470D01*
X11600Y21790D01*
X13270D01*
X13720Y22240D01*
X8830Y21670D02*
X12100D01*
X12180Y21590D01*
X8830Y20920D02*
X10660D01*
X11110Y20470D01*
X13380D01*
X13710Y20800D01*
Y21590D01*
X8830Y21170D02*
X10740D01*
X11330Y20580D01*
X13060D01*
X13200Y20720D01*
Y21590D01*
X8830Y21420D02*
X10820D01*
X11550Y20690D01*
X12590D01*
X12690Y20790D01*
Y21590D01*
X8830Y19260D02*
X11680D01*
X12200Y18740D01*
X8830Y19010D02*
X11520D01*
X11970Y18560D01*
X12530D01*
X12710Y18740D01*
X8830Y18760D02*
X11643D01*
X11933Y18470D01*
X12950D01*
X13220Y18740D01*
X8830Y18510D02*
X11765D01*
X11895Y18380D01*
X13370D01*
X13730Y18740D01*
X8830Y18260D02*
X12146D01*
X12216Y18190D01*
X13500Y17090D02*
X13746Y17336D01*
Y18190D01*
X13030Y17180D02*
X13236Y17386D01*
Y18190D01*
X12560Y17270D02*
X12726Y17436D01*
Y18190D01*
X2610Y24684D02*
Y25830D01*
Y24684D02*
X2614Y24680D01*
Y23400D02*
Y24680D01*
Y21499D02*
Y23400D01*
X2356Y24684D02*
Y25830D01*
Y24684D02*
X2360Y24680D01*
Y23400D02*
Y24680D01*
Y22160D02*
Y23400D01*
X1540Y21340D02*
X2360Y22160D01*
X1540Y21191D02*
Y21340D01*
Y21191D02*
X2050Y20681D01*
X10930Y23300D02*
Y23970D01*
X10830Y23200D02*
X10930Y23300D01*
X10830Y19790D02*
Y20400D01*
Y16530D02*
Y16990D01*
X10690Y16390D02*
X10830Y16530D01*
X10690Y12830D02*
Y13590D01*
X10520Y12660D02*
X10690Y12830D01*
X17540Y23400D02*
Y23800D01*
X17320Y23180D02*
X17540Y23400D01*
X17320Y19680D02*
Y20380D01*
Y19680D02*
X17350Y19650D01*
Y16100D02*
Y16850D01*
Y16100D02*
X17400Y16050D01*
X17390Y12490D02*
X17400Y12500D01*
Y13250D01*
X17140Y12490D02*
Y13027D01*
X15457D02*
X17140D01*
X15457D02*
Y13480D01*
X15235Y13702D02*
X15457Y13480D01*
X15235Y13702D02*
Y15622D01*
X17150Y15810D02*
Y16050D01*
X16890Y12490D02*
Y12927D01*
X16880Y12937D02*
X16890Y12927D01*
X15419Y12937D02*
X16880D01*
X15367Y12989D02*
X15419Y12937D01*
X15367Y12989D02*
Y13443D01*
X15145Y13664D02*
X15367Y13443D01*
X15145Y13664D02*
Y15659D01*
X16900Y15890D02*
Y16050D01*
X17150D02*
Y16667D01*
X15800D02*
X17150D01*
X15185Y17282D02*
X15800Y16667D01*
X15185Y17282D02*
Y19188D01*
X17100Y19380D02*
Y19650D01*
X16900Y16050D02*
Y16567D01*
X16890Y16577D02*
X16900Y16567D01*
X15763Y16577D02*
X16890D01*
X15095Y17244D02*
X15763Y16577D01*
X15095Y17244D02*
Y19226D01*
X16850Y19473D02*
Y19650D01*
X15320Y20900D02*
X17070D01*
X17100Y19650D02*
Y20177D01*
X17062Y20215D02*
X17100Y20177D01*
X15752Y20215D02*
X17062D01*
X15155Y20812D02*
X15752Y20215D01*
X15155Y20812D02*
Y22718D01*
X17070Y22970D02*
Y23180D01*
X16850Y19650D02*
Y20030D01*
X16755Y20125D02*
X16850Y20030D01*
X15714Y20125D02*
X16755D01*
X15065Y20774D02*
X15714Y20125D01*
X15065Y20774D02*
Y22756D01*
X16820Y23003D02*
Y23180D01*
X17070D02*
Y23597D01*
X15540Y24320D02*
X16130D01*
X16480Y23970D01*
X20080D01*
X17032Y23635D02*
X17070Y23597D01*
X15972Y23635D02*
X17032D01*
X15375Y24232D02*
X15972Y23635D01*
X15375Y24232D02*
Y26138D01*
X15472Y26235D01*
X15608D01*
X17290Y26390D02*
Y26600D01*
X16820Y23180D02*
Y23545D01*
X16820Y23545D02*
X16820Y23545D01*
X15934Y23545D02*
X16820D01*
X15285Y24194D02*
X15934Y23545D01*
X15285Y24194D02*
Y26176D01*
X17040Y26420D02*
Y26600D01*
X10270Y12660D02*
Y13390D01*
X8525Y14022D02*
X9157Y13390D01*
X10440Y16120D02*
Y16390D01*
X10020Y12660D02*
Y13290D01*
X10010Y13300D02*
X10020Y13290D01*
X8435Y13984D02*
X9119Y13300D01*
X10520Y9510D02*
Y9860D01*
Y9510D02*
X20650D01*
X8355Y12198D02*
X8452Y12295D01*
X8355Y10292D02*
Y12198D01*
X10483Y9420D02*
X20687D01*
X17307Y26600D02*
X17472Y26765D01*
X17290Y26600D02*
X17307D01*
X10270Y12340D02*
Y12660D01*
X8520Y12130D02*
X11890D01*
X10208Y9695D02*
X10483Y9420D01*
X8355Y10292D02*
X8952Y9695D01*
X10208D01*
X8265Y10254D02*
Y12236D01*
Y10254D02*
X8914Y9605D01*
X10170D01*
X10455Y9320D01*
X20715D01*
X19438Y26765D02*
X19447Y26756D01*
X17472Y26765D02*
X19438D01*
X19447Y26756D02*
X20641D01*
X17540Y26600D02*
X20670D01*
X17295Y26855D02*
X19475D01*
X17040Y26600D02*
X17295Y26855D01*
X10440Y16390D02*
Y16760D01*
X10375Y16825D02*
X10440Y16760D01*
X9262Y16825D02*
X10375D01*
X8830Y18010D02*
X10420D01*
X8830Y17760D02*
X10487D01*
X8830Y17510D02*
X10610D01*
X10420Y18010D02*
X11160Y17270D01*
X12560D01*
X10487Y17760D02*
X11067Y17180D01*
X13030D01*
X10610Y17510D02*
X11030Y17090D01*
X13500D01*
X10580Y19520D02*
Y19790D01*
X10190Y16390D02*
Y16715D01*
X10170Y16735D02*
X10190Y16715D01*
X8665Y17422D02*
Y19328D01*
X9224Y16735D02*
X10170D01*
X8575Y17384D02*
X9224Y16735D01*
X8665Y17422D02*
X9262Y16825D01*
X8575Y17384D02*
Y19366D01*
X10330Y19620D02*
Y19790D01*
X10580D02*
Y20225D01*
X8665Y20832D02*
Y22738D01*
X10580Y22990D02*
Y23200D01*
X10330Y19790D02*
Y20120D01*
X8575Y20794D02*
Y22776D01*
X10330Y23050D02*
Y23200D01*
X10580D02*
Y23710D01*
X10485Y23805D02*
X10580Y23710D01*
X9362Y23805D02*
X10485D01*
X10330Y23200D02*
Y23580D01*
X10195Y23715D02*
X10330Y23580D01*
X10430Y26710D02*
Y26770D01*
X10930D02*
Y27170D01*
X9324Y23715D02*
X10195D01*
X8675Y24364D02*
X9324Y23715D01*
X8765Y24402D02*
X9362Y23805D01*
X8675Y24364D02*
Y26352D01*
X8765Y24402D02*
Y26315D01*
X10680Y26770D02*
Y27100D01*
X5850Y19040D02*
X6876Y18014D01*
X5850Y19040D02*
Y27130D01*
X10680Y26540D02*
Y26770D01*
X18990Y11569D02*
X18994Y11565D01*
X19504Y11563D02*
X19510Y11569D01*
X20014Y11573D02*
X20020Y11579D01*
X20014Y11090D02*
Y11573D01*
X19504Y11090D02*
Y11563D01*
X18994Y11090D02*
Y11565D01*
X20630Y13571D02*
Y14124D01*
X20110Y13571D02*
Y14126D01*
X19610Y13561D02*
Y14124D01*
X19090Y13571D02*
Y14126D01*
X19080Y14856D02*
Y15319D01*
X19590Y14856D02*
Y15319D01*
X20090Y14854D02*
Y15309D01*
X20604Y14850D02*
Y15283D01*
X20610Y17201D02*
Y17736D01*
X20110Y17181D02*
Y17734D01*
X19590Y17191D02*
Y17736D01*
X19090Y17191D02*
Y17734D01*
X19074Y18420D02*
Y18933D01*
X19584Y18420D02*
Y18923D01*
X20094Y18420D02*
Y18933D01*
X20604Y18420D02*
Y18943D01*
X20610Y20891D02*
Y21424D01*
X20090Y20881D02*
Y21434D01*
X19590Y20891D02*
Y21424D01*
X19070Y20891D02*
Y21434D01*
X20614Y22190D02*
Y22625D01*
X20104Y22190D02*
Y22615D01*
X19594Y22190D02*
Y22615D01*
X19078Y22190D02*
Y22611D01*
X19050Y24461D02*
Y24928D01*
X19560Y24471D02*
Y24934D01*
X20070Y24471D02*
Y24934D01*
X20580Y24481D02*
Y24934D01*
X19034Y25720D02*
Y26225D01*
X19544Y25720D02*
Y26215D01*
X20054Y25720D02*
Y26223D01*
X20564Y25720D02*
Y26213D01*
X19475Y26855D02*
X19484Y26846D01*
X20679D01*
X20650Y9510D02*
X20820Y9680D01*
Y26450D01*
X20670Y26600D02*
X20820Y26450D01*
X20687Y9420D02*
X20910Y9643D01*
Y26487D01*
X20641Y26756D02*
X20910Y26487D01*
X21000Y9605D02*
Y26525D01*
X20679Y26846D02*
X21000Y26525D01*
X20715Y9320D02*
X21000Y9605D01*
X12480Y10451D02*
Y10894D01*
X12990Y10451D02*
Y10894D01*
X13500Y10461D02*
Y10894D01*
X14000Y10461D02*
Y10896D01*
X12484Y11790D02*
Y12224D01*
X12994Y11790D02*
Y12212D01*
X13504Y11790D02*
Y12224D01*
X14014Y11790D02*
Y12212D01*
X12480Y14121D02*
Y14516D01*
X12990Y14121D02*
Y14516D01*
X13510Y14131D02*
Y14514D01*
X14020Y14141D02*
Y14514D01*
X12490Y15394D02*
Y15789D01*
X13000Y15394D02*
Y15789D01*
X13510Y15394D02*
Y15799D01*
X14020Y15394D02*
Y15809D01*
X12490Y17671D02*
Y18170D01*
X13000Y17681D02*
Y18170D01*
X13510Y17671D02*
Y18170D01*
X14020Y17661D02*
Y18170D01*
X12454Y18740D02*
Y19255D01*
X12964Y18740D02*
Y19265D01*
X13474Y18740D02*
Y19255D01*
X13984Y18740D02*
Y19255D01*
X12430Y21051D02*
Y21586D01*
X12950Y21051D02*
Y21584D01*
X13460Y21041D02*
Y21584D01*
X13970Y21051D02*
Y21584D01*
X12440Y22240D02*
Y22739D01*
X12954Y22240D02*
Y22765D01*
X13464Y22240D02*
Y22763D01*
X13974Y22240D02*
Y22775D01*
X12444Y24531D02*
Y25090D01*
X12944Y24521D02*
Y25090D01*
X13454Y24541D02*
Y25090D01*
X13954Y24541D02*
Y25100D01*
X12370Y25890D02*
Y26339D01*
X12880Y25890D02*
Y26359D01*
X13394Y25890D02*
Y26345D01*
X13900Y25900D02*
Y26369D01*
X8950Y12240D02*
X9727D01*
X8895Y12295D02*
X8950Y12240D01*
X8452Y12295D02*
X8895D01*
X9727Y12240D02*
X9782Y12295D01*
X8265Y12236D02*
X8414Y12385D01*
X8932D01*
X8987Y12330D01*
X9689D01*
X9744Y12385D01*
X9157Y13390D02*
X10270D01*
X9119Y13300D02*
X10010D01*
X10225Y12295D02*
X10270Y12340D01*
X9782Y12295D02*
X10225D01*
X9744Y12385D02*
X9950D01*
X10020Y12455D01*
Y12660D01*
X10290Y15970D02*
X10440Y16120D01*
X8435Y13984D02*
Y15966D01*
X8525Y14022D02*
Y15928D01*
X8622Y16025D02*
X8758D01*
X8584Y16115D02*
X8796D01*
X8525Y15928D02*
X8622Y16025D01*
X8758D02*
X8813Y15970D01*
X8435Y15966D02*
X8584Y16115D01*
X8796D02*
X8851Y16060D01*
X6876Y17760D02*
X7490Y18374D01*
X2050Y20935D02*
X2614Y21499D01*
X8690Y15860D02*
X11770D01*
X8813Y15970D02*
X10290D01*
X8851Y16060D02*
X10120D01*
X10190Y16130D01*
Y16390D01*
X10420Y19360D02*
X10580Y19520D01*
X8762Y19425D02*
X8898D01*
X8963Y19360D01*
X10420D01*
X8665Y19328D02*
X8762Y19425D01*
X8575Y19366D02*
X8724Y19515D01*
X8936D01*
X9001Y19450D01*
X10160D01*
X10330Y19620D01*
X8665Y22738D02*
X8762Y22835D01*
X8898D01*
X8973Y22760D01*
X10350D01*
X10580Y22990D01*
X8575Y22776D02*
X8724Y22925D01*
X8936D01*
X9011Y22850D01*
X10130D01*
X10330Y23050D01*
X10470Y26330D02*
X10680Y26540D01*
X8998Y26405D02*
X9073Y26330D01*
X10470D01*
X8855Y26405D02*
X8998D01*
X8765Y26315D02*
X8855Y26405D01*
X8675Y26352D02*
X8818Y26495D01*
X9036D01*
X9111Y26420D01*
X10140D01*
X10430Y26710D01*
X7490Y18374D02*
Y27110D01*
X15608Y26235D02*
X15683Y26160D01*
X17060D01*
X17290Y26390D01*
X15285Y26176D02*
X15434Y26325D01*
X15646D01*
X15721Y26250D01*
X16870D01*
X17040Y26420D01*
X15155Y22718D02*
X15252Y22815D01*
X15388D01*
X15463Y22740D01*
X16840D01*
X17070Y22970D01*
X15065Y22756D02*
X15214Y22905D01*
X15426D01*
X15501Y22830D01*
X16647D01*
X16820Y23003D01*
X15185Y19188D02*
X15282Y19285D01*
X15418D01*
X15493Y19210D01*
X16930D01*
X17100Y19380D01*
X15095Y19226D02*
X15244Y19375D01*
X15456D01*
X15531Y19300D01*
X16677D01*
X16850Y19473D01*
X15235Y15622D02*
X15252Y15605D01*
X15252D01*
X15332Y15685D01*
X15468D01*
X15543Y15610D01*
X16950D01*
X17150Y15810D01*
X15145Y15659D02*
X15198Y15712D01*
X15231D01*
X15294Y15775D01*
X15506D01*
X15581Y15700D01*
X16710D01*
X16900Y15890D01*
X10430Y26770D02*
Y26980D01*
X10810Y27290D02*
X10930Y27170D01*
X5850Y27130D02*
X6010Y27290D01*
X10580Y27200D02*
X10680Y27100D01*
X10300Y27110D02*
X10430Y26980D01*
X6010Y27290D02*
X10810D01*
X6420Y27200D02*
X10580D01*
X7490Y27110D02*
X10300D01*
X10570Y20235D02*
X10580Y20225D01*
X8665Y20832D02*
X9262Y20235D01*
X10570D01*
X8575Y20794D02*
X9224Y20145D01*
X10305D01*
X10330Y20120D01*
D12*
X9430Y26770D02*
D03*
X9680D02*
D03*
X9930D02*
D03*
X10180D02*
D03*
X10430D02*
D03*
X10680D02*
D03*
X10930D02*
D03*
X9430Y23970D02*
D03*
X9680D02*
D03*
X9930D02*
D03*
X10180D02*
D03*
X10430D02*
D03*
X10680D02*
D03*
X10930D02*
D03*
X8930Y26240D02*
D03*
Y25990D02*
D03*
Y25490D02*
D03*
Y25740D02*
D03*
Y25240D02*
D03*
Y24990D02*
D03*
Y24740D02*
D03*
Y24490D02*
D03*
X15820Y23180D02*
D03*
X16070D02*
D03*
X16320D02*
D03*
X16570D02*
D03*
X16820D02*
D03*
X17070D02*
D03*
X17320D02*
D03*
X15820Y20380D02*
D03*
X16070D02*
D03*
X16320D02*
D03*
X16570D02*
D03*
X16820D02*
D03*
X17070D02*
D03*
X17320D02*
D03*
X15320Y22650D02*
D03*
Y22400D02*
D03*
Y21900D02*
D03*
Y22150D02*
D03*
Y21650D02*
D03*
Y21400D02*
D03*
Y21150D02*
D03*
Y20900D02*
D03*
X9330Y23200D02*
D03*
X9580D02*
D03*
X9830D02*
D03*
X10080D02*
D03*
X10330D02*
D03*
X10580D02*
D03*
X10830D02*
D03*
X9330Y20400D02*
D03*
X9580D02*
D03*
X9830D02*
D03*
X10080D02*
D03*
X10330D02*
D03*
X10580D02*
D03*
X10830D02*
D03*
X8830Y22670D02*
D03*
Y22420D02*
D03*
Y21920D02*
D03*
Y22170D02*
D03*
Y21670D02*
D03*
Y21420D02*
D03*
Y21170D02*
D03*
Y20920D02*
D03*
X15850Y19650D02*
D03*
X16100D02*
D03*
X16350D02*
D03*
X16600D02*
D03*
X16850D02*
D03*
X17100D02*
D03*
X17350D02*
D03*
X15850Y16850D02*
D03*
X16100D02*
D03*
X16350D02*
D03*
X16600D02*
D03*
X16850D02*
D03*
X17100D02*
D03*
X17350D02*
D03*
X15350Y19120D02*
D03*
Y18870D02*
D03*
Y18370D02*
D03*
Y18620D02*
D03*
Y18120D02*
D03*
Y17870D02*
D03*
Y17620D02*
D03*
Y17370D02*
D03*
X9330Y19790D02*
D03*
X9580D02*
D03*
X9830D02*
D03*
X10080D02*
D03*
X10330D02*
D03*
X10580D02*
D03*
X10830D02*
D03*
X9330Y16990D02*
D03*
X9580D02*
D03*
X9830D02*
D03*
X10080D02*
D03*
X10330D02*
D03*
X10580D02*
D03*
X10830D02*
D03*
X8830Y19260D02*
D03*
Y19010D02*
D03*
Y18510D02*
D03*
Y18760D02*
D03*
Y18260D02*
D03*
Y18010D02*
D03*
Y17760D02*
D03*
Y17510D02*
D03*
X9190Y16390D02*
D03*
X9440D02*
D03*
X9690D02*
D03*
X9940D02*
D03*
X10190D02*
D03*
X10440D02*
D03*
X10690D02*
D03*
X9190Y13590D02*
D03*
X9440D02*
D03*
X9690D02*
D03*
X9940D02*
D03*
X10190D02*
D03*
X10440D02*
D03*
X10690D02*
D03*
X8690Y15860D02*
D03*
Y15610D02*
D03*
Y15110D02*
D03*
Y15360D02*
D03*
Y14860D02*
D03*
Y14610D02*
D03*
Y14360D02*
D03*
Y14110D02*
D03*
X15900Y16050D02*
D03*
X16150D02*
D03*
X16400D02*
D03*
X16650D02*
D03*
X16900D02*
D03*
X17150D02*
D03*
X17400D02*
D03*
X15900Y13250D02*
D03*
X16150D02*
D03*
X16400D02*
D03*
X16650D02*
D03*
X16900D02*
D03*
X17150D02*
D03*
X17400D02*
D03*
X15400Y15520D02*
D03*
Y15270D02*
D03*
Y14770D02*
D03*
Y15020D02*
D03*
Y14520D02*
D03*
Y14270D02*
D03*
Y14020D02*
D03*
Y13770D02*
D03*
X9020Y12660D02*
D03*
X9270D02*
D03*
X9520D02*
D03*
X9770D02*
D03*
X10020D02*
D03*
X10270D02*
D03*
X10520D02*
D03*
X9020Y9860D02*
D03*
X9270D02*
D03*
X9520D02*
D03*
X9770D02*
D03*
X10020D02*
D03*
X10270D02*
D03*
X10520D02*
D03*
X8520Y12130D02*
D03*
Y11880D02*
D03*
Y11380D02*
D03*
Y11630D02*
D03*
Y11130D02*
D03*
Y10880D02*
D03*
Y10630D02*
D03*
Y10380D02*
D03*
X15890Y12490D02*
D03*
X16140D02*
D03*
X16390D02*
D03*
X16640D02*
D03*
X16890D02*
D03*
X17140D02*
D03*
X17390D02*
D03*
X15890Y9690D02*
D03*
X16140D02*
D03*
X16390D02*
D03*
X16640D02*
D03*
X16890D02*
D03*
X17140D02*
D03*
X17390D02*
D03*
X15390Y11960D02*
D03*
Y11710D02*
D03*
Y11210D02*
D03*
Y11460D02*
D03*
Y10960D02*
D03*
Y10710D02*
D03*
Y10460D02*
D03*
Y10210D02*
D03*
X18780Y25720D02*
D03*
X19034D02*
D03*
X19290D02*
D03*
X19544D02*
D03*
X19800D02*
D03*
X20054D02*
D03*
X20310D02*
D03*
X20564D02*
D03*
X18784Y24940D02*
D03*
X19038D02*
D03*
X12116Y25890D02*
D03*
X12370D02*
D03*
X19300Y24940D02*
D03*
X19554D02*
D03*
X12626Y25890D02*
D03*
X12880D02*
D03*
X13646Y25900D02*
D03*
X13900D02*
D03*
X19810Y24940D02*
D03*
X20064D02*
D03*
X13140Y25890D02*
D03*
X13394D02*
D03*
X12160Y25120D02*
D03*
X12414D02*
D03*
X20320Y24940D02*
D03*
X20574D02*
D03*
X12670Y25110D02*
D03*
X12924D02*
D03*
X18824Y22190D02*
D03*
X19078D02*
D03*
X13180Y25110D02*
D03*
X13434D02*
D03*
X19340Y22190D02*
D03*
X19594D02*
D03*
X13690Y25110D02*
D03*
X13944D02*
D03*
X19850Y22190D02*
D03*
X20104D02*
D03*
X20360D02*
D03*
X20614D02*
D03*
X12186Y22240D02*
D03*
X12440D02*
D03*
X18810Y21440D02*
D03*
X19064D02*
D03*
X12700Y22240D02*
D03*
X12954D02*
D03*
X19320Y21440D02*
D03*
X19574D02*
D03*
X13210Y22240D02*
D03*
X13464D02*
D03*
X19830Y21440D02*
D03*
X20084D02*
D03*
X13720Y22240D02*
D03*
X13974D02*
D03*
X20340Y21440D02*
D03*
X20594D02*
D03*
X12180Y21590D02*
D03*
X12434D02*
D03*
X12690D02*
D03*
X12944D02*
D03*
X13200D02*
D03*
X13454D02*
D03*
X18820Y18420D02*
D03*
X19074D02*
D03*
X13710Y21590D02*
D03*
X13964D02*
D03*
X19840Y18420D02*
D03*
X20094D02*
D03*
X19330D02*
D03*
X19584D02*
D03*
X20350D02*
D03*
X20604D02*
D03*
X12200Y18740D02*
D03*
X12454D02*
D03*
X2870Y25830D02*
D03*
X3124D02*
D03*
X18830Y17740D02*
D03*
X19084D02*
D03*
X12710Y18740D02*
D03*
X12964D02*
D03*
X2870Y24680D02*
D03*
X3124D02*
D03*
X13220Y18740D02*
D03*
X13474D02*
D03*
X2870Y23400D02*
D03*
X3124D02*
D03*
X19340Y17740D02*
D03*
X19594D02*
D03*
X13730Y18740D02*
D03*
X13984D02*
D03*
X19850Y17740D02*
D03*
X20104D02*
D03*
X12216Y18190D02*
D03*
X12470D02*
D03*
X20360Y17740D02*
D03*
X20614D02*
D03*
X12726Y18190D02*
D03*
X12980D02*
D03*
X13746D02*
D03*
X14000D02*
D03*
X13236D02*
D03*
X13490D02*
D03*
X12240Y15390D02*
D03*
X12494D02*
D03*
X12750D02*
D03*
X13004D02*
D03*
X18820Y14850D02*
D03*
X19074D02*
D03*
X19330D02*
D03*
X19584D02*
D03*
X19840D02*
D03*
X20094D02*
D03*
X13260Y15390D02*
D03*
X13514D02*
D03*
X20350Y14850D02*
D03*
X20604D02*
D03*
X13770Y15390D02*
D03*
X14024D02*
D03*
X18840Y14130D02*
D03*
X19094D02*
D03*
X12230Y14520D02*
D03*
X12484D02*
D03*
X13250D02*
D03*
X13504D02*
D03*
X19350Y14130D02*
D03*
X19604D02*
D03*
X12740Y14520D02*
D03*
X12994D02*
D03*
X13760D02*
D03*
X14014D02*
D03*
X19860Y14130D02*
D03*
X20114D02*
D03*
X20370D02*
D03*
X20624D02*
D03*
X2356Y25830D02*
D03*
X2610D02*
D03*
X2360Y24680D02*
D03*
X2614D02*
D03*
X18740Y11090D02*
D03*
X18994D02*
D03*
X2360Y23400D02*
D03*
X2614D02*
D03*
X12230Y11790D02*
D03*
X12484D02*
D03*
X19250Y11090D02*
D03*
X19504D02*
D03*
X12740Y11790D02*
D03*
X12994D02*
D03*
X19760Y11090D02*
D03*
X20014D02*
D03*
X13250Y11790D02*
D03*
X13504D02*
D03*
X13760D02*
D03*
X14014D02*
D03*
X12220Y10900D02*
D03*
X12474D02*
D03*
X13240D02*
D03*
X13494D02*
D03*
X12730D02*
D03*
X12984D02*
D03*
X13750D02*
D03*
X14004D02*
D03*
X16040Y26600D02*
D03*
X16290D02*
D03*
X16540D02*
D03*
X16790D02*
D03*
X17040D02*
D03*
X17290D02*
D03*
X17540D02*
D03*
X16040Y23800D02*
D03*
X16290D02*
D03*
X16540D02*
D03*
X16790D02*
D03*
X17040D02*
D03*
X17290D02*
D03*
X17540D02*
D03*
X15540Y26070D02*
D03*
Y25820D02*
D03*
Y25320D02*
D03*
Y25570D02*
D03*
Y25070D02*
D03*
Y24820D02*
D03*
Y24570D02*
D03*
Y24320D02*
D03*
D13*
X19030Y26229D02*
D03*
Y26991D02*
D03*
X19540Y26219D02*
D03*
Y26981D02*
D03*
X20060Y26229D02*
D03*
Y26991D02*
D03*
X20570Y26219D02*
D03*
Y26981D02*
D03*
X19050Y24461D02*
D03*
Y23699D02*
D03*
X12380Y26349D02*
D03*
Y27111D02*
D03*
X19560Y24471D02*
D03*
Y23709D02*
D03*
X12890Y26369D02*
D03*
Y27131D02*
D03*
X20070Y24471D02*
D03*
Y23709D02*
D03*
X13380Y26359D02*
D03*
Y27121D02*
D03*
X20580Y24481D02*
D03*
Y23719D02*
D03*
X13900Y26369D02*
D03*
Y27131D02*
D03*
X12444Y24531D02*
D03*
Y23769D02*
D03*
X12944Y24521D02*
D03*
Y23759D02*
D03*
X19060Y22629D02*
D03*
Y23391D02*
D03*
X13454Y24541D02*
D03*
Y23779D02*
D03*
X19590Y22619D02*
D03*
Y23381D02*
D03*
X13954Y24541D02*
D03*
Y23779D02*
D03*
X20090Y22629D02*
D03*
Y23391D02*
D03*
X20610Y22629D02*
D03*
Y23391D02*
D03*
X12450Y22749D02*
D03*
Y23511D02*
D03*
X19070Y20891D02*
D03*
Y20129D02*
D03*
X12950Y22769D02*
D03*
Y23531D02*
D03*
X19590Y20891D02*
D03*
Y20129D02*
D03*
X13470Y22769D02*
D03*
Y23531D02*
D03*
X20090Y20881D02*
D03*
Y20119D02*
D03*
X13970Y22779D02*
D03*
Y23541D02*
D03*
X20610Y20891D02*
D03*
Y20129D02*
D03*
X12430Y21051D02*
D03*
Y20289D02*
D03*
X12950Y21051D02*
D03*
Y20289D02*
D03*
X13460Y21041D02*
D03*
Y20279D02*
D03*
X19080Y18939D02*
D03*
Y19701D02*
D03*
X13970Y21051D02*
D03*
Y20289D02*
D03*
X19590Y18929D02*
D03*
Y19691D02*
D03*
X20100Y18939D02*
D03*
Y19701D02*
D03*
X12440Y19269D02*
D03*
Y20031D02*
D03*
X20610Y18949D02*
D03*
Y19711D02*
D03*
X12950Y19279D02*
D03*
Y20041D02*
D03*
X19090Y17191D02*
D03*
Y16429D02*
D03*
X13450Y19279D02*
D03*
Y20041D02*
D03*
X19590Y17191D02*
D03*
Y16429D02*
D03*
X20110Y17181D02*
D03*
Y16419D02*
D03*
X12490Y17671D02*
D03*
Y16909D02*
D03*
X20610Y17201D02*
D03*
Y16439D02*
D03*
X13000Y17681D02*
D03*
Y16919D02*
D03*
X13510Y17671D02*
D03*
Y16909D02*
D03*
X14020Y17661D02*
D03*
Y16899D02*
D03*
X19080Y15319D02*
D03*
Y16081D02*
D03*
X12490Y15789D02*
D03*
Y16551D02*
D03*
X19590Y15319D02*
D03*
Y16081D02*
D03*
X13000Y15789D02*
D03*
Y16551D02*
D03*
X20090Y15309D02*
D03*
Y16071D02*
D03*
X13510Y15799D02*
D03*
Y16561D02*
D03*
X20620Y15299D02*
D03*
Y16061D02*
D03*
X14020Y15809D02*
D03*
Y16571D02*
D03*
X19090Y13571D02*
D03*
Y12809D02*
D03*
X12480Y14121D02*
D03*
Y13359D02*
D03*
X19610Y13561D02*
D03*
Y12799D02*
D03*
X12990Y14121D02*
D03*
Y13359D02*
D03*
X20110Y13571D02*
D03*
Y12809D02*
D03*
X13510Y14131D02*
D03*
Y13369D02*
D03*
X20630Y13571D02*
D03*
Y12809D02*
D03*
X14020Y14141D02*
D03*
Y13379D02*
D03*
X18990Y11569D02*
D03*
Y12331D02*
D03*
X12480Y12228D02*
D03*
Y12990D02*
D03*
X19510Y11569D02*
D03*
Y12331D02*
D03*
X13000Y12218D02*
D03*
Y12980D02*
D03*
X20020Y11579D02*
D03*
Y12341D02*
D03*
X13500Y12228D02*
D03*
Y12990D02*
D03*
X14020Y12218D02*
D03*
Y12980D02*
D03*
X12480Y10451D02*
D03*
Y9689D02*
D03*
X12990Y10451D02*
D03*
Y9689D02*
D03*
X13500Y10461D02*
D03*
Y9699D02*
D03*
X14000Y10461D02*
D03*
Y9699D02*
D03*
X13980Y19289D02*
D03*
Y20051D02*
D03*
D14*
X2050Y17379D02*
D03*
Y17633D02*
D03*
X6876Y16490D02*
D03*
Y16744D02*
D03*
Y16998D02*
D03*
Y17252D02*
D03*
Y17506D02*
D03*
Y17760D02*
D03*
Y18014D02*
D03*
Y18268D02*
D03*
Y18522D02*
D03*
Y18776D02*
D03*
Y19157D02*
D03*
Y19411D02*
D03*
Y19665D02*
D03*
Y19919D02*
D03*
Y20173D02*
D03*
Y20427D02*
D03*
Y20681D02*
D03*
Y20935D02*
D03*
X2050D02*
D03*
Y20681D02*
D03*
Y20427D02*
D03*
Y20173D02*
D03*
Y19919D02*
D03*
Y19665D02*
D03*
Y19157D02*
D03*
Y18903D02*
D03*
Y18649D02*
D03*
Y18395D02*
D03*
Y18141D02*
D03*
Y17887D02*
D03*
D15*
X1590Y26940D02*
D03*
X1690Y9760D02*
D03*
X21630Y9670D02*
D03*
X21780Y26990D02*
D03*
D16*
X9770Y13020D02*
D03*
X9970Y16600D02*
D03*
X8200Y9550D02*
D03*
X14840Y10720D02*
D03*
X10120Y19990D02*
D03*
X10080Y23500D02*
D03*
X3860Y19660D02*
D03*
X16800Y26960D02*
D03*
X16570Y23400D02*
D03*
X16600Y19930D02*
D03*
X16650Y16420D02*
D03*
Y12770D02*
D03*
X10170Y26980D02*
D03*
M02*
