M48
;Layer_Color=9474304
;FILE_FORMAT=4:2
METRIC,LZ
;TYPE=PLATED
T1F00S00C0.71
T2F00S00C0.80
T3F00S00C1.02
T4F00S00C1.10
T5F00S00C3.00
%
T01
X0082Y00955
X01484Y01072
X01665Y01277
X00977Y01302
X00386Y01966
X00997Y0166
X01665Y01642
X0166Y01993
X01657Y0234
X01008Y0235
X01012Y01999
X01017Y02698
X0168Y02696
T02
X01248Y009689
X01299
X0135Y009699
X014
Y010461
X0135
X01299Y010451
X01248
X01899Y011569
X01951
X02002Y011579
Y012341
X02011Y012809
X02063
Y013571
X02011
X02009Y015309
X02062Y015299
X01959Y015319
X01908
X01909Y013571
X01961Y013561
Y012799
X01909Y012809
X01899Y012331
X01951
X01402Y012218
X0135Y012228
X013Y012218
X01248Y012228
Y01299
X01248Y013359
X01299
X013Y01298
X0135Y01299
X01351Y013369
X01402Y013379
X01402Y01298
X01402Y014141
X01351Y014131
X01299Y014121
X01248
X01249Y015789
X013
X01351Y015799
X01402Y015809
Y016571
Y016899
X01351Y016909
Y016561
X013Y016551
Y016919
X01249Y016909
Y016551
Y017671
X013Y017681
X01351Y017671
X01402Y017661
X01398Y019289
X01345Y019279
X01295
X01244Y019269
X01908Y018939
X01959Y018929
Y019691
X01908Y019701
X01909Y017191
X01959
Y016429
Y016081
X01908
X01909Y016429
X02011Y016419
X02009Y016071
X02062Y016061
X02061Y016439
Y017201
X02011Y017181
X0201Y018939
X02061Y018949
Y019711
X0201Y019701
X02009Y020119
X02061Y020129
Y020891
X02009Y020881
X02009Y022629
X02061
Y023391
X02058Y023719
X02007Y023709
X02009Y023391
X01959Y023381
X01956Y023709
X01905Y023699
X01906Y023391
Y022629
X01959Y022619
X01959Y020891
X01907
Y020129
X01959
X01398Y020051
X01397Y020289
X01346Y020279
X01345Y020041
X01295
Y020289
X01243
X01244Y020031
X01243Y021051
X01295
X01346Y021041
X01397Y021051
Y022779
X01347Y022769
X01295
X01245Y022749
Y023511
X012444Y023769
X012944Y023759
X01295Y023531
X01347
X013454Y023779
X013954
X01397Y023541
X013954Y024541
X013454
X012944Y024521
X012444Y024531
X01238Y026349
X01289Y026369
X01338Y026359
X0139Y026369
Y027131
X01338Y027121
X01289Y027131
X01238Y027111
X01903Y026991
X01954Y026981
Y026219
X01903Y026229
X01905Y024461
X01956Y024471
X02007
X02058Y024481
X02057Y026219
X02006Y026229
Y026991
X02057Y026981
T03
X00205Y017379
Y017633
Y017887
Y018141
Y018395
Y018649
Y018903
Y019157
Y019665
X006876
Y019411
Y019157
Y018776
Y018522
Y018268
Y018014
Y01776
Y017506
Y017252
Y016998
Y016744
Y01649
Y019919
Y020173
Y020427
Y020681
Y020935
X00205
Y020681
Y020427
Y020173
Y019919
T04
X00902Y00986
X00927
X00952
X00977
X01002
X01027
X01052
X00852Y01038
Y01063
Y01088
Y01113
Y01138
Y01163
Y01188
X01223Y01179
X012484
X01274
X012994
X01325
X013504
X01376
X014014
X014004Y0109
X01375
X013494
X01324
X012984
X01273
X012474
X01222
X01539Y01096
Y01121
Y01146
Y01171
Y01071
Y01046
Y01021
X01589Y00969
X01614
X01639
X01664
X01689
X01714
X01739
X01874Y01109
X018994
X01925
X019504
X01976
X020014
X020114Y01413
X01986
X02037
X020624
X020604Y01485
X02035
X020094
X01984
X019584
X01933
X019074
X01882
X01884Y01413
X019094
X01935
X019604
X0174Y01325
X01715
X0169
X01665
X0164
X01615
X0159
X01589Y01249
X01614
X01639
X01664
X01689
X01714
X01739
X01539Y01196
X0154Y01377
Y01402
Y01427
Y01452
Y01477
Y01502
Y01527
Y01552
X014024Y01539
X01377
X013514
X01326
X013004
X01275
X012494
X01224
X01223Y01452
X012484
X01274
X012994
X01325
X013504
X01376
X014014
X01069Y01359
X01044
X01019
X00994
X00969
X00944
X00919
X00927Y01266
X00902
X00952
X00977
X01002
X01027
X01052
X00852Y01213
X00869Y01411
Y01436
Y01461
Y01486
Y01511
Y01536
Y01561
Y01586
X00919Y01639
X00944
X00969
X00994
X01019
X01044
X01069
X01058Y01699
X01033
X01008
X00983
X00958
X00933
X00883Y01751
Y01776
Y01801
Y01826
Y01851
Y01876
Y01901
Y01926
X00933Y01979
X00958
X00983
X01008
X01033
X01058
X01083
Y01699
X012216Y01819
X01247
X012726
X01298
X013236
X01349
X013746
X014
X013984Y01874
X01373
X013474
X01322
X012964
X01271
X012454
X0122
X01535Y01862
Y01887
Y01912
Y01837
Y01812
Y01787
Y01762
Y01737
X01585Y01685
Y01965
X0161
X01635
X0166
X01685
X0171
X01735
X01882Y01842
X019074
X01933
X019584
X01984
X019594Y01774
X01934
X019084Y01774
X01883
X01735Y01685
X0171
X01685
X0166
X01635
X0161
X01615Y01605
X0159
X0164
X01665
X0169
X01715
X0174
X01985Y01774
X020104
X02036Y01774
X020614
X020604Y01842
X02035
X020094
X020084Y02144
X02034
X020594
X020614Y02219
X02036
X020104
X01985
X019594
X01934
X019078Y02219
X018824
X01881Y02144
X019064
X01932Y02144
X019574
X01983
X01732Y02038
X01707
X01682
X01657
X01632
X01607
Y02318
X01632
X01657
X01682
X01707
X01732
X01729Y0238
X01704
X01679
X01654
X01629
X01604
X01754
X01582Y02318
X01532Y02265
Y0224
Y02215
Y0219
Y02165
Y0214
Y02115
Y0209
X01582Y02038
X013964Y02159
X01371
X013454
X0132
X012944
X01269
X012434
X01218
X012186Y02224
X01244
X0127
X012954
X01321
X013464
X01372
X013974
X01083Y0232
X01058
X01033
X01008
X00983
X00958
X00933
X00883Y02267
Y02242
Y02217
Y02192
Y02167
Y02142
Y02117
Y02092
X00933Y0204
X00958
X00983
X01008
X01033
X01058
X01083
X003124Y0234
X00287
X002614
X00236
Y02468
X002614
X00287Y02468
X003124
Y02583
X00287
X00261Y02583
X002356
X00893Y02574
Y02599
Y02624
Y02549
Y02524
Y02499
Y02474
Y02449
X00943Y02397
X00968
X00993
X01018
X01043
X01068
X01093
Y02677
X01068
X01043
X01018
X00993
X00968
X00943
X012116Y02589
X01237
X012626
X01288
X01314
X013394
X013646Y0259
X0139
X013944Y02511
X01369
X013434
X01318
X012924
X01267
X012414Y02512
X01216
X01554Y02507
Y02532
Y02557
Y02582
Y02607
Y02482
Y02457
Y02432
X01604Y0266
X01629
X01654
X01679
X01704
X01729
X01754
X01878Y02572
X019034
X01929
X019544
X0198
X01981Y02494
X019554
X0193
X019038
X018784
X020064
X02032
X020574
X020564Y02572
X02031
X020054
T05
X00169Y00976
X02163Y00967
X00159Y02694
X02178Y02699
M30
