G04 Layer_Color=8388736*
%FSLAX42Y42*%
%MOMM*%
G71*
G01*
G75*
%ADD10C,2.20*%
%ADD11C,1.60*%
%ADD12C,2.08*%
%ADD13C,3.70*%
%ADD14C,1.47*%
D10*
X9430Y26770D02*
D03*
X9680D02*
D03*
X9930D02*
D03*
X10180D02*
D03*
X10430D02*
D03*
X10680D02*
D03*
X10930D02*
D03*
X9430Y23970D02*
D03*
X9680D02*
D03*
X9930D02*
D03*
X10180D02*
D03*
X10430D02*
D03*
X10680D02*
D03*
X10930D02*
D03*
X8930Y26240D02*
D03*
Y25990D02*
D03*
Y25490D02*
D03*
Y25740D02*
D03*
Y25240D02*
D03*
Y24990D02*
D03*
Y24740D02*
D03*
Y24490D02*
D03*
X15820Y23180D02*
D03*
X16070D02*
D03*
X16320D02*
D03*
X16570D02*
D03*
X16820D02*
D03*
X17070D02*
D03*
X17320D02*
D03*
X15820Y20380D02*
D03*
X16070D02*
D03*
X16320D02*
D03*
X16570D02*
D03*
X16820D02*
D03*
X17070D02*
D03*
X17320D02*
D03*
X15320Y22650D02*
D03*
Y22400D02*
D03*
Y21900D02*
D03*
Y22150D02*
D03*
Y21650D02*
D03*
Y21400D02*
D03*
Y21150D02*
D03*
Y20900D02*
D03*
X9330Y23200D02*
D03*
X9580D02*
D03*
X9830D02*
D03*
X10080D02*
D03*
X10330D02*
D03*
X10580D02*
D03*
X10830D02*
D03*
X9330Y20400D02*
D03*
X9580D02*
D03*
X9830D02*
D03*
X10080D02*
D03*
X10330D02*
D03*
X10580D02*
D03*
X10830D02*
D03*
X8830Y22670D02*
D03*
Y22420D02*
D03*
Y21920D02*
D03*
Y22170D02*
D03*
Y21670D02*
D03*
Y21420D02*
D03*
Y21170D02*
D03*
Y20920D02*
D03*
X15850Y19650D02*
D03*
X16100D02*
D03*
X16350D02*
D03*
X16600D02*
D03*
X16850D02*
D03*
X17100D02*
D03*
X17350D02*
D03*
X15850Y16850D02*
D03*
X16100D02*
D03*
X16350D02*
D03*
X16600D02*
D03*
X16850D02*
D03*
X17100D02*
D03*
X17350D02*
D03*
X15350Y19120D02*
D03*
Y18870D02*
D03*
Y18370D02*
D03*
Y18620D02*
D03*
Y18120D02*
D03*
Y17870D02*
D03*
Y17620D02*
D03*
Y17370D02*
D03*
X9330Y19790D02*
D03*
X9580D02*
D03*
X9830D02*
D03*
X10080D02*
D03*
X10330D02*
D03*
X10580D02*
D03*
X10830D02*
D03*
X9330Y16990D02*
D03*
X9580D02*
D03*
X9830D02*
D03*
X10080D02*
D03*
X10330D02*
D03*
X10580D02*
D03*
X10830D02*
D03*
X8830Y19260D02*
D03*
Y19010D02*
D03*
Y18510D02*
D03*
Y18760D02*
D03*
Y18260D02*
D03*
Y18010D02*
D03*
Y17760D02*
D03*
Y17510D02*
D03*
X9190Y16390D02*
D03*
X9440D02*
D03*
X9690D02*
D03*
X9940D02*
D03*
X10190D02*
D03*
X10440D02*
D03*
X10690D02*
D03*
X9190Y13590D02*
D03*
X9440D02*
D03*
X9690D02*
D03*
X9940D02*
D03*
X10190D02*
D03*
X10440D02*
D03*
X10690D02*
D03*
X8690Y15860D02*
D03*
Y15610D02*
D03*
Y15110D02*
D03*
Y15360D02*
D03*
Y14860D02*
D03*
Y14610D02*
D03*
Y14360D02*
D03*
Y14110D02*
D03*
X15900Y16050D02*
D03*
X16150D02*
D03*
X16400D02*
D03*
X16650D02*
D03*
X16900D02*
D03*
X17150D02*
D03*
X17400D02*
D03*
X15900Y13250D02*
D03*
X16150D02*
D03*
X16400D02*
D03*
X16650D02*
D03*
X16900D02*
D03*
X17150D02*
D03*
X17400D02*
D03*
X15400Y15520D02*
D03*
Y15270D02*
D03*
Y14770D02*
D03*
Y15020D02*
D03*
Y14520D02*
D03*
Y14270D02*
D03*
Y14020D02*
D03*
Y13770D02*
D03*
X9020Y12660D02*
D03*
X9270D02*
D03*
X9520D02*
D03*
X9770D02*
D03*
X10020D02*
D03*
X10270D02*
D03*
X10520D02*
D03*
X9020Y9860D02*
D03*
X9270D02*
D03*
X9520D02*
D03*
X9770D02*
D03*
X10020D02*
D03*
X10270D02*
D03*
X10520D02*
D03*
X8520Y12130D02*
D03*
Y11880D02*
D03*
Y11380D02*
D03*
Y11630D02*
D03*
Y11130D02*
D03*
Y10880D02*
D03*
Y10630D02*
D03*
Y10380D02*
D03*
X15890Y12490D02*
D03*
X16140D02*
D03*
X16390D02*
D03*
X16640D02*
D03*
X16890D02*
D03*
X17140D02*
D03*
X17390D02*
D03*
X15890Y9690D02*
D03*
X16140D02*
D03*
X16390D02*
D03*
X16640D02*
D03*
X16890D02*
D03*
X17140D02*
D03*
X17390D02*
D03*
X15390Y11960D02*
D03*
Y11710D02*
D03*
Y11210D02*
D03*
Y11460D02*
D03*
Y10960D02*
D03*
Y10710D02*
D03*
Y10460D02*
D03*
Y10210D02*
D03*
X18780Y25720D02*
D03*
X19034D02*
D03*
X19290D02*
D03*
X19544D02*
D03*
X19800D02*
D03*
X20054D02*
D03*
X20310D02*
D03*
X20564D02*
D03*
X18784Y24940D02*
D03*
X19038D02*
D03*
X12116Y25890D02*
D03*
X12370D02*
D03*
X19300Y24940D02*
D03*
X19554D02*
D03*
X12626Y25890D02*
D03*
X12880D02*
D03*
X13646Y25900D02*
D03*
X13900D02*
D03*
X19810Y24940D02*
D03*
X20064D02*
D03*
X13140Y25890D02*
D03*
X13394D02*
D03*
X12160Y25120D02*
D03*
X12414D02*
D03*
X20320Y24940D02*
D03*
X20574D02*
D03*
X12670Y25110D02*
D03*
X12924D02*
D03*
X18824Y22190D02*
D03*
X19078D02*
D03*
X13180Y25110D02*
D03*
X13434D02*
D03*
X19340Y22190D02*
D03*
X19594D02*
D03*
X13690Y25110D02*
D03*
X13944D02*
D03*
X19850Y22190D02*
D03*
X20104D02*
D03*
X20360D02*
D03*
X20614D02*
D03*
X12186Y22240D02*
D03*
X12440D02*
D03*
X18810Y21440D02*
D03*
X19064D02*
D03*
X12700Y22240D02*
D03*
X12954D02*
D03*
X19320Y21440D02*
D03*
X19574D02*
D03*
X13210Y22240D02*
D03*
X13464D02*
D03*
X19830Y21440D02*
D03*
X20084D02*
D03*
X13720Y22240D02*
D03*
X13974D02*
D03*
X20340Y21440D02*
D03*
X20594D02*
D03*
X12180Y21590D02*
D03*
X12434D02*
D03*
X12690D02*
D03*
X12944D02*
D03*
X13200D02*
D03*
X13454D02*
D03*
X18820Y18420D02*
D03*
X19074D02*
D03*
X13710Y21590D02*
D03*
X13964D02*
D03*
X19840Y18420D02*
D03*
X20094D02*
D03*
X19330D02*
D03*
X19584D02*
D03*
X20350D02*
D03*
X20604D02*
D03*
X12200Y18740D02*
D03*
X12454D02*
D03*
X2870Y25830D02*
D03*
X3124D02*
D03*
X18830Y17740D02*
D03*
X19084D02*
D03*
X12710Y18740D02*
D03*
X12964D02*
D03*
X2870Y24680D02*
D03*
X3124D02*
D03*
X13220Y18740D02*
D03*
X13474D02*
D03*
X2870Y23400D02*
D03*
X3124D02*
D03*
X19340Y17740D02*
D03*
X19594D02*
D03*
X13730Y18740D02*
D03*
X13984D02*
D03*
X19850Y17740D02*
D03*
X20104D02*
D03*
X12216Y18190D02*
D03*
X12470D02*
D03*
X20360Y17740D02*
D03*
X20614D02*
D03*
X12726Y18190D02*
D03*
X12980D02*
D03*
X13746D02*
D03*
X14000D02*
D03*
X13236D02*
D03*
X13490D02*
D03*
X12240Y15390D02*
D03*
X12494D02*
D03*
X12750D02*
D03*
X13004D02*
D03*
X18820Y14850D02*
D03*
X19074D02*
D03*
X19330D02*
D03*
X19584D02*
D03*
X19840D02*
D03*
X20094D02*
D03*
X13260Y15390D02*
D03*
X13514D02*
D03*
X20350Y14850D02*
D03*
X20604D02*
D03*
X13770Y15390D02*
D03*
X14024D02*
D03*
X18840Y14130D02*
D03*
X19094D02*
D03*
X12230Y14520D02*
D03*
X12484D02*
D03*
X13250D02*
D03*
X13504D02*
D03*
X19350Y14130D02*
D03*
X19604D02*
D03*
X12740Y14520D02*
D03*
X12994D02*
D03*
X13760D02*
D03*
X14014D02*
D03*
X19860Y14130D02*
D03*
X20114D02*
D03*
X20370D02*
D03*
X20624D02*
D03*
X2356Y25830D02*
D03*
X2610D02*
D03*
X2360Y24680D02*
D03*
X2614D02*
D03*
X18740Y11090D02*
D03*
X18994D02*
D03*
X2360Y23400D02*
D03*
X2614D02*
D03*
X12230Y11790D02*
D03*
X12484D02*
D03*
X19250Y11090D02*
D03*
X19504D02*
D03*
X12740Y11790D02*
D03*
X12994D02*
D03*
X19760Y11090D02*
D03*
X20014D02*
D03*
X13250Y11790D02*
D03*
X13504D02*
D03*
X13760D02*
D03*
X14014D02*
D03*
X12220Y10900D02*
D03*
X12474D02*
D03*
X13240D02*
D03*
X13494D02*
D03*
X12730D02*
D03*
X12984D02*
D03*
X13750D02*
D03*
X14004D02*
D03*
X16040Y26600D02*
D03*
X16290D02*
D03*
X16540D02*
D03*
X16790D02*
D03*
X17040D02*
D03*
X17290D02*
D03*
X17540D02*
D03*
X16040Y23800D02*
D03*
X16290D02*
D03*
X16540D02*
D03*
X16790D02*
D03*
X17040D02*
D03*
X17290D02*
D03*
X17540D02*
D03*
X15540Y26070D02*
D03*
Y25820D02*
D03*
Y25320D02*
D03*
Y25570D02*
D03*
Y25070D02*
D03*
Y24820D02*
D03*
Y24570D02*
D03*
Y24320D02*
D03*
D11*
X19030Y26229D02*
D03*
Y26991D02*
D03*
X19540Y26219D02*
D03*
Y26981D02*
D03*
X20060Y26229D02*
D03*
Y26991D02*
D03*
X20570Y26219D02*
D03*
Y26981D02*
D03*
X19050Y24461D02*
D03*
Y23699D02*
D03*
X12380Y26349D02*
D03*
Y27111D02*
D03*
X19560Y24471D02*
D03*
Y23709D02*
D03*
X12890Y26369D02*
D03*
Y27131D02*
D03*
X20070Y24471D02*
D03*
Y23709D02*
D03*
X13380Y26359D02*
D03*
Y27121D02*
D03*
X20580Y24481D02*
D03*
Y23719D02*
D03*
X13900Y26369D02*
D03*
Y27131D02*
D03*
X12444Y24531D02*
D03*
Y23769D02*
D03*
X12944Y24521D02*
D03*
Y23759D02*
D03*
X19060Y22629D02*
D03*
Y23391D02*
D03*
X13454Y24541D02*
D03*
Y23779D02*
D03*
X19590Y22619D02*
D03*
Y23381D02*
D03*
X13954Y24541D02*
D03*
Y23779D02*
D03*
X20090Y22629D02*
D03*
Y23391D02*
D03*
X20610Y22629D02*
D03*
Y23391D02*
D03*
X12450Y22749D02*
D03*
Y23511D02*
D03*
X19070Y20891D02*
D03*
Y20129D02*
D03*
X12950Y22769D02*
D03*
Y23531D02*
D03*
X19590Y20891D02*
D03*
Y20129D02*
D03*
X13470Y22769D02*
D03*
Y23531D02*
D03*
X20090Y20881D02*
D03*
Y20119D02*
D03*
X13970Y22779D02*
D03*
Y23541D02*
D03*
X20610Y20891D02*
D03*
Y20129D02*
D03*
X12430Y21051D02*
D03*
Y20289D02*
D03*
X12950Y21051D02*
D03*
Y20289D02*
D03*
X13460Y21041D02*
D03*
Y20279D02*
D03*
X19080Y18939D02*
D03*
Y19701D02*
D03*
X13970Y21051D02*
D03*
Y20289D02*
D03*
X19590Y18929D02*
D03*
Y19691D02*
D03*
X20100Y18939D02*
D03*
Y19701D02*
D03*
X12440Y19269D02*
D03*
Y20031D02*
D03*
X20610Y18949D02*
D03*
Y19711D02*
D03*
X12950Y19279D02*
D03*
Y20041D02*
D03*
X19090Y17191D02*
D03*
Y16429D02*
D03*
X13450Y19279D02*
D03*
Y20041D02*
D03*
X19590Y17191D02*
D03*
Y16429D02*
D03*
X20110Y17181D02*
D03*
Y16419D02*
D03*
X12490Y17671D02*
D03*
Y16909D02*
D03*
X20610Y17201D02*
D03*
Y16439D02*
D03*
X13000Y17681D02*
D03*
Y16919D02*
D03*
X13510Y17671D02*
D03*
Y16909D02*
D03*
X14020Y17661D02*
D03*
Y16899D02*
D03*
X19080Y15319D02*
D03*
Y16081D02*
D03*
X12490Y15789D02*
D03*
Y16551D02*
D03*
X19590Y15319D02*
D03*
Y16081D02*
D03*
X13000Y15789D02*
D03*
Y16551D02*
D03*
X20090Y15309D02*
D03*
Y16071D02*
D03*
X13510Y15799D02*
D03*
Y16561D02*
D03*
X20620Y15299D02*
D03*
Y16061D02*
D03*
X14020Y15809D02*
D03*
Y16571D02*
D03*
X19090Y13571D02*
D03*
Y12809D02*
D03*
X12480Y14121D02*
D03*
Y13359D02*
D03*
X19610Y13561D02*
D03*
Y12799D02*
D03*
X12990Y14121D02*
D03*
Y13359D02*
D03*
X20110Y13571D02*
D03*
Y12809D02*
D03*
X13510Y14131D02*
D03*
Y13369D02*
D03*
X20630Y13571D02*
D03*
Y12809D02*
D03*
X14020Y14141D02*
D03*
Y13379D02*
D03*
X18990Y11569D02*
D03*
Y12331D02*
D03*
X12480Y12228D02*
D03*
Y12990D02*
D03*
X19510Y11569D02*
D03*
Y12331D02*
D03*
X13000Y12218D02*
D03*
Y12980D02*
D03*
X20020Y11579D02*
D03*
Y12341D02*
D03*
X13500Y12228D02*
D03*
Y12990D02*
D03*
X14020Y12218D02*
D03*
Y12980D02*
D03*
X12480Y10451D02*
D03*
Y9689D02*
D03*
X12990Y10451D02*
D03*
Y9689D02*
D03*
X13500Y10461D02*
D03*
Y9699D02*
D03*
X14000Y10461D02*
D03*
Y9699D02*
D03*
X13980Y19289D02*
D03*
Y20051D02*
D03*
D12*
X2050Y17379D02*
D03*
Y17633D02*
D03*
X6876Y16490D02*
D03*
Y16744D02*
D03*
Y16998D02*
D03*
Y17252D02*
D03*
Y17506D02*
D03*
Y17760D02*
D03*
Y18014D02*
D03*
Y18268D02*
D03*
Y18522D02*
D03*
Y18776D02*
D03*
Y19157D02*
D03*
Y19411D02*
D03*
Y19665D02*
D03*
Y19919D02*
D03*
Y20173D02*
D03*
Y20427D02*
D03*
Y20681D02*
D03*
Y20935D02*
D03*
X2050D02*
D03*
Y20681D02*
D03*
Y20427D02*
D03*
Y20173D02*
D03*
Y19919D02*
D03*
Y19665D02*
D03*
Y19157D02*
D03*
Y18903D02*
D03*
Y18649D02*
D03*
Y18395D02*
D03*
Y18141D02*
D03*
Y17887D02*
D03*
D13*
X1590Y26940D02*
D03*
X1690Y9760D02*
D03*
X21630Y9670D02*
D03*
X21780Y26990D02*
D03*
D14*
X9770Y13020D02*
D03*
X9970Y16600D02*
D03*
X8200Y9550D02*
D03*
X14840Y10720D02*
D03*
X10120Y19990D02*
D03*
X10080Y23500D02*
D03*
X3860Y19660D02*
D03*
X16800Y26960D02*
D03*
X16570Y23400D02*
D03*
X16600Y19930D02*
D03*
X16650Y16420D02*
D03*
Y12770D02*
D03*
X10170Y26980D02*
D03*
M02*
